<?xml version="1.0" encoding="iso-8859-1"?>
<!-- Generator: Adobe Illustrator 19.0.0, SVG Export Plug-In . SVG Version: 6.00 Build 0)  -->
<svg version="1.1" id="Layer_1" xmlns="http://www.w3.org/2000/svg" xmlns:xlink="http://www.w3.org/1999/xlink" x="0px" y="0px"
	 viewBox="0 0 512.002 512.002" style="enable-background:new 0 0 512.002 512.002;" xml:space="preserve">
<g>
	<path style="fill:#994C0F;" d="M121.631,291.289l-55.648-43.72l22.436-44.859c3.706-7.412,0.703-16.421-6.709-20.127
		c-7.427-3.677-16.406-0.703-20.127,6.709l-19.559,39.109l-17.648-14.119c-6.459-5.171-15.908-4.058-21.093,2.344
		c-5.171,6.475-4.116,15.908,2.343,21.094l97.256,77.007c6.448,5.151,15.874,4.136,21.094-2.344
		C129.146,305.908,128.091,296.475,121.631,291.289z"/>
	<path style="fill:#713708;" d="M508.72,216.626c-5.186-6.46-14.619-7.529-21.094-2.344l-17.647,14.119l-19.559-39.109
		c-3.721-7.412-12.729-10.386-20.127-6.709c-7.412,3.706-10.415,12.715-6.709,20.127l22.436,44.859l-55.648,43.72
		c-6.46,5.186-7.515,14.619-2.344,21.094c5.22,6.48,14.646,7.495,21.094,2.344l97.254-77.007
		C512.836,232.534,513.891,223.101,508.72,216.626z"/>
	<path style="fill:#CCEFFF;" d="M421.001,346.001c0,90.901-74.099,166-165,166s-165-75.099-165-166c0-38.401,13.5-75.601,37.8-105.3
		h254.399C410.168,273.66,421.001,304.341,421.001,346.001z"/>
	<path style="fill:#ACE3FC;" d="M421.001,346.001c0,90.901-74.099,166-165,166v-271.3h127.2
		C410.168,273.66,421.001,304.341,421.001,346.001z"/>
	<path style="fill:#32D736;" d="M391.001,226.001c0,57.9-60.601,105-135,105s-135-47.1-135-105c0-26.4,12.599-51.899,35.7-71.1
		h198.6C378.402,174.102,391.001,199.601,391.001,226.001z"/>
	<path style="fill:#0CA656;" d="M271.001,313.159v62.842c0,8.291,6.709,15,15,15h60c8.291,0,15-6.709,15-15v-90.469L271.001,313.159
		z"/>
	<path style="fill:#10BB67;" d="M391.001,226.001c0,57.9-60.601,105-135,105v-176.1h99.3
		C378.402,174.102,391.001,199.601,391.001,226.001z"/>
	<path style="fill:#DCF4FF;" d="M361.001,166.001c0,57.9-47.1,105-105,105s-105-47.1-105-105c0-12.001,2.1-23.699,6-35.099
		c2.699-7.8,11.4-11.7,19.2-9H335.8c7.8-2.701,16.501,1.199,19.2,9C358.901,142.302,361.001,154,361.001,166.001z"/>
	<path style="fill:#CCEFFF;" d="M361.001,166.001c0,57.9-47.1,105-105,105V121.902H335.8c7.8-2.701,16.501,1.199,19.2,9
		C358.901,142.302,361.001,154,361.001,166.001z"/>
	<path style="fill:#994C0F;" d="M271.001,193.3c0,8.101-6.599,15-15,15c-8.401,0-15-6.899-15-15c0-8.399,6.599-15,15-15
		C264.402,178.3,271.001,184.901,271.001,193.3z"/>
	<path style="fill:#E50027;" d="M316.001,0.001h-120c-24.901,0-45,20.099-45,45v91c0,8.401,6.599,15,15,15h180
		c8.401,0,15-6.599,15-15v-91C361.001,20.101,340.902,0.001,316.001,0.001z"/>
	<path style="fill:#C1001F;" d="M361.001,45.001v91c0,8.401-6.599,15-15,15h-90v-151h60
		C340.902,0.001,361.001,20.101,361.001,45.001z"/>
	<path style="fill:#FD003A;" d="M391.001,136.001c0,8.401-6.599,15-15,15h-240c-8.401,0-15-6.599-15-15s6.599-15,15-15h240
		C384.402,121.001,391.001,127.6,391.001,136.001z"/>
	<path style="fill:#E50027;" d="M391.001,136.001c0,8.401-6.599,15-15,15h-120v-30h120
		C384.402,121.001,391.001,127.6,391.001,136.001z"/>
</g>
<g>
</g>
<g>
</g>
<g>
</g>
<g>
</g>
<g>
</g>
<g>
</g>
<g>
</g>
<g>
</g>
<g>
</g>
<g>
</g>
<g>
</g>
<g>
</g>
<g>
</g>
<g>
</g>
<g>
</g>
</svg>
