<?xml version="1.0" encoding="iso-8859-1"?>
<!-- Generator: Adobe Illustrator 19.0.0, SVG Export Plug-In . SVG Version: 6.00 Build 0)  -->
<svg version="1.1" id="Layer_1" xmlns="http://www.w3.org/2000/svg" xmlns:xlink="http://www.w3.org/1999/xlink" x="0px" y="0px"
	 viewBox="0 0 512.059 512.059" style="enable-background:new 0 0 512.059 512.059;" xml:space="preserve">
<g>
	<path style="fill:#FEA832;" d="M155.217,164.034l-13.989-13.989c-19.849-19.849-48.706-26.66-75.352-17.783
		c-38.511,12.832-59.399,54.609-46.567,93.135c5.259,15.776,1.23,32.886-10.532,44.648l-4.38,4.38
		c-3.677,3.677-5.186,8.994-3.999,14.048c1.201,5.068,4.922,9.141,9.858,10.781l73.125,24.375c1.582,0.527,3.179,0.776,4.745,0.776
		c6.285,0,12.13-3.97,14.224-10.254l52.866-128.906C161.076,179.385,161.076,169.893,155.217,164.034z"/>
	<path style="fill:#FE9923;" d="M407.002,0.03h-30c-53.401,0-98.5,39.901-105.099,91.199c-5.402,1.201-10.801,3.001-15.901,5.4
		c-26.4,11.4-46,37.8-46,68.401c0,8.399,6.599,15,15,15h92c24.901,0,45-20.101,45-45v-30c0-8.401,6.599-15,15-15h30
		c24.901,0,45-20.099,45-45S431.903,0.03,407.002,0.03z"/>
	<path style="fill:#FD003A;" d="M485.001,208.53c-17.098,12.299-38.399,15.599-58.499,8.699l-1.501-0.3l31.8,240.801
		c-20.7,5.099-41.999,9.6-64.499,12.9l-52.8-133.7c-21.301,11.1-45.399,17.701-68.5,19.801c-4.799,0.298-9.901,0.599-15,0.599
		s-10.201-0.3-15-0.599c-23.101-2.1-47.199-8.701-68.5-19.801l-52.8,133.7c-22.2-3.3-43.5-7.5-63.9-12.599l24.901-215.301
		c5.7-48.6,46.8-89.7,99.3-92.1l30,74.401l122-60v-60c0-24.901,20.099-45,45-45h60c3.9,0,7.8,1.5,10.499,4.501l45.601,45.298
		C520.701,137.729,518.303,184.529,485.001,208.53z"/>
	<path style="fill:#E50027;" d="M485.001,208.53c-17.098,12.299-38.399,15.599-58.499,8.699l-1.501-0.3l31.8,240.801
		c-20.7,5.099-41.999,9.6-64.499,12.9l-52.8-133.7c-21.301,11.1-45.399,17.701-68.5,19.801c-4.799,0.298-9.901,0.599-15,0.599
		V202.53l76-37.5v-60c0-24.901,20.099-45,45-45h60c3.9,0,7.8,1.5,10.499,4.501l45.601,45.298
		C520.701,137.729,518.303,184.529,485.001,208.53z"/>
	<circle style="fill:#713708;" cx="407.002" cy="135.03" r="15"/>
	<path style="fill:#CCEFFF;" d="M271.002,255.03v101.7c-4.799,0.298-9.901,0.599-15,0.599s-10.201-0.3-15-0.599v-101.7
		c0-8.401,6.599-15,15-15S271.002,246.629,271.002,255.03z"/>
	<path style="fill:#ACE3FC;" d="M271.002,255.03v101.7c-4.799,0.298-9.901,0.599-15,0.599V240.03
		C264.403,240.03,271.002,246.629,271.002,255.03z"/>
	<g>
		<g>
			<path style="fill:#994C0F;" d="M490.403,481.429c-71.102,20.4-160.6,30.601-234.401,30.601S92.703,501.829,21.901,481.429
				c-15.899-4.501-25.199-21.301-20.7-37.2c4.501-15.601,21-25.201,36.901-20.4c65.7,18.6,149.799,28.2,217.899,28.2
				s152.199-9.6,217.599-28.2c15.601-4.501,32.701,4.2,37.202,20.4C515.302,460.128,506.002,476.928,490.403,481.429z"/>
		</g>
	</g>
	<path style="fill:#713708;" d="M490.403,481.429c-71.102,20.4-160.6,30.601-234.401,30.601v-60c68.101,0,152.199-9.6,217.599-28.2
		c15.601-4.501,32.701,4.2,37.202,20.4C515.302,460.128,506.002,476.928,490.403,481.429z"/>
	<path style="fill:#DCF4FF;" d="M332.002,135.03v90c0,24.899-20.099,45-45,45h-62c-24.901,0-45-20.101-45-45v-74.401
		c1.8-0.298,3.3-0.599,5.099-0.599h131.901C325.403,150.03,332.002,143.429,332.002,135.03z"/>
	<path style="fill:#CCEFFF;" d="M332.002,135.03v90c0,24.899-20.099,45-45,45h-31v-120h61
		C325.403,150.03,332.002,143.429,332.002,135.03z"/>
	<path style="fill:#32D736;" d="M287.002,240.03c8.262,0,15-6.724,15-15v-75h-92v75c0,8.276,6.738,15,15,15H287.002z"/>
	<path style="fill:#10BB67;" d="M287.002,240.03c8.262,0,15-6.724,15-15v-75h-46v90H287.002z"/>
</g>
<g>
</g>
<g>
</g>
<g>
</g>
<g>
</g>
<g>
</g>
<g>
</g>
<g>
</g>
<g>
</g>
<g>
</g>
<g>
</g>
<g>
</g>
<g>
</g>
<g>
</g>
<g>
</g>
<g>
</g>
</svg>
