<?xml version="1.0" encoding="iso-8859-1"?>
<!-- Generator: Adobe Illustrator 19.0.0, SVG Export Plug-In . SVG Version: 6.00 Build 0)  -->
<svg version="1.1" id="Layer_1" xmlns="http://www.w3.org/2000/svg" xmlns:xlink="http://www.w3.org/1999/xlink" x="0px" y="0px"
	 viewBox="0 0 512 512" style="enable-background:new 0 0 512 512;" xml:space="preserve">
<g>
	<g>
		<path style="fill:#FD003A;" d="M272,182v210H60c-32.999,0-60-27.001-60-60V182l30-30h212L272,182z"/>
	</g>
	<polygon style="fill:#E50027;" points="272,182 272,392 136,392 136,152 242,152 	"/>
	<polygon style="fill:#32D736;" points="272,122 272,182 0,182 0,122 30,92 242,92 	"/>
	<polygon style="fill:#10BB67;" points="272,122 272,182 136,182 136,92 242,92 	"/>
	<path style="fill:#32D736;" d="M257,0c8.291,0,15,6.709,15,15v30c0,8.291-6.709,15-15,15s-15-6.709-15-15V15
		C242,6.709,248.709,0,257,0z"/>
	<path style="fill:#32D736;" d="M197,0c8.291,0,15,6.709,15,15v30c0,8.291-6.709,15-15,15s-15-6.709-15-15V15
		C182,6.709,188.709,0,197,0z"/>
	<path style="fill:#32D736;" d="M151,15v30c0,8.399-6.599,15-15,15s-15-6.601-15-15V15c0-8.401,6.599-15,15-15S151,6.599,151,15z"/>
	<path style="fill:#32D736;" d="M75,0c8.291,0,15,6.709,15,15v30c0,8.291-6.709,15-15,15s-15-6.709-15-15V15C60,6.709,66.709,0,75,0
		z"/>
	<path style="fill:#32D736;" d="M15,0c8.291,0,15,6.709,15,15v30c0,8.291-6.709,15-15,15S0,53.291,0,45l0-30C0,6.709,6.709,0,15,0z"
		/>
	<rect x="0" y="30" style="fill:#FD003A;" width="272" height="92"/>
	<rect x="136" y="30" style="fill:#E50027;" width="136" height="92"/>
	<path style="fill:#FD003A;" d="M512,287v45l-30,30H272l-30-30v-60c0-16.5-6.599-31.5-17.701-42.301
		C213.5,218.599,198.5,212,182,212h255C478.4,212,512,245.6,512,287z"/>
	<path style="fill:#E50027;" d="M512,287v45l-30,30H377V212h60C478.4,212,512,245.6,512,287z"/>
	<polygon style="fill:#32D736;" points="512,332 512,392 482,422 272,422 242,392 242,332 	"/>
	<polygon style="fill:#10BB67;" points="512,332 512,392 482,422 377,422 377,332 	"/>
	<path style="fill:#32D736;" d="M257,512c-8.291,0-15-6.709-15-15v-30c0-8.291,6.709-15,15-15s15,6.709,15,15v30
		C272,505.291,265.291,512,257,512z"/>
	<path style="fill:#32D736;" d="M317,512c-8.291,0-15-6.709-15-15v-30c0-8.291,6.709-15,15-15s15,6.709,15,15v30
		C332,505.291,325.291,512,317,512z"/>
	<path style="fill:#32D736;" d="M392,467v30c0,8.399-6.599,15-15,15s-15-6.601-15-15v-30c0-8.401,6.599-15,15-15
		S392,458.599,392,467z"/>
	<path style="fill:#32D736;" d="M437,512c-8.291,0-15-6.709-15-15v-30c0-8.291,6.709-15,15-15s15,6.709,15,15v30
		C452,505.291,445.291,512,437,512z"/>
	<path style="fill:#32D736;" d="M497,512c-8.291,0-15-6.709-15-15v-30c0-8.291,6.709-15,15-15s15,6.709,15,15v30
		C512,505.291,505.291,512,497,512z"/>
	<rect x="242" y="392" style="fill:#FD003A;" width="270" height="90"/>
	<rect x="377" y="392" style="fill:#E50027;" width="135" height="90"/>
	<path style="fill:#C1001F;" d="M242,272v120H60c32.999,0,61-27.001,61-60v-60c0-15,5.4-28.801,15-39.3
		c10.8-12.601,28.001-20.7,46-20.7c16.5,0,31.5,6.599,42.299,17.699C235.401,240.5,242,255.5,242,272z"/>
</g>
<g>
</g>
<g>
</g>
<g>
</g>
<g>
</g>
<g>
</g>
<g>
</g>
<g>
</g>
<g>
</g>
<g>
</g>
<g>
</g>
<g>
</g>
<g>
</g>
<g>
</g>
<g>
</g>
<g>
</g>
</svg>
