<?xml version="1.0" encoding="iso-8859-1"?>
<!-- Generator: Adobe Illustrator 19.0.0, SVG Export Plug-In . SVG Version: 6.00 Build 0)  -->
<svg version="1.1" id="Layer_1" xmlns="http://www.w3.org/2000/svg" xmlns:xlink="http://www.w3.org/1999/xlink" x="0px" y="0px"
	 viewBox="0 0 512 512" style="enable-background:new 0 0 512 512;" xml:space="preserve">
<g>
	<path style="fill:#713708;" d="M466,120h-30c-8.291,0-15-6.709-15-15s6.709-15,15-15h30c8.291,0,15,6.709,15,15
		S474.291,120,466,120z"/>
	<path style="fill:#FEA832;" d="M226,450c-8.291,0-15-6.709-15-15v-60c0-8.291,6.709-15,15-15s15,6.709,15,15v60
		C241,443.291,234.291,450,226,450z"/>
	<path style="fill:#FE9923;" d="M316,450c-8.291,0-15-6.709-15-15v-60c0-8.291,6.709-15,15-15s15,6.709,15,15v60
		C331,443.291,324.291,450,316,450z"/>
	<path style="fill:#994C0F;" d="M512,435c0,8.399-6.599,15-15,15H15c-8.401,0-15-6.601-15-15c0-8.401,6.599-15,15-15h482
		C505.401,420,512,426.599,512,435z"/>
	<path style="fill:#994C0F;" d="M69.291,510.418c-7.412-3.706-10.415-12.715-6.709-20.127l30-62
		c3.706-7.397,12.744-10.371,20.127-6.709c7.412,3.706,10.415,12.715,6.709,20.127l-30,62
		C85.732,511.06,76.778,514.136,69.291,510.418z"/>
	<path style="fill:#713708;" d="M436.015,450c-5.508,0-10.796-3.032-13.433-8.291l-30-60c-3.706-7.412-0.703-16.421,6.709-20.127
		c7.397-3.706,16.421-0.688,20.127,6.709l30,60c3.706,7.412,0.703,16.421-6.709,20.127C440.556,449.487,438.271,450,436.015,450z"/>
	<path style="fill:#713708;" d="M512,435c0,8.399-6.599,15-15,15H271v-30h226C505.401,420,512,426.599,512,435z"/>
	<path style="fill:#FD003A;" d="M451,90c0,25.8-11.1,49.2-30,66.299V205.8l-60,109.799L271,335.4l-109.799,24.3
		c-3.001,0.3-6.301,0.3-9.3,0.3H46c-6.301,0-11.7-3.9-14.099-9.6c-2.1-6-0.601-12.599,4.199-16.5c0.3-0.3,1.5-1.501,4.2-3.9
		c25.8-23.101,166.199-149.101,230.7-219c0.901-0.901,1.5-1.501,2.1-2.1c-1.5-6.301-2.1-12.601-2.1-18.9c0-49.501,40.499-90,90-90
		S451,40.499,451,90z"/>
	<path style="fill:#E50027;" d="M451,90c0,25.8-11.1,49.2-30,66.299V205.8l-60,109.799L271,335.4V90c0-49.501,40.499-90,90-90
		S451,40.499,451,90z"/>
	<path style="fill:#FEC478;" d="M421,205.8V225c0,83.099-65.4,156.599-150,164.099c-32.999,4.2-74.399-4.499-109.799-29.399
		l106.8-69.6l2.999-4.501l44.7-66.299l18.9,10.499C368.2,251.4,406.601,236.1,421,205.8z"/>
	<path style="fill:#FEB756;" d="M421,205.8V225c0,83.099-65.4,156.599-150,164.099v-103.5l44.7-66.299l18.9,10.499
		C368.2,251.4,406.601,236.1,421,205.8z"/>
	<circle style="fill:#713708;" cx="376" cy="75" r="15"/>
	<path style="fill:#E50027;" d="M345.399,157.8c2.401,54.3-17.999,107.098-56.4,145.499c-5.7,5.7-11.699,11.1-17.999,15.601
		c-31.5,24.899-69.6,39-109.799,40.8c-3.001,0.3-6.301,0.3-9.3,0.3H46c-6.301,0-11.7-3.9-14.099-9.6c-2.1-6-0.601-12.599,4.199-16.5
		c0.3-0.3,1.5-1.501,4.2-3.9h111.601c43.799,0,84.899-17.1,115.8-48.001c1.199-1.199,2.399-2.399,3.3-3.6
		c30.3-32.1,46.5-75,44.7-119.099c-0.601-8.401,6-15.3,14.101-15.601C338.5,143.099,345.099,149.7,345.399,157.8z"/>
	<path style="fill:#C1001F;" d="M345.399,157.8c2.401,54.3-17.999,107.098-56.4,145.499c-5.7,5.7-11.699,11.1-17.999,15.601v-40.501
		c30.3-32.1,46.5-75,44.7-119.099c-0.601-8.401,6-15.3,14.101-15.601C338.5,143.099,345.099,149.7,345.399,157.8z"/>
</g>
<g>
</g>
<g>
</g>
<g>
</g>
<g>
</g>
<g>
</g>
<g>
</g>
<g>
</g>
<g>
</g>
<g>
</g>
<g>
</g>
<g>
</g>
<g>
</g>
<g>
</g>
<g>
</g>
<g>
</g>
</svg>
