<?xml version="1.0" encoding="iso-8859-1"?>
<!-- Generator: Adobe Illustrator 19.0.0, SVG Export Plug-In . SVG Version: 6.00 Build 0)  -->
<svg version="1.1" id="Layer_1" xmlns="http://www.w3.org/2000/svg" xmlns:xlink="http://www.w3.org/1999/xlink" x="0px" y="0px"
	 viewBox="0 0 511.939 511.939" style="enable-background:new 0 0 511.939 511.939;" xml:space="preserve">
<g>
	<path style="fill:#FEDB41;" d="M498.199,267.538c-9.6,23.701-24,46.201-43.2,65.4c-18.3,18.301-39.3,32.1-61.5,41.4c0,0,0,0-0.3,0
		c-47.399,20.101-101.1,20.7-148.799,1.8c-23.701-9.6-46.201-24-65.4-43.2c-18.301-18.3-32.1-39.3-41.4-61.5
		c-20.101-47.401-20.7-101.4-1.8-149.099c9.6-23.701,24-46.201,43.2-65.4c18.3-18.301,39.3-32.1,61.5-41.4
		c0.3-0.3,0.599-0.3,0.899,0c47.401-20.101,100.501-20.7,148.2-1.8c23.701,9.6,46.201,24,65.4,43.2c18.301,18.3,32.1,39.3,41.4,61.5
		v0.599C516.501,166.438,517.099,219.839,498.199,267.538z"/>
	<path style="fill:#FFCC33;" d="M498.199,267.538c-9.6,23.701-24,46.201-43.2,65.4c-18.3,18.301-39.3,32.1-61.5,41.4c0,0,0,0-0.3,0
		c-47.399,20.101-101.1,20.7-148.799,1.8c-23.701-9.6-46.201-24-65.4-43.2L454.999,56.939c18.301,18.3,32.1,39.3,41.4,61.5v0.599
		C516.501,166.438,517.099,219.839,498.199,267.538z"/>
	<path style="fill:#FD003A;" d="M496.399,118.439v0.599c-1.199,21.301-9.3,42.001-24.6,59.702c-39.598,45-106.8,52.2-154.799,16.199
		c51-7.2,90-47.401,96.899-96.899c1.201-7.8,1.501-15.901,0.901-24.001c-1.5-23.399-10.8-44.399-25.201-60.298
		c23.701,9.6,46.201,24,65.4,43.2C473.301,75.239,487.099,96.239,496.399,118.439z"/>
	<path style="fill:#FD003A;" d="M317,194.939c-8.401-59.099-61.199-102.001-120.901-97.8c-23.399,1.5-44.399,10.8-60.298,25.201
		c9.6-23.701,24-46.201,43.2-65.4c18.3-18.301,39.3-32.1,61.5-41.4c0.3-0.3,0.599-0.3,0.899,0c21,1.5,42.001,9.6,59.401,24.6
		C345.801,79.738,353,146.939,317,194.939z"/>
	<path style="fill:#CCEFFF;" d="M222.201,353.34L77.369,498.169c-21,21-47.401,15.601-63.3-0.3
		c-15.901-16.199-21.301-42.599-0.3-63.6l144.83-144.531l31.802,31.8L222.201,353.34z"/>
	<path style="fill:#ACE3FC;" d="M222.201,353.34L77.369,498.169c-21,21-47.401,15.601-63.3-0.3l176.331-176.331L222.201,353.34z"/>
	<path style="fill:#FD003A;" d="M220.101,291.838c-1.201,7.8-1.501,15.901-0.901,24.001c1.5,23.399,10.8,44.399,25.201,60.298
		c-23.701-9.6-46.201-24-65.4-43.2c-18.301-18.3-32.1-39.3-41.4-61.5c1.199-21.599,9.3-42.599,24.6-60.3
		c39.598-45,106.8-52.2,154.799-16.199C266,202.138,227,242.339,220.101,291.838z"/>
	<path style="fill:#E50027;" d="M498.199,267.538c-9.6,23.701-24,46.201-43.2,65.4c-18.3,18.301-39.3,32.1-61.5,41.4c0,0,0,0-0.3,0
		c-21.299-1.199-42.299-9.3-60-24.6c-45-39.598-52.2-106.8-16.199-154.799c8.401,59.099,61.199,102.001,120.901,97.8
		C461.3,291.239,482.3,281.939,498.199,267.538z"/>
	<path style="fill:#E50027;" d="M244.401,376.138c-23.701-9.6-46.201-24-65.4-43.2l41.1-41.1c-1.201,7.8-1.501,15.901-0.901,24.001
		C220.699,339.239,229.999,360.239,244.401,376.138z"/>
	<path style="fill:#E50027;" d="M496.399,118.439v0.599c-1.199,21.301-9.3,42.001-24.6,59.702c-39.598,45-106.8,52.2-154.799,16.199
		c51-7.2,90-47.401,96.899-96.899l41.1-41.1C473.301,75.239,487.099,96.239,496.399,118.439z"/>
</g>
<g>
</g>
<g>
</g>
<g>
</g>
<g>
</g>
<g>
</g>
<g>
</g>
<g>
</g>
<g>
</g>
<g>
</g>
<g>
</g>
<g>
</g>
<g>
</g>
<g>
</g>
<g>
</g>
<g>
</g>
</svg>
