<?xml version="1.0" encoding="iso-8859-1"?>
<!-- Generator: Adobe Illustrator 19.0.0, SVG Export Plug-In . SVG Version: 6.00 Build 0)  -->
<svg version="1.1" id="Layer_1" xmlns="http://www.w3.org/2000/svg" xmlns:xlink="http://www.w3.org/1999/xlink" x="0px" y="0px"
	 viewBox="0 0 512 512" style="enable-background:new 0 0 512 512;" xml:space="preserve">
<g>
	<path style="fill:#CCEFFF;" d="M0,392v45c0,8.291,6.709,15,15,15h90c8.291,0,15-6.709,15-15v-45l-20.612-15H20.654L0,392z"/>
	<path style="fill:#ACE3FC;" d="M392,392v45c0,8.291,6.709,15,15,15h90c8.291,0,15-6.709,15-15v-45l-15.935-15h-84.399L392,392z"/>
	<g>
		<path style="fill:#E50027;" d="M512,165v227H0V165C0,107.1,47.1,60,105,60h17.701C121.199,55.199,120,50.4,120,45
			c0-24.901,20.099-45,45-45h182c24.901,0,45,20.099,45,45c0,5.4-1.199,10.199-2.701,15H407C464.9,60,512,107.1,512,165z"/>
	</g>
	<path style="fill:#C1001F;" d="M512,165v227H256V0h91c24.901,0,45,20.099,45,45c0,5.4-1.199,10.199-2.701,15H407
		C464.9,60,512,107.1,512,165z"/>
	<g>
		<path style="fill:#FD003A;" d="M407,60H105c-5.138,0-10.06,0.8-15,1.512V347v26.4V422v45c0,8.399,6.599,15,15,15h302
			c8.401,0,15-6.601,15-15v-45v-48.3v-28.2V61.512C417.06,60.8,412.138,60,407,60z"/>
		<path style="fill:#E50027;" d="M256,60v422h151c8.401,0,15-6.601,15-15v-45v-48.3v-28.2V61.512C417.06,60.8,412.138,60,407,60H256
			z"/>
	</g>
	<path style="fill:#DCF4FF;" d="M407,512H105c-8.284,0-15-6.716-15-15v-45h332v45C422,505.284,415.284,512,407,512z"/>
	<path style="fill:#CCEFFF;" d="M256,512h151c8.284,0,15-6.716,15-15v-45H256V512z"/>
	<path style="fill:#FEA832;" d="M422,283.7v90c-10.499-2.701-15-8.701-25.499-15.601C380.3,347.599,367.4,349.399,358.4,358.7
		c-11.1,11.1-25.8,16.8-40.8,16.8c-14.7,0-30.401-5.7-41.501-16.8c-5.7-5.7-12.9-8.401-20.099-8.101
		c-6.599,0.3-13.5,2.999-18.6,8.101c-22.5,22.5-59.801,22.5-82.301,0c-10.199-10.501-28.5-10.501-38.699,0
		C108.9,366.2,99.6,371,90,373.4v-90c9.6-2.401,18.9-7.2,26.4-14.7c10.199-10.501,28.5-10.501,38.699,0
		c22.5,22.5,59.801,22.5,82.301,0c5.099-5.101,12.001-7.8,18.6-8.101c7.2-0.3,14.399,2.401,20.099,8.101
		c11.1,11.1,26.801,16.8,41.501,16.8c15,0,29.7-5.7,40.8-16.8c9-9.302,21.899-11.102,38.101-0.601
		C407,274.999,411.501,281,422,283.7z"/>
	<path style="fill:#FE9923;" d="M276.099,358.7c11.1,11.1,26.801,16.8,41.501,16.8c15,0,29.7-5.7,40.8-16.8
		c9-9.302,21.899-11.102,38.101-0.601C407,364.999,411.501,371,422,373.7v-90c-10.499-2.701-15-8.701-25.499-15.601
		C380.3,257.599,367.4,259.399,358.4,268.7c-11.1,11.1-25.8,16.8-40.8,16.8c-14.7,0-30.401-5.7-41.501-16.8
		c-5.7-5.7-12.9-8.401-20.099-8.101v90C263.2,350.3,270.399,353,276.099,358.7z"/>
</g>
<g>
</g>
<g>
</g>
<g>
</g>
<g>
</g>
<g>
</g>
<g>
</g>
<g>
</g>
<g>
</g>
<g>
</g>
<g>
</g>
<g>
</g>
<g>
</g>
<g>
</g>
<g>
</g>
<g>
</g>
</svg>
