<?xml version="1.0" encoding="iso-8859-1"?>
<!-- Generator: Adobe Illustrator 19.0.0, SVG Export Plug-In . SVG Version: 6.00 Build 0)  -->
<svg version="1.1" id="Layer_1" xmlns="http://www.w3.org/2000/svg" xmlns:xlink="http://www.w3.org/1999/xlink" x="0px" y="0px"
	 viewBox="0 0 512 512" style="enable-background:new 0 0 512 512;" xml:space="preserve">
<g>
	<path style="fill:#32D736;" d="M504.996,415.199c-2.401,5.7-7.8,9.801-14.099,9.801h-69.401v71.966
		c0,6.301-4.099,12.001-10.1,14.101c-5.7,2.098-12.301,0.599-16.5-3.9c-46.201-51.601-111.901-127.668-137.401-155.868
		c-26.1,28.2-93.3,104.267-140.4,155.868c-4.2,4.499-10.8,5.999-16.5,3.9c-6-2.401-9.101-7.8-9.101-14.101V425h-70.4
		c-6.301,0-11.7-4.101-14.099-9.801c-2.1-5.7-0.601-12.299,3.9-16.5C59.795,353.099,84.695,330,98.496,319.2l159-2.401l155.7-2.401
		l88.2,84.3C505.596,402.9,507.096,409.499,504.996,415.199z"/>
	<path style="fill:#10BB67;" d="M504.996,415.199c-2.401,5.7-7.8,9.801-14.099,9.801h-69.401v71.966
		c0,6.301-4.099,12.001-10.1,14.101c-5.7,2.098-12.301,0.599-16.5-3.9c-46.201-51.601-111.901-127.668-137.401-155.868V316.8
		l155.7-2.401l88.2,84.3C505.596,402.9,507.096,409.499,504.996,415.199z"/>
	<path style="fill:#E50027;" d="M467.496,135c0,22.5-8.401,43.5-23.101,60l-25.8,15H100.896l-30.3-15
		c-14.7-16.5-23.101-37.5-23.101-60c0-33.001,18.6-63.001,47.401-78.6l161.4,106.199c0.298,0,0.298,0.3,0.599,0.3l0.601-0.3
		L420.095,56.4C448.896,71.999,467.496,101.999,467.496,135z"/>
	<path style="fill:#C1001F;" d="M467.496,135c0,22.5-8.401,43.5-23.101,60l-25.8,15h-161.1v-47.401L420.095,56.4
		C448.896,71.999,467.496,101.999,467.496,135z"/>
	<path style="fill:#E50027;" d="M467.496,255c0,32.999-18.3,62.699-46.8,78.3l-163.2-69.3l-2.401-0.901L94.596,333.6
		c-28.5-15.601-47.1-45.601-47.1-78.6c0-22.5,8.401-43.5,23.101-60h373.799C459.095,211.5,467.496,232.5,467.496,255z"/>
	<path style="fill:#C1001F;" d="M467.496,255c0,32.999-18.3,62.699-46.8,78.3l-163.2-69.3v-69h186.899
		C459.095,211.5,467.496,232.5,467.496,255z"/>
	<path style="fill:#FD003A;" d="M420.095,56.4c-6,25.199-15.599,48.3-29.099,67.8c-26.1,37.798-64.801,61.5-109.2,66.299
		c-15.899,1.8-20.099,2.401-24.3,2.401c-4.501,0-8.699-0.901-24.3-2.401c-45.901-5.099-85.499-29.7-111.601-69.6
		c-12.299-18.9-20.999-40.8-26.699-64.499c1.8-1.201,3.6-2.401,5.7-3.301C114.095,23.099,145.896,0,182.496,0
		c31.199,0,58.801,15.899,75,40.199C273.695,15.899,301.296,0,332.496,0c36.599,0,68.401,23.099,81.899,53.099
		C416.495,54,418.295,55.199,420.095,56.4z"/>
	<path style="fill:#E50027;" d="M420.095,56.4c-6,25.199-15.599,48.3-29.099,67.8c-26.1,37.798-64.801,61.5-109.2,66.299
		c-15.899,1.8-20.099,2.401-24.3,2.401V40.199C273.695,15.899,301.296,0,332.496,0c36.599,0,68.401,23.099,81.899,53.099
		C416.495,54,418.295,55.199,420.095,56.4z"/>
	<path style="fill:#FD003A;" d="M420.696,333.3c-2.1,1.199-4.2,2.401-6.301,3.6c-13.499,30-45.3,53.101-81.899,53.101
		c-31.199,0-58.801-15.901-75-40.201c-16.199,24.3-43.801,40.201-75,40.201c-36.599,0-68.401-23.101-81.899-53.101
		c-2.1-0.899-3.9-2.1-6-3.3c9.3-36.899,25.8-68.401,49.2-91.8c29.7-29.101,69-44.101,111.299-42.9c0.601-0.3,1.5-0.601,2.401-0.601
		c6.899-1.5,18.3,0.601,24.3,1.199C342.696,206.1,400.296,249.899,420.696,333.3z"/>
	<path style="fill:#E50027;" d="M420.696,333.3c-2.1,1.199-4.2,2.401-6.301,3.6c-13.499,30-45.3,53.101-81.899,53.101
		c-31.199,0-58.801-15.901-75-40.201V198.3c6.899-1.5,18.3,0.601,24.3,1.199C342.696,206.1,400.296,249.899,420.696,333.3z"/>
	<g>
		<path style="fill:#FEDB41;" d="M257.496,150c-24.901,0-45,20.099-45,45c0,24.899,20.099,45,45,45s45-20.101,45-45
			C302.496,170.099,282.396,150,257.496,150z"/>
	</g>
	<path style="fill:#FCBF29;" d="M302.496,195c0,24.899-20.099,45-45,45v-90C282.396,150,302.496,170.099,302.496,195z"/>
</g>
<g>
</g>
<g>
</g>
<g>
</g>
<g>
</g>
<g>
</g>
<g>
</g>
<g>
</g>
<g>
</g>
<g>
</g>
<g>
</g>
<g>
</g>
<g>
</g>
<g>
</g>
<g>
</g>
<g>
</g>
</svg>
