<?xml version="1.0" encoding="iso-8859-1"?>
<!-- Generator: Adobe Illustrator 19.0.0, SVG Export Plug-In . SVG Version: 6.00 Build 0)  -->
<svg version="1.1" id="Layer_1" xmlns="http://www.w3.org/2000/svg" xmlns:xlink="http://www.w3.org/1999/xlink" x="0px" y="0px"
	 viewBox="0 0 512 512" style="enable-background:new 0 0 512 512;" xml:space="preserve">
<g>
	<g>
		<path style="fill:#FD003A;" d="M450.543,21.599L422.043,90l-11.7,15h-63.9l-14.399-15l-28.5-68.401
			c-2.1-4.499-2.1-10.199,0.601-14.399c2.999-4.501,7.8-7.2,12.9-7.2h120c5.099,0,9.901,2.699,12.9,7.2
			C452.643,11.4,452.643,17.1,450.543,21.599z"/>
		<path style="fill:#994C0F;" d="M332.043,90v120h90V90H332.043z"/>
		<path style="fill:#ACE3FC;" d="M437.043,180h-212c-8.401,0-15,6.599-15,15v120c0,8.399,6.599,16,15,16h242c8.401,0,15-7.601,15-16
			v-90C482.043,200.099,461.943,180,437.043,180z"/>
		<polygon style="fill:#FD003A;" points="240.043,30 240.043,240 225.043,255 45.043,255 30.043,240 30.043,30 		"/>
		<polygon style="fill:#FEA832;" points="240.043,240 240.043,300 225.643,315 52.543,315 30.043,300 30.043,240 		"/>
		<path style="fill:#CCEFFF;" d="M165.043,120h-60c-8.401,0-15,6.599-15,15v60c0,8.399,6.599,15,15,15h60c8.401,0,15-6.601,15-15
			v-60C180.043,126.599,173.444,120,165.043,120z"/>
		<path style="fill:#FEA832;" d="M271.043,30c0,16.5-14.5,30-31,30h-210c-16.5,0-30-13.5-30-30s13.5-30,30-30h210
			C256.542,0,271.043,13.5,271.043,30z"/>
	</g>
	<path style="fill:#FD003A;" d="M508.743,446.3c-2.701,3.6-7.2,5.7-11.7,5.7h-422c-24.901,0-45-20.101-45-45V300h452l29.399,133.4
		C512.643,437.899,511.743,442.7,508.743,446.3z"/>
	<path style="fill:#E50027;" d="M508.743,446.3c-2.701,3.6-7.2,5.7-11.7,5.7h-257V300h242l29.399,133.4
		C512.643,437.899,511.743,442.7,508.743,446.3z"/>
	<g>
		<path style="fill:#713708;" d="M377.043,362c-41.4,0-75,33.6-75,75s33.6,75,75,75s75-33.6,75-75S418.443,362,377.043,362z"/>
	</g>
	<g>
		<path style="fill:#994C0F;" d="M165.043,362c-41.4,0-75,33.6-75,75s33.6,75,75,75s75-33.6,75-75S206.443,362,165.043,362z"/>
	</g>
	<path style="fill:#ACE3FC;" d="M377.043,392c-24.901,0-45,20.099-45,45c0,24.899,20.099,45,45,45s45-20.101,45-45
		C422.043,412.099,401.943,392,377.043,392z"/>
	<path style="fill:#CCEFFF;" d="M165.043,392c-24.901,0-45,20.099-45,45c0,24.899,20.099,45,45,45s45-20.101,45-45
		C210.043,412.099,189.943,392,165.043,392z"/>
	<path style="fill:#E4741B;" d="M392.043,437c0,8.399-6.599,15-15,15h-212c-8.401,0-15-6.601-15-15c0-8.401,6.599-15,15-15h212
		C385.444,422,392.043,428.599,392.043,437z"/>
	<path style="fill:#BF6015;" d="M392.043,437c0,8.399-6.599,15-15,15h-137v-30h137C385.444,422,392.043,428.599,392.043,437z"/>
</g>
<g>
</g>
<g>
</g>
<g>
</g>
<g>
</g>
<g>
</g>
<g>
</g>
<g>
</g>
<g>
</g>
<g>
</g>
<g>
</g>
<g>
</g>
<g>
</g>
<g>
</g>
<g>
</g>
<g>
</g>
</svg>
