<?xml version="1.0" encoding="iso-8859-1"?>
<!-- Generator: Adobe Illustrator 19.0.0, SVG Export Plug-In . SVG Version: 6.00 Build 0)  -->
<svg version="1.1" id="Layer_1" xmlns="http://www.w3.org/2000/svg" xmlns:xlink="http://www.w3.org/1999/xlink" x="0px" y="0px"
	 viewBox="0 0 512 512" style="enable-background:new 0 0 512 512;" xml:space="preserve">
<g>
	<path style="fill:#DCF4FF;" d="M451,301c0,115.8-87.599,211-195,211S61,416.8,61,301c0-29.399,5.4-57.9,16.5-84.6
		c0.901-2.1,2.401-3.9,3.9-5.4h350.4C444.101,238.9,451,269.801,451,301z"/>
	<path style="fill:#CCEFFF;" d="M451,301c0,115.8-87.599,211-195,211V211h175.8C444.101,238.9,451,269.801,451,301z"/>
	<path style="fill:#FEC478;" d="M391,256c0,38.699-16.8,75.601-45.601,101.4c-2.999,2.401-6.599,3.6-9.899,3.6
		c-3.6,0-7.202-1.199-9.901-3.6c-9.3-8.101-19.501-14.399-30.601-18.9c-7.8,13.5-22.5,22.5-39,22.5s-31.199-9-39-22.5
		c-11.1,4.501-21.301,10.8-30.601,18.9c-5.4,4.799-14.099,4.799-19.799,0C137.8,331.601,121,294.699,121,256
		c0-11.4,1.5-22.8,4.2-33.6c2.1-8.101,10.499-12.9,18.3-10.8H256l112.5-0.3c8.101-2.1,16.199,2.699,18.3,10.8
		C389.5,233.2,391,244.6,391,256z"/>
	<path style="fill:#FD003A;" d="M309.101,399.101C295,413.2,276.099,421,256,421c-18.9,0-36.899-7.2-51-19.799
		c-6-5.7-6.299-15.3-0.599-21.301c5.4-6,15-6.601,20.999-0.901c8.401,7.8,19.501,11.7,30.601,11.7c11.7,0,23.401-4.499,31.8-12.9
		c6-5.7,15.3-5.7,21.301,0C314.801,383.8,314.801,393.1,309.101,399.101z"/>
	<path style="fill:#FEB756;" d="M391,256c0,38.699-16.8,75.601-45.601,101.4c-2.999,2.401-6.599,3.6-9.899,3.6
		c-3.6,0-7.202-1.199-9.901-3.6c-9.3-8.101-19.501-14.399-30.601-18.9c-7.8,13.5-22.5,22.5-39,22.5V211.601l112.5-0.3
		c8.101-2.1,16.199,2.699,18.3,10.8C389.5,233.2,391,244.6,391,256z"/>
	<path style="fill:#FD003A;" d="M421,165v16H91v-16C91,73.801,164.801,0,256,0c45.601,0,87.001,18.6,116.7,48.3S421,119.399,421,165
		z"/>
	<path style="fill:#E50027;" d="M421,165v16H256V0c45.601,0,87.001,18.6,116.7,48.3S421,119.399,421,165z"/>
	<circle style="fill:#994C0F;" cx="196" cy="286" r="15"/>
	<circle style="fill:#713708;" cx="316" cy="286" r="15"/>
	<path style="fill:#C1001F;" d="M310.697,150.908l-35.303-35.303c-5.859-5.859-5.859-15.352,0-21.211s15.352-5.859,21.211,0
		l35.303,35.303c5.859,5.859,5.859,15.352,0,21.211C326.049,156.768,316.557,156.768,310.697,150.908z"/>
	<g>
		<path style="fill:#CCEFFF;" d="M376,120v121H106c-24.901,0-45-20.099-45-45v-31c0-24.901,20.099-45,45-45H376z"/>
		<rect x="256" y="120" style="fill:#ACE3FC;" width="120" height="121"/>
	</g>
	<path style="fill:#CCEFFF;" d="M376,241c-42.108,0-75-34.917-75-76c0-41.353,33.647-75,75-75s75,33.647,75,75S417.353,241,376,241z
		"/>
</g>
<g>
</g>
<g>
</g>
<g>
</g>
<g>
</g>
<g>
</g>
<g>
</g>
<g>
</g>
<g>
</g>
<g>
</g>
<g>
</g>
<g>
</g>
<g>
</g>
<g>
</g>
<g>
</g>
<g>
</g>
</svg>
