<?xml version="1.0" encoding="iso-8859-1"?>
<!-- Generator: Adobe Illustrator 19.0.0, SVG Export Plug-In . SVG Version: 6.00 Build 0)  -->
<svg version="1.1" id="Layer_1" xmlns="http://www.w3.org/2000/svg" xmlns:xlink="http://www.w3.org/1999/xlink" x="0px" y="0px"
	 viewBox="0 0 511.926 511.926" style="enable-background:new 0 0 511.926 511.926;" xml:space="preserve">
<g>
	<path style="fill:#994C0F;" d="M435.963,150h-15l-30,30v30l30,30h15c24.814,0,45-20.186,45-45S460.777,150,435.963,150z"/>
	<path style="fill:#994C0F;" d="M389.615,456.072l-5.425-25.239l-36.31-29.359l-30.89,15.146l-22.701,29.193l8.022,32.086
		c5.913,23.619,31.059,38.677,54.565,32.725C381.012,504.619,395.647,480.201,389.615,456.072z"/>
	<path style="fill:#C85F03;" d="M164.046,401.476l-36.312,29.359l-5.424,25.237c-6.651,26.574,11.89,53.439,40.239,55.796
		c24.449,1.068,42.471-15.62,47.651-36.328l7.432-29.725l-22.7-29.193L164.046,401.476z"/>
	<path style="fill:#C85F03;" d="M90.963,150h-15c-24.814,0-45,20.186-45,45s20.186,45,45,45h15l30-30v-30L90.963,150z"/>
	<path style="fill:#E4741B;" d="M420.963,150v90h-32.701c0,0-8.699,0-44.7,0c35.4,163.801,34.2,160.401,40.501,190.699l-89.7,15
		c-3.301-12.9-6.601-25.499-9.302-36.899c-4.199-16.8-18.3-22.5-29.099-22.5s-24.901,5.7-29.099,22.5
		c-3.301,13.2-5.402,21.601-9.302,36.899l-89.7-15c8.401-39,32.1-151.399,40.501-190.699h-38.101c0,0-7.5,0-39.3,0v-90
		c49.2,0,41.4,0,93.9,0c-10.499-21.899-18.9-35.7-18.9-60c0-49.501,40.499-90,90-90s90,40.499,90,90c0,24.3-8.401,38.101-18.9,60
		C379.563,150,371.762,150,420.963,150z"/>
	<path style="fill:#BF6015;" d="M420.963,150v90h-32.701c0,0-8.699,0-44.7,0c35.4,163.801,34.2,160.401,40.501,190.699l-89.7,15
		c-3.301-12.9-6.601-25.499-9.302-36.899c-4.199-16.8-18.3-22.5-29.099-22.5V0c49.501,0,90,40.499,90,90
		c0,24.3-8.401,38.101-18.9,60C379.563,150,371.762,150,420.963,150z"/>
	<circle style="fill:#CCEFFF;" cx="225.963" cy="75" r="15"/>
	<circle style="fill:#ACE3FC;" cx="285.963" cy="75" r="15"/>
	<path style="fill:#FD003A;" d="M270.963,285c0,8.401-6.599,15-15,15s-15-6.599-15-15s6.599-15,15-15S270.963,276.599,270.963,285z"
		/>
	<path style="fill:#FD003A;" d="M270.963,225c0,8.401-6.599,15-15,15s-15-6.599-15-15s6.599-15,15-15S270.963,216.599,270.963,225z"
		/>
	<path style="fill:#32D736;" d="M287.763,136.8c-8.699,8.699-20.4,13.2-31.8,13.2s-23.101-4.501-31.8-13.2c-6-5.7-6-15.3,0-21.301
		c5.7-5.7,15.3-5.7,21.301,0c2.699,3.001,6.599,4.501,10.499,4.501s7.8-1.5,10.499-4.501c6-5.7,15.601-5.7,21.301,0
		C293.763,121.5,293.763,131.1,287.763,136.8z"/>
	<path style="fill:#10BB67;" d="M287.763,136.8c-8.699,8.699-20.4,13.2-31.8,13.2v-30c3.9,0,7.8-1.5,10.499-4.501
		c6-5.7,15.601-5.7,21.301,0C293.763,121.5,293.763,131.1,287.763,136.8z"/>
</g>
<g>
</g>
<g>
</g>
<g>
</g>
<g>
</g>
<g>
</g>
<g>
</g>
<g>
</g>
<g>
</g>
<g>
</g>
<g>
</g>
<g>
</g>
<g>
</g>
<g>
</g>
<g>
</g>
<g>
</g>
</svg>
