<?xml version="1.0" encoding="iso-8859-1"?>
<!-- Generator: Adobe Illustrator 19.0.0, SVG Export Plug-In . SVG Version: 6.00 Build 0)  -->
<svg version="1.1" id="Layer_1" xmlns="http://www.w3.org/2000/svg" xmlns:xlink="http://www.w3.org/1999/xlink" x="0px" y="0px"
	 viewBox="0 0 512.037 512.037" style="enable-background:new 0 0 512.037 512.037;" xml:space="preserve">
<g>
	<path style="fill:#FEA832;" d="M392.037,392.018v105c0,8.399-6.599,15-15,15h-120c-8.401,0-15-6.601-15-15v-105H392.037z"/>
	<path style="fill:#FD003A;" d="M239.336,401.13c-2.999-3.9-7.5-6.299-12.299-6.299h-182c-6.599,0-12.299,4.2-14.099,10.199
		l-30,87.188c-1.802,4.501-0.901,9.6,1.8,13.5c2.999,3.9,7.5,6.301,12.299,6.301h182c6.599,0,12.299-4.2,14.099-10.201l30-87.188
		C242.937,410.131,242.037,405.03,239.336,401.13z"/>
	<path style="fill:#E50027;" d="M227.037,394.831h-91v117.188h61c6.599,0,12.299-4.2,14.099-10.201l30-87.188
		c1.802-4.499,0.901-9.6-1.8-13.5C236.337,397.229,231.836,394.831,227.037,394.831z"/>
	<path style="fill:#FD003A;" d="M212.037,302.018l-30,30v90h315c8.284,0,15-6.716,15-15v-75l-30-30H212.037z"/>
	<path style="fill:#E50027;" d="M512.037,257.018v75h-330v-105c0-39.6-18.401-75-46-99.3v-5.7h241
		C451.736,122.018,512.037,182.319,512.037,257.018z"/>
	<path style="fill:#E50027;" d="M242.037,227.018v195h-182l-30-195c0-4.2,0.3-8.101,0.901-12.301
		c5.999-52.2,51.4-92.699,105.099-92.699c28.801,0,56.201,11.7,75.099,30.899c15.901,15.601,26.4,36.301,29.702,59.101
		C241.736,216.817,242.037,221.917,242.037,227.018z"/>
	<path style="fill:#C1001F;" d="M242.037,227.018v195h-106v-300c28.801,0,56.201,11.7,75.099,30.899
		c15.901,15.601,26.4,36.301,29.702,59.101C241.736,216.817,242.037,221.917,242.037,227.018z"/>
	<path style="fill:#FEA832;" d="M242.037,255.519v166.5h-197c-24.901,0-45-20.101-45-45v-120c0-7.8,2.1-14.7,5.4-21l119.2,77.999
		c2.999,3.001,6.601,4.801,11.1,4.501h0.3c3.9,0,7.5-1.8,10.499-4.799L242.037,255.519z"/>
	<path style="fill:#FE9923;" d="M242.037,255.519v166.5h-106v-103.5c3.9,0,7.5-1.8,10.499-4.799L242.037,255.519z"/>
	<path style="fill:#FEDB41;" d="M242.037,227.018v28.5l-73.599,78.6c-8.401,9-20.101,14.099-32.401,14.399c-0.3,0-0.3,0-0.601,0
		c-11.999,0-23.699-5.099-32.1-13.5l-73.299-73.799l-24.6-25.201c4.801-9,12.599-16.5,22.2-20.4c1.201-0.601,2.1-0.901,3.301-0.901
		c4.499-1.8,9-2.699,14.099-2.699h195.801C241.736,216.817,242.037,221.917,242.037,227.018z"/>
	<path style="fill:#FCBF29;" d="M242.037,227.018v28.5l-73.599,78.6c-8.401,9-20.101,14.099-32.401,14.399v-136.5h104.801
		C241.736,216.817,242.037,221.917,242.037,227.018z"/>
	<path style="fill:#ACE3FC;" d="M362.037,182.018c-16.538,0-30-13.462-30-30v-122c0-16.538,13.462-30,30-30h60
		c16.538,0,30,13.462,30,30s-13.462,30-30,30h-30v92C392.037,168.556,378.575,182.018,362.037,182.018z"/>
</g>
<g>
</g>
<g>
</g>
<g>
</g>
<g>
</g>
<g>
</g>
<g>
</g>
<g>
</g>
<g>
</g>
<g>
</g>
<g>
</g>
<g>
</g>
<g>
</g>
<g>
</g>
<g>
</g>
<g>
</g>
</svg>
