<?xml version="1.0" encoding="iso-8859-1"?>
<!-- Generator: Adobe Illustrator 19.0.0, SVG Export Plug-In . SVG Version: 6.00 Build 0)  -->
<svg version="1.1" id="Layer_1" xmlns="http://www.w3.org/2000/svg" xmlns:xlink="http://www.w3.org/1999/xlink" x="0px" y="0px"
	 viewBox="0 0 512 512" style="enable-background:new 0 0 512 512;" xml:space="preserve">
<g>
	<path style="fill:#FEC478;" d="M421,347c0,91.199-73.801,165-165,165S91,438.199,91,347c0-55.8,27.9-105,70.201-135h189.598
		C393.1,242,421,291.2,421,347z"/>
	<path style="fill:#FEB756;" d="M421,347c0,91.199-73.801,165-165,165V212h94.799C393.1,242,421,291.2,421,347z"/>
	<path style="fill:#994C0F;" d="M256,0c-24.901,0-45,20.099-45,45v31c0,8.399,6.599,15,15,15h60c8.401,0,15-6.601,15-15V45
		C301,20.099,280.901,0,256,0z"/>
	<path style="fill:#713708;" d="M301,45v31c0,8.399-6.599,15-15,15h-30V0C280.901,0,301,20.099,301,45z"/>
	<path style="fill:#994C0F;" d="M301,347c0,8.399-6.599,15-15,15s-15-6.601-15-15c0-8.401-6.599-15-15-15s-15,6.599-15,15
		c0,8.399-6.599,15-15,15s-15-6.601-15-15c0-24.901,20.099-45,45-45S301,322.099,301,347z"/>
	<path style="fill:#FD003A;" d="M390.099,98.5L261.7,149.799C259.9,150.7,257.8,151,256,151s-3.9-0.3-5.7-1.201L121.901,98.5
		C125.501,76.899,144.699,61,166,61h180C367.301,61,386.499,76.899,390.099,98.5z"/>
	<path style="fill:#E50027;" d="M391,106v121c0,8.399-6.599,15-15,15H136c-8.401,0-15-6.601-15-15V106c0-2.701,0.3-5.101,0.901-7.5
		L256,119.799L390.099,98.5C390.7,100.899,391,103.299,391,106z"/>
	<path style="fill:#E50027;" d="M390.099,98.5L261.7,149.799C259.9,150.7,257.8,151,256,151V61h90
		C367.301,61,386.499,76.899,390.099,98.5z"/>
	<path style="fill:#C1001F;" d="M391,106v121c0,8.399-6.599,15-15,15H256V119.799L390.099,98.5C390.7,100.899,391,103.299,391,106z"
		/>
	<path style="fill:#713708;" d="M301,347c0,8.399-6.599,15-15,15s-15-6.601-15-15c0-8.401-6.599-15-15-15v-30
		C280.901,302,301,322.099,301,347z"/>
	<path style="fill:#FD003A;" d="M421,242c0,16.5-13.5,30-30,30H121c-16.5,0-30-13.5-30-30s13.5-30,30-30h270
		C407.5,212,421,225.5,421,242z"/>
	<path style="fill:#E50027;" d="M421,242c0,16.5-13.5,30-30,30H256v-60h135C407.5,212,421,225.5,421,242z"/>
	<path style="fill:#713708;" d="M316,392c-24.814,0-45-20.186-45-45s20.186-45,45-45s45,20.186,45,45S340.814,392,316,392z"/>
	<path style="fill:#ACE3FC;" d="M316,362c-8.276,0-15-6.724-15-15s6.724-15,15-15s15,6.724,15,15S324.276,362,316,362z"/>
	<path style="fill:#994C0F;" d="M196,392c-24.814,0-45-20.186-45-45s20.186-45,45-45s45,20.186,45,45S220.814,392,196,392z"/>
	<path style="fill:#CCEFFF;" d="M196,362c-8.276,0-15-6.724-15-15s6.724-15,15-15s15,6.724,15,15S204.276,362,196,362z"/>
	<path style="fill:#C85F03;" d="M196,482h-26.514c-40.737,0-95.098-17.388-122.71-100.254c-1.919-5.757-0.19-12.1,4.395-16.084
		c4.585-3.999,11.133-4.761,16.538-2.08c47.505,23.745,71.177,14.985,94.116,6.489C172.548,366.102,183.622,362,196,362
		c33.091,0,60,26.909,60,60S229.091,482,196,482z"/>
	<path style="fill:#994C0F;" d="M342.514,482H316c-33.091,0-60-26.909-60-60s26.909-60,60-60c12.319,0,23.481,4.043,34.263,7.939
		c23.218,8.408,47.168,17.08,94.028-6.357c5.391-2.681,11.938-1.919,16.538,2.08c4.585,3.984,6.313,10.327,4.395,16.084
		C437.611,464.612,383.251,482,342.514,482z"/>
</g>
<g>
</g>
<g>
</g>
<g>
</g>
<g>
</g>
<g>
</g>
<g>
</g>
<g>
</g>
<g>
</g>
<g>
</g>
<g>
</g>
<g>
</g>
<g>
</g>
<g>
</g>
<g>
</g>
<g>
</g>
</svg>
