<?xml version="1.0" encoding="iso-8859-1"?>
<!-- Generator: Adobe Illustrator 19.0.0, SVG Export Plug-In . SVG Version: 6.00 Build 0)  -->
<svg version="1.1" id="Layer_1" xmlns="http://www.w3.org/2000/svg" xmlns:xlink="http://www.w3.org/1999/xlink" x="0px" y="0px"
	 viewBox="0 0 512 512" style="enable-background:new 0 0 512 512;" xml:space="preserve">
<g>
	<path style="fill:#32D736;" d="M189.249,15v75l-30,30h-60l-30-30V15c0-8.401,6.599-15,15-15h90C182.65,0,189.249,6.599,189.249,15z
		"/>
	<path style="fill:#10BB67;" d="M189.249,15v75l-30,30h-30V0h45C182.65,0,189.249,6.599,189.249,15z"/>
	<path style="fill:#32D736;" d="M249.249,309.899V467c0,24.899-20.099,45-45,45h-150c-24.901,0-45-20.101-45-45v-15l15-30V300
		l-11.1-30c6.599-36.301,22.2-70.8,45.899-99.6c2.401-3.001,5.101-6.899,7.202-11.4l62.999,16.5l62.999-16.5
		c2.1,4.501,4.801,8.399,7.202,11.4C231.548,209.7,249.249,259.2,249.249,309.899z"/>
	<path style="fill:#10BB67;" d="M249.249,309.899V467c0,24.899-20.099,45-45,45h-75V175.499l62.999-16.5
		c2.1,4.501,4.801,8.399,7.202,11.4C231.548,209.7,249.249,259.2,249.249,309.899z"/>
	<rect x="354.249" y="330" style="fill:#CCEFFF;" width="60" height="122"/>
	<rect x="384.249" y="330" style="fill:#ACE3FC;" width="30" height="122"/>
	<path style="fill:#DCF4FF;" d="M384.249,422c-41.4,0-75,33.6-75,75c0,8.399,6.599,15,15,15h120c8.401,0,15-6.601,15-15
		C459.249,455.6,425.649,422,384.249,422z"/>
	<path style="fill:#CCEFFF;" d="M459.249,497c0,8.399-6.599,15-15,15h-60v-90C425.649,422,459.249,455.6,459.249,497z"/>
	<path style="fill:#FEA832;" d="M204.249,15c0,8.399-6.599,15-15,15h-120c-8.401,0-15-6.601-15-15c0-8.401,6.599-15,15-15h120
		C197.65,0,204.249,6.599,204.249,15z"/>
	<path style="fill:#FEDB41;" d="M159.249,285v152c0,8.399-6.599,15-15,15h-135V309.899c0-13.499,1.5-26.699,3.9-39.899h131.1
		C152.65,270,159.249,276.599,159.249,285z"/>
	<path style="fill:#FEDB41;" d="M192.248,159L138.849,206.7c-3.001,2.098-6.301,3.3-9.6,3.3s-6.599-1.201-9.6-3.3L66.25,159
		c1.8-4.2,2.999-9,2.999-14.399V90h120v54.6C189.249,150,190.449,154.799,192.248,159z"/>
	<path style="fill:#FCBF29;" d="M192.248,159L138.849,206.7c-3.001,2.098-6.301,3.3-9.6,3.3V90h60v54.6
		C189.249,150,190.449,154.799,192.248,159z"/>
	<path style="fill:#FE9923;" d="M204.249,15c0,8.399-6.599,15-15,15h-60V0h60C197.65,0,204.249,6.599,204.249,15z"/>
	<path style="fill:#FCBF29;" d="M159.249,285v152c0,8.399-6.599,15-15,15h-15V270h15C152.65,270,159.249,276.599,159.249,285z"/>
	<path style="fill:#DCF4FF;" d="M502.75,240l-33.3,30H299.048l-33.3-30c0-5.4,0-10.501,0.601-15.901l12.9-91.199
		c1.199-7.5,7.5-12.9,15-12.9h180c7.5,0,13.801,5.4,15,12.9l12.9,91.199C502.75,229.499,502.75,234.6,502.75,240z"/>
	<path style="fill:#CCEFFF;" d="M502.75,240l-33.3,30h-85.201V120h90c7.5,0,13.801,5.4,15,12.9l12.9,91.199
		C502.75,229.499,502.75,234.6,502.75,240z"/>
	<path style="fill:#FD003A;" d="M502.75,240c0.3,69.3-54.901,120-118.5,120c-64.2,0-118.801-51.301-118.5-120H502.75z"/>
	<path style="fill:#E50027;" d="M502.75,240c0.3,69.3-54.901,120-118.5,120V240H502.75z"/>
</g>
<g>
</g>
<g>
</g>
<g>
</g>
<g>
</g>
<g>
</g>
<g>
</g>
<g>
</g>
<g>
</g>
<g>
</g>
<g>
</g>
<g>
</g>
<g>
</g>
<g>
</g>
<g>
</g>
<g>
</g>
</svg>
