<?xml version="1.0" encoding="iso-8859-1"?>
<!-- Generator: Adobe Illustrator 19.0.0, SVG Export Plug-In . SVG Version: 6.00 Build 0)  -->
<svg version="1.1" id="Layer_1" xmlns="http://www.w3.org/2000/svg" xmlns:xlink="http://www.w3.org/1999/xlink" x="0px" y="0px"
	 viewBox="0 0 512 512" style="enable-background:new 0 0 512 512;" xml:space="preserve">
<g>
	<path style="fill:#FD003A;" d="M337.599,65.099L301,120l-13.801,15H231.7L211,120l-36.599-54.901
		c-7.202-14.099-6.301-30.3,1.8-43.801C184.6,8.099,198.701,0,214.6,0h82.8c15.899,0,30,8.099,38.399,21.299
		C343.9,34.799,344.801,51,337.599,65.099z"/>
	<path style="fill:#E50027;" d="M337.599,65.099L301,120l-13.801,15H256V0h41.4c15.899,0,30,8.099,38.399,21.299
		C343.9,34.799,344.801,51,337.599,65.099z"/>
	<path style="fill:#E50027;" d="M256,150L256,150c-8.284,0-15-6.716-15-15v-30c0-8.284,6.716-15,15-15h0c8.284,0,15,6.716,15,15v30
		C271,143.284,264.284,150,256,150z"/>
	<path style="fill:#C1001F;" d="M271,105v30c0,8.399-6.599,15-15,15V90C264.401,90,271,96.599,271,105z"/>
	<path style="fill:#FD003A;" d="M481,452c0,32.999-27.001,60-60,60H91c-32.999,0-60-27.001-60-60c0-22.2,12.299-41.4,30-51.601V375
		c0-58.5,25.8-113.401,71.1-150.601h247.8C425.2,261.599,451,316.5,451,375v25.399C468.701,410.6,481,429.8,481,452z"/>
	<path style="fill:#E50027;" d="M481,452c0,32.999-27.001,60-60,60H256V224.399h123.9C425.2,261.599,451,316.5,451,375v25.399
		C468.701,410.6,481,429.8,481,452z"/>
	<path style="fill:#FE9923;" d="M369.699,313.2c-4.499,3.9-11.1,5.099-16.5,2.399L328.299,303.9l-11.398,24.899
		c-2.701,5.402-7.8,8.701-13.801,8.701c0,0-0.3,0-0.601,0c-6-0.3-11.4-4.2-13.5-9.901L256,236.7l-32.999,90.899
		c-2.1,5.7-7.5,9.6-13.5,9.901c-0.3,0-0.601,0-0.601,0c-6,0-11.1-3.3-13.801-8.701L183.701,303.9L158.8,315.599
		c-5.4,2.701-12.001,1.501-16.5-2.399c-4.501-4.2-6-10.501-3.9-16.201l31.199-86.1L256,180.3l86.4,30.599l31.199,86.1
		C375.7,302.699,374.2,309,369.699,313.2z"/>
	<path style="fill:#FF8000;" d="M369.699,313.2c-4.499,3.9-11.1,5.099-16.5,2.399L328.299,303.9l-11.398,24.899
		c-2.701,5.402-7.8,8.701-13.801,8.701c0,0-0.3,0-0.601,0c-6-0.3-11.4-4.2-13.5-9.901L256,236.7v-56.4l86.4,30.599l31.199,86.1
		C375.7,302.699,374.2,309,369.699,313.2z"/>
	<path style="fill:#FE9923;" d="M398.834,85.254c-13.33-8.218-29.707-9.009-43.784-1.963L300.176,120l-15,12.513v62.593l15,14.894
		l54.873,36.709c14.009,7.02,30.392,6.299,43.784-1.963c13.359-8.262,21.343-22.573,21.343-38.291v-82.91
		C420.176,107.827,412.193,93.516,398.834,85.254z"/>
	<path style="fill:#FEA832;" d="M211,120l-54.873-36.709c-14.048-7.031-30.425-6.284-43.784,1.963
		C98.983,93.516,91,107.827,91,123.545v82.91c0,15.718,7.983,30.029,21.343,38.291c13.392,8.262,29.774,8.984,43.784,1.963L211,210
		l15-11.262v-65.337L211,120z"/>
	<path style="fill:#FE9923;" d="M226,180h-60c-8.291,0-15-6.709-15-15s6.709-15,15-15h60c8.291,0,15,6.709,15,15
		S234.291,180,226,180z"/>
	<path style="fill:#FF8000;" d="M346,180h-60c-8.291,0-15-6.709-15-15s6.709-15,15-15h60c8.291,0,15,6.709,15,15
		S354.291,180,346,180z"/>
	<path style="fill:#FEDB41;" d="M211,120v90h90v-90H211z"/>
	<rect x="256" y="120" style="fill:#FFCC33;" width="45" height="90"/>
</g>
<g>
</g>
<g>
</g>
<g>
</g>
<g>
</g>
<g>
</g>
<g>
</g>
<g>
</g>
<g>
</g>
<g>
</g>
<g>
</g>
<g>
</g>
<g>
</g>
<g>
</g>
<g>
</g>
<g>
</g>
</svg>
