<?xml version="1.0" encoding="iso-8859-1"?>
<!-- Generator: Adobe Illustrator 19.0.0, SVG Export Plug-In . SVG Version: 6.00 Build 0)  -->
<svg version="1.1" id="Layer_1" xmlns="http://www.w3.org/2000/svg" xmlns:xlink="http://www.w3.org/1999/xlink" x="0px" y="0px"
	 viewBox="0 0 512 512" style="enable-background:new 0 0 512 512;" xml:space="preserve">
<g>
	<path style="fill:#FEB756;" d="M473.075,242.772c-4.878-2.607-10.825-2.329-15.396,0.747l-66.973,44.648L378.52,406
		c0,8.291,6.709,15,15,15H406c41.353,0,75-33.647,75-75v-90C481,250.463,477.953,245.38,473.075,242.772z"/>
	<path style="fill:#FEC478;" d="M54.32,243.52c-4.6-3.076-10.532-3.354-15.396-0.747C34.047,245.38,31,250.463,31,256v90
		c0,41.353,33.647,75,75,75h12.48l2.813-132.832L54.32,243.52z"/>
	<path style="fill:#FEDBAB;" d="M421,346c0,91.199-73.801,166-165,166S91,437.199,91,346c0-39.901,14.099-76.5,37.8-105H383.2
		C406.901,269.5,421,306.099,421,346z"/>
	<path style="fill:#FEC478;" d="M421,346c0,91.199-73.801,166-165,166V241h127.2C406.901,269.5,421,306.099,421,346z"/>
	<circle style="fill:#994C0F;" cx="196" cy="316" r="15"/>
	<circle style="fill:#713708;" cx="316" cy="316" r="15"/>
	<path style="fill:#10BB67;" d="M419.801,39.3C417.4,33.6,412,30,406,30H256c-23.401,0-45.901,11.1-60,30l-72.001,127
		c-3.3,4.499-3.9,10.499-1.5,15.599C125.2,207.7,130.3,211,136,211h240c6,0,11.4-3.6,13.801-9.3
		c2.399-5.7,1.199-12.001-3.301-16.201L352.301,120l64.199-64.501C421,51.299,422.199,45,419.801,39.3z"/>
	<path style="fill:#FD003A;" d="M330.099,420.099C310.3,440.2,283.9,451,256,451s-54.3-10.8-74.099-30.901c-6-5.7-6-15.3,0-21
		c5.698-5.999,15.298-5.999,20.999,0C217,413.2,236.499,420.399,256,420.399s39-7.2,53.101-21.301c5.7-5.999,15.3-5.999,20.999,0
		C336.099,404.799,336.099,414.399,330.099,420.099z"/>
	<path style="fill:#994C0F;" d="M256,331c-16.5,0-30,13.5-30,30s13.5,30,30,30s30-13.5,30-30S272.5,331,256,331z"/>
	<path style="fill:#E50027;" d="M330.099,420.099C310.3,440.2,283.9,451,256,451v-30.601c19.501,0,39-7.2,53.101-21.301
		c5.7-5.999,15.3-5.999,20.999,0C336.099,404.799,336.099,414.399,330.099,420.099z"/>
	<path style="fill:#713708;" d="M286,361c0,16.5-13.5,30-30,30v-60C272.5,331,286,344.5,286,361z"/>
	<path style="fill:#0CA656;" d="M416.499,55.499L352.301,120l34.199,65.499c4.501,4.2,5.7,10.501,3.301,16.201
		C387.4,207.4,382,211,376,211H256V30h150c6,0,11.4,3.6,13.801,9.3C422.199,45,421,51.299,416.499,55.499z"/>
	<path style="fill:#32D736;" d="M421,211v30c0,16.5-13.5,30-30,30H121c-16.5,0-30-13.5-30-30v-30c0-16.5,13.5-30,30-30h270
		C407.5,181,421,194.5,421,211z"/>
	<path style="fill:#10BB67;" d="M421,211v30c0,16.5-13.5,30-30,30H256v-90h135C407.5,181,421,194.5,421,211z"/>
	<path style="fill:#FE9923;" d="M436,90c-24.814,0-45-20.186-45-45s20.186-45,45-45s45,20.186,45,45S460.814,90,436,90z"/>
</g>
<g>
</g>
<g>
</g>
<g>
</g>
<g>
</g>
<g>
</g>
<g>
</g>
<g>
</g>
<g>
</g>
<g>
</g>
<g>
</g>
<g>
</g>
<g>
</g>
<g>
</g>
<g>
</g>
<g>
</g>
</svg>
