<?xml version="1.0" encoding="iso-8859-1"?>
<!-- Generator: Adobe Illustrator 19.0.0, SVG Export Plug-In . SVG Version: 6.00 Build 0)  -->
<svg version="1.1" id="Layer_1" xmlns="http://www.w3.org/2000/svg" xmlns:xlink="http://www.w3.org/1999/xlink" x="0px" y="0px"
	 viewBox="0 0 512 512" style="enable-background:new 0 0 512 512;" xml:space="preserve">
<g>
	<path style="fill:#E50027;" d="M467,60c-8.291,0-15,6.709-15,15v30c0,8.276-6.724,15-15,15h-15V15c0-8.291-6.709-15-15-15
		s-15,6.709-15,15v45h-15c-8.276,0-15-6.724-15-15V15c0-8.291-6.709-15-15-15s-15,6.709-15,15v30c0,24.814,20.186,45,45,45h15v30
		h-45c-24.814,0-45,20.186-45,45v42.48c0,8.291,6.709,15,15,15s15-6.709,15-15V165c0-8.276,6.724-15,15-15h90
		c24.814,0,45-20.186,45-45V75C482,66.709,475.291,60,467,60z"/>
	<path style="fill:#FD003A;" d="M165,120h-45V90h15c24.814,0,45-20.186,45-45V15c0-8.291-6.709-15-15-15s-15,6.709-15,15v30
		c0,8.276-6.724,15-15,15h-15V15c0-8.291-6.709-15-15-15S90,6.709,90,15v105H75c-8.276,0-15-6.724-15-15V75c0-8.291-6.709-15-15-15
		s-15,6.709-15,15v30c0,24.814,20.186,45,45,45h90c8.276,0,15,6.724,15,15v42.48c0,8.291,6.709,15,15,15s15-6.709,15-15V165
		C210,140.186,189.814,120,165,120z"/>
	<path style="fill:#0CA656;" d="M437,330h-30c-8.291,0-15-6.709-15-15v-30c0-41.353,33.647-75,75-75h30c8.291,0,15,6.709,15,15v30
		C512,296.353,478.353,330,437,330z"/>
	<path style="fill:#10BB67;" d="M105,330H75c-41.353,0-75-33.647-75-75v-30c0-8.291,6.709-15,15-15h30c41.353,0,75,33.647,75,75v30
		C120,323.291,113.291,330,105,330z"/>
	<path style="fill:#0CA656;" d="M362,391l-15,31v60c0,16.538,13.462,30,30,30s30-13.462,30-30v-60l-15-31H362z"/>
	<path style="fill:#10BB67;" d="M120,391l-15,31v60c0,16.538,13.462,30,30,30s30-13.462,30-30v-60l-15-31H120z"/>
	<path style="fill:#32D736;" d="M407,336.299V422h-60v-92c0-49.801-41.201-89.7-91-90h-0.3c-52.5,0-90.7,43.799-90.7,93.6V422h-60
		v-92c0-80.4,65.799-150,150.7-150h0.3C342.4,180.3,407,253.799,407,336.299z"/>
	<path style="fill:#10BB67;" d="M407,336.299V422h-60v-92c0-49.801-41.201-89.7-91-90v-60C342.4,180.3,407,253.799,407,336.299z"/>
</g>
<g>
</g>
<g>
</g>
<g>
</g>
<g>
</g>
<g>
</g>
<g>
</g>
<g>
</g>
<g>
</g>
<g>
</g>
<g>
</g>
<g>
</g>
<g>
</g>
<g>
</g>
<g>
</g>
<g>
</g>
</svg>
