<?xml version="1.0" encoding="iso-8859-1"?>
<!-- Generator: Adobe Illustrator 19.0.0, SVG Export Plug-In . SVG Version: 6.00 Build 0)  -->
<svg version="1.1" id="Layer_1" xmlns="http://www.w3.org/2000/svg" xmlns:xlink="http://www.w3.org/1999/xlink" x="0px" y="0px"
	 viewBox="0 0 512 512" style="enable-background:new 0 0 512 512;" xml:space="preserve">
<g>
	<g>
		<g>
			<path style="fill:#994C0F;" d="M407,451H105c-8.291,0-15-7.709-15-16V255c0-90.981,75.019-165,166-165s166,74.019,166,165v180
				C422,443.291,415.291,451,407,451z"/>
		</g>
	</g>
	<path style="fill:#713708;" d="M407,451c8.291,0,15-7.709,15-16V255c0-90.981-75.019-165-166-165v361H407z"/>
	<g id="Fireplace_2_">
		<g>
			<path style="fill:#FEDB41;" d="M256,451c-57.891,0-106-43.612-106-95.995c0-31.641,7.812-66.328,93.417-198.179
				c5.537-8.496,19.629-8.525,25.166,0C354.188,288.604,362,323.32,362,355.005C362,407.388,313.891,451,256,451z"/>
		</g>
		<path style="fill:#FCBF29;" d="M362,355.005c0-31.685-7.812-66.401-93.417-198.179c-2.769-4.263-7.676-6.387-12.583-6.383V451
			C313.891,451,362,407.388,362,355.005z"/>
	</g>
	<g>
		<g>
			<path style="fill:#FD003A;" d="M511.399,240c-1.8-34.801-10.8-68.701-26.4-99.3c-4.499-9-9.3-17.701-15-26.1
				c-9.3-14.401-20.4-27.9-32.699-40.201c-12.301-12.299-25.8-23.101-39.901-32.401c-8.399-5.7-17.1-10.499-26.1-15
				C340.699,11.4,305.799,2.399,271,0.599C266.201,0,261.099,0,256,0s-9.901,0-15,0.3c-35.4,2.098-70,11.4-100,26.699
				c-9,4.501-17.701,9.6-26.1,15c-29.101,19.2-53.701,43.801-72.9,72.9c-5.402,8.101-10.501,16.802-15,25.801
				C11.7,171,2.401,204.6,0.3,240C0,245.099,0,249.899,0,255v180c0,8.399,6.599,16,15,16h90c8.401,0,15-7.601,15-16V255
				c0-5.101,0.3-10.201,0.901-15c1.5-13.801,5.099-27.001,10.499-39.3c3.9-9,9-17.701,15-25.501c7.8-11.1,17.401-20.7,28.5-28.499
				c8.099-6.301,16.8-11.4,26.1-15.3c12.299-5.4,26.199-9.001,40-10.501c4.799-0.599,9.901-0.899,15-0.899s10.201,0.3,15,0.899
				c13.801,1.5,27.7,5.101,40,10.501c9.3,3.9,18.001,9,25.8,15.3c11.102,7.798,20.7,17.399,28.801,28.499
				c6,7.8,11.1,16.501,15,25.801c5.4,12.299,9,25.199,10.499,39c0.601,4.799,0.901,9.899,0.901,15v180c0,8.399,6.599,16,15,16h90
				c8.401,0,15-7.601,15-16V255C512,249.899,512,244.799,511.399,240z"/>
		</g>
	</g>
	<path style="fill:#E50027;" d="M271,120.899c13.801,1.5,27.7,5.101,40,10.501c9.3,3.9,18.001,9,25.8,15.3
		c11.102,7.798,20.7,17.399,28.801,28.499c6,7.8,11.1,16.501,15,25.801c5.4,12.299,9,25.199,10.499,39
		c0.601,4.799,0.901,9.899,0.901,15v180c0,8.399,6.599,16,15,16h90c8.401,0,15-7.601,15-16V255c0-5.101,0-10.201-0.601-15
		c-1.8-34.801-10.8-68.701-26.4-99.3c-4.499-9-9.3-17.701-15-26.1c-9.3-14.401-20.4-27.9-32.699-40.201
		c-12.301-12.299-25.8-23.101-39.901-32.401c-8.399-5.7-17.1-10.499-26.1-15C340.699,11.4,305.799,2.399,271,0.599
		C266.201,0,261.099,0,256,0v120C261.099,120,266.201,120.3,271,120.899z"/>
	<g>
		<g>
			<path style="fill:#E50027;" d="M271,0.599v120.3c-4.799-0.599-9.901-0.899-15-0.899s-10.201,0.3-15,0.899V0.3
				C246.099,0,250.901,0,256,0S266.201,0,271,0.599z"/>
		</g>
	</g>
	<g>
		<path style="fill:#E50027;" d="M201,131.4c-9.3,3.9-18.001,9-26.1,15.3l-60-104.702c8.399-5.4,17.1-10.499,26.1-15L201,131.4z"/>
	</g>
	<g>
		<path style="fill:#E50027;" d="M146.4,175.199c-6,7.8-11.1,16.501-15,25.501l-104.399-60c4.499-9,9.598-17.701,15-25.801
			L146.4,175.199z"/>
	</g>
	<g>
		<path style="fill:#E50027;" d="M120.901,240c-0.601,4.799-0.901,9.899-0.901,15v15H0v-15c0-5.101,0-9.901,0.3-15H120.901z"/>
	</g>
	<g>
		<path style="fill:#C1001F;" d="M512,255v15H392v-15c0-5.101-0.3-10.201-0.901-15h120.3C512,244.799,512,249.899,512,255z"/>
	</g>
	<g>
		<path style="fill:#C1001F;" d="M484.999,140.7L380.6,201c-3.9-9.3-9-18.001-15-25.801L469.999,114.6
			C475.699,122.999,480.5,131.7,484.999,140.7z"/>
	</g>
	<g>
		<g>
			<path style="fill:#C1001F;" d="M397.4,41.999L336.799,146.7c-7.798-6.301-16.5-11.4-25.8-15.3l60.3-104.401
				C380.3,31.5,389.001,36.299,397.4,41.999z"/>
		</g>
	</g>
	<g>
		<rect y="330" style="fill:#E50027;" width="120" height="30"/>
	</g>
	<g>
		<rect x="392" y="330" style="fill:#C1001F;" width="120" height="30"/>
	</g>
	<g>
		<g>
			<path style="fill:#CCEFFF;" d="M497,512H15c-8.284,0-15-6.716-15-15v-77h512v77C512,505.284,505.284,512,497,512z"/>
		</g>
	</g>
	<path style="fill:#ACE3FC;" d="M256,512h241c8.284,0,15-6.716,15-15v-77H256V512z"/>
	<path style="fill:#C1001F;" d="M271,120.899V0.599C266.201,0,261.099,0,256,0v120C261.099,120,266.201,120.3,271,120.899z"/>
	<g>
		<path style="fill:#FEA832;" d="M256,390c-24.39,0-46-16.025-46-34.995c0-13.228,3.461-30.498,32.948-82.778
			c2.666-4.717,7.646-7.632,13.066-7.632l0,0c5.42,0,10.415,2.915,13.066,7.632C298.539,324.478,302,341.763,302,355.005
			C302,373.975,280.39,390,256,390z"/>
	</g>
	<path style="fill:#FE9923;" d="M302,355.005c0-13.242-3.461-30.527-32.919-82.778c-2.651-4.717-7.646-7.632-13.066-7.632
		L256,264.598V390C280.39,390,302,373.975,302,355.005z"/>
</g>
<g>
</g>
<g>
</g>
<g>
</g>
<g>
</g>
<g>
</g>
<g>
</g>
<g>
</g>
<g>
</g>
<g>
</g>
<g>
</g>
<g>
</g>
<g>
</g>
<g>
</g>
<g>
</g>
<g>
</g>
</svg>
