<svg id="Lager_1" data-name="Lager 1" xmlns="http://www.w3.org/2000/svg" viewBox="0 0 511.9 511.9"><defs><style>.cls-1{fill:#3a3a3a;}.cls-2{fill:#232221;}.cls-3{fill:#fd003a;}.cls-4{fill:#e50027;}.cls-5{fill:#fea832;}.cls-6{fill:#fe9923;}.cls-7{fill:#fedb41;}.cls-8{fill:#fc3;}.cls-9{fill:#32d736;}.cls-10{fill:#10bb67;}.cls-11{fill:#ccefff;}.cls-12{fill:#ace3fc;}</style></defs><title>Rityta 1</title><path class="cls-1" d="M430.4,111h0a9.56,9.56,0,0,1-9.5-9.5v-30a9.56,9.56,0,0,1,9.5-9.5h0a9.56,9.56,0,0,1,9.5,9.5v30A9.56,9.56,0,0,1,430.4,111Z"/><path class="cls-2" d="M430.4,65.53v41.85a2.89,2.89,0,0,0,4.13,2.62,9.56,9.56,0,0,0,5.37-8.54v-30a9.56,9.56,0,0,0-5.37-8.54A2.89,2.89,0,0,0,430.4,65.53Z"/><path class="cls-3" d="M472.4,112.06V459.6a6.11,6.11,0,0,1-6,6.4H394.3a6.11,6.11,0,0,1-6-6.4V112.06a6.11,6.11,0,0,1,6-6.4h72.1A6.11,6.11,0,0,1,472.4,112.06Z"/><path class="cls-4" d="M472.4,112.06V459.6a6.11,6.11,0,0,1-6,6.4H430.3V108.55a2.89,2.89,0,0,1,2.89-2.89H466.4A6.11,6.11,0,0,1,472.4,112.06Z"/><path class="cls-1" d="M194.4,111h0a9.56,9.56,0,0,1-9.5-9.5v-30a9.56,9.56,0,0,1,9.5-9.5h0a9.56,9.56,0,0,1,9.5,9.5v30A9.56,9.56,0,0,1,194.4,111Z"/><path class="cls-2" d="M194.4,65.53v41.85a2.89,2.89,0,0,0,4.13,2.62,9.56,9.56,0,0,0,5.37-8.54v-30a9.56,9.56,0,0,0-5.37-8.54A2.89,2.89,0,0,0,194.4,65.53Z"/><path class="cls-3" d="M236.4,112.06V459.6a6.11,6.11,0,0,1-6,6.4H158.3a6.11,6.11,0,0,1-6-6.4V112.06a6.11,6.11,0,0,1,6-6.4h72.1A6.11,6.11,0,0,1,236.4,112.06Z"/><path class="cls-4" d="M236.4,112.06V459.6a6.11,6.11,0,0,1-6,6.4H194.3V108.55a2.89,2.89,0,0,1,2.89-2.89H230.4A6.11,6.11,0,0,1,236.4,112.06Z"/><path class="cls-1" d="M313,111h0a9.56,9.56,0,0,1-9.5-9.5v-30A9.56,9.56,0,0,1,313,62h0a9.56,9.56,0,0,1,9.5,9.5v30A9.56,9.56,0,0,1,313,111Z"/><path class="cls-2" d="M313,65.53v41.85a2.89,2.89,0,0,0,4.13,2.62,9.56,9.56,0,0,0,5.37-8.54v-30a9.56,9.56,0,0,0-5.37-8.54A2.89,2.89,0,0,0,313,65.53Z"/><path class="cls-3" d="M355,112.06V459.6a6.11,6.11,0,0,1-6,6.4H276.9a6.11,6.11,0,0,1-6-6.4V112.06a6.11,6.11,0,0,1,6-6.4H349A6.18,6.18,0,0,1,355,112.06Z"/><path class="cls-4" d="M355,112.06V459.6a6.11,6.11,0,0,1-6,6.4H312.9V108.55a2.89,2.89,0,0,1,2.89-2.89H349A6.18,6.18,0,0,1,355,112.06Z"/><path class="cls-3" d="M118.2,166.56V459.5a6.18,6.18,0,0,1-6,6.4H40.1a6.24,6.24,0,0,1-6-6.4V166.56a6.18,6.18,0,0,1,6-6.4h72.1A6.24,6.24,0,0,1,118.2,166.56Z"/><path class="cls-4" d="M118.2,166.56V459.5a6.18,6.18,0,0,1-6,6.4H76.1V163A2.89,2.89,0,0,1,79,160.16H112.2A6.24,6.24,0,0,1,118.2,166.56Z"/><path class="cls-5" d="M111.8,158.06H40.5c-9.1,0-17.6,7.4-18.4,16.5a18,18,0,0,0,18,19.6H55.21A2.89,2.89,0,0,1,58.1,197v3.11a18,18,0,0,0,18,18,17.5,17.5,0,0,0,4.12-.51,2.88,2.88,0,0,1,3.35,1.61,18.09,18.09,0,0,0,19.14,10.79c9-1.2,15.5-9.2,15.5-18.3V195a2.92,2.92,0,0,1,1.71-2.63,18,18,0,0,0,10-19.61C128.4,164.16,120.6,158.06,111.8,158.06Z"/><path class="cls-6" d="M129.9,172.86a18,18,0,0,1-10,19.6,2.91,2.91,0,0,0-1.69,2.62v16.78a18.33,18.33,0,0,1-15.5,18.3,18.09,18.09,0,0,1-19.14-10.79,2.88,2.88,0,0,0-3.35-1.61l-.65.15a2.89,2.89,0,0,1-3.46-2.84V161A2.89,2.89,0,0,1,79,158.16H111.8A18,18,0,0,1,129.9,172.86Z"/><path class="cls-7" d="M92.79,132.9a3.1,3.1,0,0,0-.21-.46L81.4,112.36a6.42,6.42,0,0,0-10.6,0l-11.57,21a3,3,0,0,0-.21.47A20.22,20.22,0,0,0,58,140a18,18,0,0,0,36,1.8A18.89,18.89,0,0,0,92.79,132.9Z"/><path class="cls-8" d="M94.2,140.06a18,18,0,0,1-14.53,17.67,2.9,2.9,0,0,1-3.47-2.84V114a2.88,2.88,0,0,1,5.27-1.64l0,.05,11.17,20.07a3.1,3.1,0,0,1,.22.49A21.89,21.89,0,0,1,94.2,140.06Z"/><g id="Lager_2" data-name="Lager 2"><path class="cls-9" d="M499.3,458.5c-1.2-2.8-3.1-4.5-5.2-4.5H23.4c-2,0-4,1.7-5.2,4.5a14.14,14.14,0,0,0-.2,9.1l12,37.8c1.1,3.2,3.1,5.3,5.4,5.3H482c2.3,0,4.3-2.1,5.4-5.3l12-37.8A14.87,14.87,0,0,0,499.3,458.5Z"/><path class="cls-10" d="M499.5,467.6l-12,37.8c-1.1,3.2-3.1,5.3-5.4,5.3H255.5V454H494.1c2,0,4,1.7,5.2,4.5A15.64,15.64,0,0,1,499.5,467.6Z"/><path class="cls-11" d="M506.1,459.8c0,5.7-5.6,10.1-9,10.1H13.4c-3.4,0-8-4.4-8-10.1s4.6-10.1,8-10.1H497.1C500.5,449.7,506.1,454.1,506.1,459.8Z"/><path class="cls-12" d="M506.1,459.8c0,5.7-5.6,10.1-9,10.1H255.5V449.7H497.1C500.5,449.7,506.1,454.1,506.1,459.8Z"/></g></svg>