<?xml version="1.0" encoding="iso-8859-1"?>
<!-- Generator: Adobe Illustrator 19.0.0, SVG Export Plug-In . SVG Version: 6.00 Build 0)  -->
<svg version="1.1" id="Layer_1" xmlns="http://www.w3.org/2000/svg" xmlns:xlink="http://www.w3.org/1999/xlink" x="0px" y="0px"
	 viewBox="0 0 512.292 512.292" style="enable-background:new 0 0 512.292 512.292;" xml:space="preserve">
<g>
	<path style="fill:#FEDB41;" d="M503.899,62.247l-36.7-18.001L449.5,7.846c-2.701-5.099-8.101-7.5-13.5-7.5s-10.8,2.401-13.2,7.5
		l-17.999,36.4l-35.4,18.001c-5.101,2.399-8.401,7.5-8.401,13.2s3.3,11.1,8.401,13.499l35.4,17.701l17.999,35.7
		c2.401,5.099,7.5,8.101,13.2,8.101s11.1-3.001,13.5-8.101l17.699-35.7l36.7-17.701c5.101-2.399,8.101-7.798,8.101-13.499
		S509.001,64.645,503.899,62.247z"/>
	<path style="fill:#FEDB41;" d="M142.899,62.247l-35.7-18.001L89.5,7.846C86.8,2.746,81.4,0.346,76,0.346s-10.8,2.401-13.2,7.5
		l-17.999,36.4l-36.4,18.001C3.3,64.645,0,69.747,0,75.447s3.3,11.1,8.401,13.499l36.4,17.701l17.999,35.7
		c2.401,5.099,7.5,8.101,13.2,8.101s11.1-3.001,13.5-8.101l17.699-35.7l35.7-17.701c5.101-2.399,8.101-7.798,8.101-13.499
		S148.001,64.645,142.899,62.247z"/>
	<path style="fill:#FCBF29;" d="M511.561,204.095c-1.772-5.435-6.46-9.39-12.114-10.21l-159.115-22.983L269.623,27.625
		c-2.52-5.127-7.734-8.364-13.447-8.364c-0.064,0-0.112,0.049-0.176,0.049l-15,22.953v203.43l15,17.253l31.777,7.654l196.974-45.539
		L511.561,204.095z"/>
	<path style="fill:#FE9923;" d="M392.348,330.994c75.059-73.165,56.298-53.903,115.419-111.533
		c4.087-3.984,5.552-9.946,3.794-15.366L256,262.947l1.191,24.709L382.146,484.32l31.251,24.801
		c4.614-3.354,6.929-9.038,5.962-14.663L392.348,330.994z"/>
	<path style="fill:#FEDB41;" d="M413.5,509.223c-4.799,3.301-10.8,3.6-15.901,0.901L256.3,431.045H256l-141.301,79.079
		c-5.099,2.699-11.1,2.4-15.599-0.901l3.3-20.4l129.901-212.378L256,262.947L413.5,509.223z"/>
	<path style="fill:#FEA832;" d="M0.776,204.095c-1.758,5.42-0.293,11.382,3.794,15.366c59.11,57.621,40.399,38.406,115.419,111.533
		L92.992,494.458c-0.967,5.625,1.348,11.309,5.962,14.663L256,262.947l-22.981-20.32l-195.29-47.293L0.776,204.095z"/>
	<path style="fill:#FEDB41;" d="M256,19.31c-5.636,0.073-10.779,3.245-13.271,8.315l-70.723,143.276L12.891,193.885
		c-5.654,0.82-10.342,4.775-12.114,10.21L256,262.947V19.31z"/>
	<path style="fill:#FCBF29;" d="M413.5,509.223c-4.799,3.301-10.8,3.6-15.901,0.901L256.3,431.045H256V262.947L413.5,509.223z"/>
</g>
<g>
</g>
<g>
</g>
<g>
</g>
<g>
</g>
<g>
</g>
<g>
</g>
<g>
</g>
<g>
</g>
<g>
</g>
<g>
</g>
<g>
</g>
<g>
</g>
<g>
</g>
<g>
</g>
<g>
</g>
</svg>
