<?xml version="1.0" encoding="iso-8859-1"?>
<!-- Generator: Adobe Illustrator 19.0.0, SVG Export Plug-In . SVG Version: 6.00 Build 0)  -->
<svg version="1.1" id="Layer_1" xmlns="http://www.w3.org/2000/svg" xmlns:xlink="http://www.w3.org/1999/xlink" x="0px" y="0px"
	 viewBox="0 0 512 512" style="enable-background:new 0 0 512 512;" xml:space="preserve">
<g>
	<path style="fill:#FFCC33;" d="M497,180h-61h-60c-47.256,0-88.931,31.816-101.323,77.358L347.216,390H376c41.353,0,76-33.647,76-75
		c0-0.117-0.064-0.212-0.066-0.328C470.078,300.97,482,279.435,482,255v-0.029c18.208-13.696,30-35.479,30-59.971
		C512,186.709,505.291,180,497,180z"/>
	<path style="fill:#FEDB41;" d="M136,180H75H15c-8.291,0-15,6.709-15,15c0,24.492,11.792,46.274,30,59.971V255
		c0,24.435,11.922,45.97,30.066,59.672C60.064,314.788,60,314.883,60,315c0,41.353,34.647,75,76,75h28.784l72.539-132.642
		C224.931,211.816,183.256,180,136,180z"/>
	<path style="fill:#FEDB41;" d="M256,0c-52.2,0-105,13.801-105,45s52.8,45,105,45s105-13.801,105-45S308.2,0,256,0z M256,60
		c-41.4,0-66.599-9.3-73.5-15c6.901-5.7,32.1-15,73.5-15s66.599,9.3,73.5,15C322.599,50.7,297.4,60,256,60z"/>
	<path style="fill:#ACE3FC;" d="M378.401,511.399C377.5,511.7,376.901,512,376,512H136c-0.901,0-1.5-0.3-2.401-0.601l55.801-27.9
		C221.201,467.601,241,433.5,241,397.8V316.5l15,7.2l15-7.2V397.8c0,35.7,19.799,69.8,51.599,85.699L378.401,511.399z"/>
	<path style="fill:#81C8EE;" d="M378.401,511.399C377.5,511.7,376.901,512,376,512H256V323.699l15-7.2V397.8
		c0,35.7,19.799,69.8,51.599,85.699L378.401,511.399z"/>
	<path style="fill:#FCBF29;" d="M361,45c0,31.199-52.8,45-105,45V60c41.4,0,66.599-9.3,73.5-15c-6.901-5.7-32.1-15-73.5-15V0
		C308.2,0,361,13.801,361,45z"/>
	<path style="fill:#CCEFFF;" d="M390.224,492.254l-11.03-33.076C367.123,422.952,361,383.203,361,345
		c0-23.536-8.068-45.059-21.2-62.589L271,316.382l-15,15l-15-15l-68.8-33.972C159.068,299.941,151,321.464,151,345
		c0,38.203-6.123,77.952-18.193,114.178l-11.03,33.076c-1.538,4.57-0.762,9.609,2.051,13.521c2.333,3.228,5.927,5.002,9.785,5.651
		c0.817,0.137,1.545,0.575,2.388,0.575h63.545l3.164-1.582c23.311-11.655,41.484-29.962,53.291-51.843
		c11.807,21.881,29.98,40.188,53.291,51.843l3.164,1.582H376c0.846,0,1.577-0.438,2.397-0.577c3.853-0.652,7.445-2.424,9.776-5.649
		C390.985,501.863,391.762,496.824,390.224,492.254z"/>
	<path style="fill:#ACE3FC;" d="M309.291,510.418l3.164,1.582H376c0.846,0,1.577-0.438,2.397-0.577
		c3.853-0.652,7.445-2.424,9.776-5.649c2.813-3.911,3.589-8.95,2.051-13.521l-11.03-33.076C367.123,422.952,361,383.203,361,345
		c0-23.536-8.068-45.059-21.2-62.589L271,316.382l-15,15v127.193C267.807,480.456,285.98,498.763,309.291,510.418z"/>
	<path style="fill:#FEA832;" d="M339.699,282.299l-73.2,73.2C263.8,358.5,259.9,360,256,360s-7.8-1.5-10.499-4.501l-73.2-73.2
		c5.999-7.798,13.2-15,20.999-20.999C211,248.101,232.599,240,256,240s45,8.101,62.701,21.301
		C326.499,267.299,333.701,274.501,339.699,282.299z"/>
	<path style="fill:#FE9923;" d="M339.699,282.299l-73.2,73.2C263.8,358.5,259.9,360,256,360V240c23.401,0,45,8.101,62.701,21.301
		C326.499,267.299,333.701,274.501,339.699,282.299z"/>
	<path style="fill:#FEC478;" d="M256,120c-41.4,0-75,33.6-75,75s33.6,75,75,75s75-33.6,75-75S297.4,120,256,120z"/>
	<path style="fill:#FEB756;" d="M331,195c0,41.4-33.6,75-75,75V120C297.4,120,331,153.6,331,195z"/>
</g>
<g>
</g>
<g>
</g>
<g>
</g>
<g>
</g>
<g>
</g>
<g>
</g>
<g>
</g>
<g>
</g>
<g>
</g>
<g>
</g>
<g>
</g>
<g>
</g>
<g>
</g>
<g>
</g>
<g>
</g>
</svg>
