<?xml version="1.0" encoding="iso-8859-1"?>
<!-- Generator: Adobe Illustrator 19.0.0, SVG Export Plug-In . SVG Version: 6.00 Build 0)  -->
<svg version="1.1" id="Layer_1" xmlns="http://www.w3.org/2000/svg" xmlns:xlink="http://www.w3.org/1999/xlink" x="0px" y="0px"
	 viewBox="0 0 512 512" style="enable-background:new 0 0 512 512;" xml:space="preserve">
<g>
	<g>
		<polyline style="fill:#E4741B;" points="507.946,217.427 446.873,163.206 444.216,286.996 507.946,217.427 		"/>
		<polyline style="fill:#FE8821;" points="4.054,217.427 65.127,163.206 67.782,286.998 4.054,217.427 		"/>
		<path style="fill:#FD003A;" d="M452,15v414.5c0,8.399-6.599,15-15,15H75c-8.401,0-15-6.601-15-15V15c0-8.401,6.599-15,15-15h362
			C445.401,0,452,6.599,452,15z"/>
		<path style="fill:#E50027;" d="M452,15v414.5c0,8.399-6.599,15-15,15H256V0h181C445.401,0,452,6.599,452,15z"/>
		<g>
			<g>
				<g>
					<g>
						<path style="fill:#CCEFFF;" d="M271,227v60c0,8.399-6.599,15-15,15s-15-6.601-15-15v-60c0-8.401,6.599-15,15-15
							S271,218.599,271,227z"/>
					</g>
					<g>
						<path style="fill:#CCEFFF;" d="M271,107v60c0,8.399-6.599,15-15,15s-15-6.601-15-15v-60c0-8.401,6.599-15,15-15
							S271,98.599,271,107z"/>
					</g>
				</g>
			</g>
			<g>
				<g>
					<path style="fill:#ACE3FC;" d="M282.001,197c-5.186,0-10.225-2.681-13.008-7.5c-4.146-7.178-1.685-16.348,5.493-20.493
						l52.958-30c7.119-4.146,16.333-1.714,20.493,5.493c4.146,7.178,1.685,16.348-5.493,20.493l-52.958,30
						C287.128,196.355,284.55,197,282.001,197z"/>
				</g>
			</g>
			<g>
				<g>
					<path style="fill:#CCEFFF;" d="M164.062,249.5c-4.145-7.178-1.685-16.348,5.493-20.493l52.958-30
						c7.119-4.131,16.348-1.685,20.493,5.493s1.685,16.348-5.493,20.493l-52.958,30C177.486,259.077,168.251,256.753,164.062,249.5z
						"/>
				</g>
			</g>
			<g>
				<g>
					<path style="fill:#CCEFFF;" d="M229.999,197c-2.549,0-5.127-0.645-7.485-2.007l-52.958-30
						c-7.178-4.146-9.639-13.315-5.493-20.493c4.146-7.207,13.33-9.639,20.493-5.493l52.958,30
						c7.178,4.146,9.639,13.315,5.493,20.493C240.224,194.319,235.185,197,229.999,197z"/>
				</g>
			</g>
			<g>
				<g>
					<path style="fill:#ACE3FC;" d="M327.444,254.993l-52.958-30c-7.178-4.146-9.639-13.315-5.493-20.493
						c4.131-7.178,13.315-9.624,20.493-5.493l52.958,30c7.178,4.146,9.639,13.315,5.493,20.493
						C343.749,256.753,334.514,259.077,327.444,254.993z"/>
				</g>
			</g>
			<path style="fill:#ACE3FC;" d="M271,107v60c0,8.399-6.599,15-15,15V92C264.401,92,271,98.599,271,107z"/>
			<path style="fill:#ACE3FC;" d="M271,227v60c0,8.399-6.599,15-15,15v-90C264.401,212,271,218.599,271,227z"/>
			<g>
				<g>
					<path style="fill:#DCF4FF;" d="M256,152c-24.901,0-45,20.099-45,45c0,24.899,20.099,45,45,45s45-20.101,45-45
						C301,172.099,280.901,152,256,152z"/>
				</g>
			</g>
			<path style="fill:#CCEFFF;" d="M301,197c0,24.899-20.099,45-45,45v-90C280.901,152,301,172.099,301,197z"/>
		</g>
		<path style="fill:#FEA832;" d="M4.124,485.199c0.163,0.363,0.507,0.668,0.681,1.029l50.916-8.738l95.224-95.224l4.761-32.15
			L15,227l-10.946-9.573c-0.621,0.773-1.212,1.558-1.705,2.38c-0.266,0.432-0.59,0.828-0.811,1.28
			c-0.828,1.714-1.377,3.532-1.426,5.535C0.108,226.758,0,226.863,0,227c0,90.917,0,148.647,0,240
			c0,5.147,1.219,10.025,2.899,14.775C3.312,482.916,3.627,484.1,4.124,485.199z"/>
	</g>
	<path style="fill:#FE9923;" d="M507.876,485.199c-0.163,0.363-0.507,0.668-0.681,1.029l-50.916-8.738l-95.224-95.224l-4.761-32.15
		L497,227l10.946-9.573c0.621,0.773,1.212,1.558,1.705,2.38c0.266,0.432,0.59,0.828,0.811,1.28c0.828,1.714,1.377,3.532,1.426,5.535
		c0.004,0.135,0.112,0.24,0.112,0.377c0,90.917,0,148.647,0,240c0,5.147-1.219,10.025-2.899,14.775
		C508.688,482.916,508.373,484.1,507.876,485.199z"/>
	<path style="fill:#FEDB41;" d="M507.195,486.228c0.033-0.07,0.088-0.134,0.132-0.2L364.21,343.19L256,436.996L147.79,343.19
		L4.673,486.028c0.044,0.066,0.099,0.13,0.132,0.2c0,0-0.214,0.048-0.249,0.055C12.372,502.722,28.83,512,45,512h124.281h173.438
		H467c16.17,0,32.628-9.278,40.444-25.717C507.41,486.276,507.195,486.228,507.195,486.228z"/>
	<path style="fill:#FCBF29;" d="M342.719,512H467c16.17,0,32.628-9.278,40.444-25.717c-0.035-0.007-0.249-0.055-0.249-0.055
		c0.033-0.07,0.088-0.134,0.132-0.2L364.21,343.19L256,436.996V512H342.719z"/>
</g>
<g>
</g>
<g>
</g>
<g>
</g>
<g>
</g>
<g>
</g>
<g>
</g>
<g>
</g>
<g>
</g>
<g>
</g>
<g>
</g>
<g>
</g>
<g>
</g>
<g>
</g>
<g>
</g>
<g>
</g>
</svg>
