<?xml version="1.0" encoding="iso-8859-1"?>
<!-- Generator: Adobe Illustrator 19.0.0, SVG Export Plug-In . SVG Version: 6.00 Build 0)  -->
<svg version="1.1" id="Layer_1" xmlns="http://www.w3.org/2000/svg" xmlns:xlink="http://www.w3.org/1999/xlink" x="0px" y="0px"
	 viewBox="0 0 512.001 512.001" style="enable-background:new 0 0 512.001 512.001;" xml:space="preserve">
<g>
	<g>
		<g>
			<path style="fill:#42E842;" d="M511.234,414.245c-2.46-26.11-16.27-49.55-37.91-64.3c-104.46-71.24-216.35-180.75-294-286.9
				c-6.01-8.21-11.81-16.41-17.39-24.56c-14.78-21.6-38.22-35.37-64.29-37.8c-26.28-2.36-52.46,6.98-71.37,25.9
				c-18.91,18.91-28.35,44.94-25.89,71.41c2.44,26.04,16.21,49.46,37.8,64.24c16.93,11.59,34.03,24.14,51.14,37.5
				c30.33,23.66,60.65,49.84,90,77.54c64.85,61.21,124.94,129.92,169.84,195.67c14.96,21.9,38.67,35.87,65.1,38.33
				c2.78,0.27,5.58,0.4,8.35,0.4c23.47,0,45.97-9.24,62.74-26.02C504.274,466.735,513.714,440.705,511.234,414.245z"/>
		</g>
		<path style="fill:#0CA656;" d="M256.004,156.872v198.794c34.91,38.692,66.678,78.5,93.16,117.279
			c14.96,21.9,38.67,35.87,65.1,38.33c2.78,0.27,5.58,0.4,8.35,0.4c23.47,0,45.97-9.24,62.74-26.02
			c18.92-18.92,28.36-44.95,25.88-71.41c-2.46-26.11-16.27-49.55-37.91-64.3C399.707,299.74,322.416,230.521,256.004,156.872z"/>
		<path style="fill:#FD003A;" d="M179.324,62.485v214.79c-29.35-27.7-59.67-53.88-90-77.54V0.845c2.78-0.01,5.52-0.41,8.32-0.16
			c26.07,2.43,49.51,16.2,64.29,37.8C167.384,46.465,173.474,54.485,179.324,62.485z"/>
	</g>
	<g>
		<g>
			<path style="fill:#32D736;" d="M485.734,26.585c-18.91-18.92-45.09-28.26-71.37-25.9c-26.07,2.43-49.51,16.2-64.29,37.8
				c-5.58,8.15-11.38,16.35-17.39,24.56c-77.65,106.15-189.54,215.66-294,286.9c-21.64,14.75-35.45,38.19-37.91,64.3
				c-2.48,26.46,6.96,52.49,25.88,71.41c16.77,16.78,39.27,26.02,62.74,26.02c2.77,0,5.57-0.13,8.35-0.4
				c26.43-2.46,50.14-16.43,65.1-38.33c44.9-65.75,104.99-134.46,169.84-195.67c29.35-27.7,59.67-53.88,90-77.54
				c17.11-13.36,34.21-25.91,51.14-37.5c21.59-14.78,35.36-38.2,37.79-64.24C514.084,71.525,504.644,45.495,485.734,26.585z"/>
		</g>
		<path style="fill:#10BB67;" d="M256.004,156.872v198.794c24.28-26.911,50.078-53.282,76.68-78.391
			c29.35-27.7,59.67-53.88,90-77.54c17.11-13.36,34.21-25.91,51.14-37.5c21.59-14.78,35.36-38.2,37.79-64.24
			c2.47-26.47-6.97-52.5-25.88-71.41c-18.91-18.92-45.09-28.26-71.37-25.9c-26.07,2.43-49.51,16.2-64.29,37.8
			c-5.58,8.15-11.38,16.35-17.39,24.56C309.757,94.387,283.829,126.016,256.004,156.872z"/>
		<path style="fill:#E50027;" d="M422.684,0.845v198.89c-30.33,23.66-60.65,49.84-90,77.54V62.485c5.85-8,11.94-16.02,17.39-24
			c14.78-21.6,38.22-35.37,64.29-37.8C417.164,0.435,419.904,0.835,422.684,0.845z"/>
	</g>
	<g>
		<g>
			<path style="fill:#CCEFFF;" d="M196.688,330.627c-3.838,0-7.676-1.465-10.605-4.395c-5.859-5.859-5.859-15.352,0-21.211l60-60
				c5.859-5.859,15.352-5.859,21.211,0s5.859,15.352,0,21.211l-60,60C204.364,329.162,200.526,330.627,196.688,330.627z"/>
		</g>
	</g>
</g>
<g>
</g>
<g>
</g>
<g>
</g>
<g>
</g>
<g>
</g>
<g>
</g>
<g>
</g>
<g>
</g>
<g>
</g>
<g>
</g>
<g>
</g>
<g>
</g>
<g>
</g>
<g>
</g>
<g>
</g>
</svg>
