<?xml version="1.0" encoding="iso-8859-1"?>
<!-- Generator: Adobe Illustrator 19.0.0, SVG Export Plug-In . SVG Version: 6.00 Build 0)  -->
<svg version="1.1" id="Layer_1" xmlns="http://www.w3.org/2000/svg" xmlns:xlink="http://www.w3.org/1999/xlink" x="0px" y="0px"
	 viewBox="0 0 512.038 512.038" style="enable-background:new 0 0 512.038 512.038;" xml:space="preserve">
<g>
	<path style="fill:#C1001F;" d="M480.96,103.676L376.019,255.038l45,196h76c4.219,0,8.232-1.772,11.074-4.878
		c2.842-3.12,4.248-7.28,3.867-11.484L480.96,103.676z"/>
	<path style="fill:#E50027;" d="M31.078,103.676l-31,331c-0.381,4.204,1.025,8.364,3.867,11.484
		c2.842,3.105,6.855,4.878,11.074,4.878h76l61.421-211L31.078,103.676z"/>
	<path style="fill:#FD003A;" d="M478.618,113.437c-37.8,56.4-57.599,122.1-57.599,189.901v193.7c0,8.399-6.599,15-15,15h-300
		c-8.401,0-15-6.601-15-15v-193.7c0-67.8-19.799-133.5-57.599-189.901c-4.2-6.599-2.701-15.599,3.6-20.4l92.999-69.901l21,121.201
		l30,50.7h150l30-50.7L382.32,23.437l92.699,69.6C481.319,97.838,482.819,106.838,478.618,113.437z"/>
	<path style="fill:#E50027;" d="M478.618,113.437c-37.8,56.4-57.599,122.1-57.599,189.901v193.7c0,8.399-6.599,15-15,15h-150v-317
		h75l30-50.7L382.32,23.437l92.699,69.6C481.319,97.838,482.819,106.838,478.618,113.437z"/>
	<polygon points="176.407,0.022 176.399,0.038 176.414,0.038 	"/>
	<polygon points="256.012,270.036 256.019,270.038 256.026,270.036 256.019,270.034 	"/>
	<polygon points="335.619,0.038 335.619,0.038 335.619,0.04 	"/>
	<path d="M263.651,267.727c-2.3,1.381-4.83,2.243-7.493,2.272c-0.042,0-0.082,0.038-0.125,0.038"/>
	<polygon style="fill:#ACE3FC;" points="353.819,37.238 345.118,60.038 304.018,90.038 208.02,90.038 166.92,60.038 158.219,37.238 
		176.518,0.038 335.52,0.038 	"/>
	<polygon style="fill:#81C8EE;" points="353.819,37.238 345.118,60.038 304.018,90.038 256.019,90.038 256.019,0.038 335.52,0.038 	
		"/>
	<path style="fill:#C1001F;" d="M421.019,360.038h-75c-8.284,0-15,6.714-15,15c0,8.284,6.716,15,15,15h75V360.038z"/>
	<path style="fill:#E50027;" d="M166.019,360.038h-75v30h75c8.284,0,15-6.716,15-15
		C181.019,366.753,174.303,360.038,166.019,360.038z"/>
	<polygon style="fill:#E50027;" points="345.118,60.038 286.319,216.637 256.019,237.037 225.719,216.637 166.92,60.038 	"/>
	<polygon style="fill:#C1001F;" points="345.118,60.038 286.319,216.637 256.019,237.037 256.019,60.038 	"/>
	<path style="fill:#CCEFFF;" d="M420.418,108.938c-0.899,4.199-3.9,7.5-7.8,9.6l-51.599,25.8v50.7c0,5.099-2.401,9.6-6.599,12.599
		l-90,60c-2.401,1.5-6.601,2.401-8.101,2.401h-0.3c-0.601,0.3-5.7-0.601-8.401-2.401l-90-60c-4.199-2.999-6.599-7.5-6.599-12.599
		v-50.7l-51.599-25.8c-3.9-2.1-6.901-5.402-7.8-9.6c-1.201-4.2-0.601-8.701,1.8-12.301l36.599-73.5l18.001-13.2
		c12.299-9.3,11.699-9.899,22.2-9.899h6.299l79.501,212.399L335.52,0.038c17.098,0,13.799-1.201,28.499,9.899l18.301,13.5
		l36.299,73.2C421.019,100.237,421.62,104.738,420.418,108.938z"/>
	<path style="fill:#ACE3FC;" d="M420.418,108.938c-0.899,4.199-3.9,7.5-7.8,9.6l-51.599,25.8v50.7c0,5.099-2.401,9.6-6.599,12.599
		l-90,60c-2.401,1.5-6.601,2.401-8.101,2.401h-0.3v-57.601L335.52,0.038c17.098,0,13.799-1.201,28.499,9.899l18.301,13.5
		l36.299,73.2C421.019,100.237,421.62,104.738,420.418,108.938z"/>
</g>
<g>
</g>
<g>
</g>
<g>
</g>
<g>
</g>
<g>
</g>
<g>
</g>
<g>
</g>
<g>
</g>
<g>
</g>
<g>
</g>
<g>
</g>
<g>
</g>
<g>
</g>
<g>
</g>
<g>
</g>
</svg>
