<?xml version="1.0" encoding="iso-8859-1"?>
<!-- Generator: Adobe Illustrator 19.0.0, SVG Export Plug-In . SVG Version: 6.00 Build 0)  -->
<svg version="1.1" id="Layer_1" xmlns="http://www.w3.org/2000/svg" xmlns:xlink="http://www.w3.org/1999/xlink" x="0px" y="0px"
	 viewBox="0 0 513.489 513.489" style="enable-background:new 0 0 513.489 513.489;" xml:space="preserve">
<g>
	<g>
		<g>
			<path style="fill:#FD003A;" d="M499.39,13.869c-8.701-8.099-20.402-13.2-33.001-13.2H296.59c-12.001,0-23.101,4.801-31.8,13.2
				c-89.702,91.8-163.819,161.719-253.519,253.519c-17.701,17.401-13.282,50.319,4.418,68.018l82.143,82.143l82.258,82.258
				c17.701,17.699,46.499,17.099,63.899-0.299c91.8-89.7,162.7-162.537,254.2-252.237c8.701-8.401,15.3-19.801,15.3-31.8V45.669
				C513.489,33.37,507.789,22.27,499.39,13.869z M443.289,132.369c-8.699,9-20.099,13.2-31.8,13.2
				c-11.4,0-21.139-2.839-30.138-11.539l0,0c-17.399-17.401-19.06-47.561-1.661-65.261c17.701-17.401,46.201-17.401,63.6,0
				c0.3,0.3,0.3,0.3,0.601,0.601C460.989,87.069,460.689,115.269,443.289,132.369z"/>
		</g>
		<path style="fill:#E50027;" d="M513.489,45.669V215.47c0,11.999-6.599,23.399-15.3,31.8c-91.5,89.7-162.4,162.537-254.2,252.237
			c-17.401,17.399-46.198,17.998-63.899,0.299l-82.258-82.258L381.35,134.031c9,8.699,18.738,11.539,30.138,11.539
			c11.7,0,23.101-4.2,31.8-13.2c17.401-17.1,17.701-45.3,0.601-62.999l55.501-55.501C507.789,22.27,513.489,33.37,513.489,45.669z"
			/>
	</g>
	<g>
		<g>
			<g>
				<path style="fill:#CCEFFF;" d="M200.902,291.104c-1.289,0-2.593-0.161-3.896-0.513l-57.964-15.527
					c-7.998-2.139-12.744-10.371-10.605-18.369c2.139-7.983,10.415-12.715,18.369-10.605l57.964,15.527
					c7.998,2.139,12.744,10.371,10.605,18.369C213.588,286.68,207.524,291.104,200.902,291.104z"/>
			</g>
		</g>
		<g>
			<g>
				<path style="fill:#CCEFFF;" d="M222.084,269.893c-6.621,0-12.686-4.409-14.473-11.118l-15.527-57.949
					c-2.139-7.998,2.607-16.23,10.605-18.369c8.057-2.139,16.23,2.593,18.369,10.605l15.527,57.949
					c2.139,7.998-2.607,16.23-10.605,18.369C224.677,269.732,223.373,269.893,222.084,269.893z"/>
			</g>
		</g>
		<g>
			<g>
				<path style="fill:#CCEFFF;" d="M242.21,267.719c-3.316-5.731-2.537-13.188,2.375-18.095l42.382-42.461
					c5.852-5.857,15.354-5.871,21.211-0.02c5.886,5.902,5.884,15.347,0.02,21.211l-42.382,42.461
					c-5.852,5.857-15.354,5.871-21.211,0.02C243.648,269.883,242.855,268.835,242.21,267.719z"/>
			</g>
		</g>
		<g>
			<g>
				<path style="fill:#CCEFFF;" d="M151.29,358.639c-3.316-5.731-2.537-13.188,2.375-18.095l42.382-42.461
					c5.852-5.857,15.354-5.871,21.211-0.02c5.886,5.902,5.884,15.347,0.02,21.211l-42.382,42.461
					c-5.852,5.857-15.354,5.871-21.211,0.02C152.728,360.802,151.936,359.755,151.29,358.639z"/>
			</g>
		</g>
		<path style="fill:#CCEFFF;" d="M262.589,253.206c-0.3-0.3-0.599-0.899-0.899-1.199c-17.701-17.401-46.201-17.401-63.6,0
			c-17.701,17.699-17.701,46.199,0,63.6c0.3,0.3,0.599,0.601,0.899,0.899c8.701,8.401,19.801,12.301,30.901,12.301
			c11.4,0,23.099-4.2,31.8-13.2C278.79,298.507,279.089,270.907,262.589,253.206z"/>
	</g>
	<g>
		<g>
			<path style="fill:#ACE3FC;" d="M311.501,320.242L253.537,304.7c-7.998-2.139-12.759-10.371-10.605-18.369
				c2.153-8.013,10.371-12.759,18.369-10.605l57.964,15.542c7.998,2.139,12.759,10.371,10.605,18.369
				C327.707,317.69,319.447,322.385,311.501,320.242z"/>
		</g>
	</g>
	<path style="fill:#ACE3FC;" d="M266.223,365.506l-11.767-43.916c2.571-1.687,5.002-3.675,7.234-5.983
		c2.224-2.224,4.157-4.628,5.812-7.162l43.999,11.797c7.946,2.143,16.206-2.552,18.369-10.605
		c2.153-7.998-2.607-16.231-10.605-18.369l-44.786-12.009c-0.491-4.619-1.688-9.183-3.604-13.511l37.324-37.393
		c5.855-5.854,5.865-15.275,0.008-21.18L153.657,361.724c0.01,0.01,0.019,0.021,0.029,0.031c5.857,5.852,15.359,5.837,21.211-0.02
		l36.675-36.744c4.385,1.943,9.013,3.122,13.702,3.587l11.975,44.692c2.141,8.037,10.412,12.751,18.369,10.605
		C263.615,381.736,268.361,373.504,266.223,365.506z"/>
</g>
<g>
</g>
<g>
</g>
<g>
</g>
<g>
</g>
<g>
</g>
<g>
</g>
<g>
</g>
<g>
</g>
<g>
</g>
<g>
</g>
<g>
</g>
<g>
</g>
<g>
</g>
<g>
</g>
<g>
</g>
</svg>
