<?xml version="1.0" encoding="iso-8859-1"?>
<!-- Generator: Adobe Illustrator 19.0.0, SVG Export Plug-In . SVG Version: 6.00 Build 0)  -->
<svg version="1.1" id="Layer_1" xmlns="http://www.w3.org/2000/svg" xmlns:xlink="http://www.w3.org/1999/xlink" x="0px" y="0px"
	 viewBox="0 0 511.901 511.901" style="enable-background:new 0 0 511.901 511.901;" xml:space="preserve">
<g>
	<path style="fill:#FD003A;" d="M345.951,195.901v241c0,8.399-6.599,15-15,15h-180c-8.401,0-15-6.601-15-15v-241
		c0-8.401,6.599-15,15-15h180C339.352,180.901,345.951,187.5,345.951,195.901z"/>
	<path style="fill:#E50027;" d="M345.951,195.901v241c0,8.399-6.599,15-15,15h-90v-271h90
		C339.352,180.901,345.951,187.5,345.951,195.901z"/>
	<path style="fill:#FEA832;" d="M330.951,120.901h-180c-24.901,0-45,20.099-45,45c0,24.899,20.099,45,45,45h45v15
		c0,24.899,20.099,45,45,45c5.7,0,11.4-1.201,16.5-3.3c5.4,19.199,22.8,33.3,43.5,33.3c24.901,0,45-20.101,45-45V208.2
		c17.401-6,30-22.8,30-42.299C375.951,141.001,355.851,120.901,330.951,120.901z"/>
	<path style="fill:#FE9923;" d="M375.951,165.901c0,19.499-12.599,36.299-30,42.299v47.701c0,24.899-20.099,45-45,45
		c-20.7,0-38.101-14.101-43.5-33.3c-5.099,2.098-10.8,3.3-16.5,3.3v-150h90C355.851,120.901,375.951,141.001,375.951,165.901z"/>
	<path style="fill:#32D736;" d="M433.85,429.101c-2.999-4.501-7.8-7.2-12.9-7.2h-360c-5.099,0-9.901,2.699-12.9,7.2
		c-2.701,4.2-2.701,9.901-0.601,14.399l30,60c2.701,5.101,7.8,8.401,13.5,8.401h300c5.7,0,10.8-3.3,13.5-8.401l30-60
		C436.551,439.001,436.551,433.301,433.85,429.101z"/>
	<path style="fill:#10BB67;" d="M434.451,443.5l-30,60c-2.701,5.101-7.8,8.401-13.5,8.401h-150v-90h180
		c5.099,0,9.901,2.699,12.9,7.2C436.551,433.301,436.551,439.001,434.451,443.5z"/>
	<path style="fill:#FEDB41;" d="M282.351,57.501l-28.2-50.599C251.45,2.401,246.35,0,240.951,0s-10.499,2.401-13.2,6.901l-29.099,53
		c-1.8,4.799-2.701,10.899-2.701,16c0,24.899,20.099,45,45,45s45-20.101,45-45C285.951,70.8,285.05,64.7,282.351,57.501z"/>
	<path style="fill:#FFCC33;" d="M285.951,75.901c0,24.899-20.099,45-45,45V0c5.4,0,10.499,2.401,13.2,6.901l28.2,50.599
		C285.05,64.7,285.951,70.8,285.951,75.901z"/>
	<g>
		<path style="fill:#CCEFFF;" d="M450.951,436.901c0,8.399-6.599,15-15,15h-405c-8.401,0-15-6.601-15-15c0-8.401,6.599-15,15-15h405
			C444.352,421.901,450.951,428.5,450.951,436.901z"/>
		<path style="fill:#ACE3FC;" d="M450.951,436.901c0,8.399-6.599,15-15,15h-195v-30h195
			C444.352,421.901,450.951,428.5,450.951,436.901z"/>
	</g>
	<path style="fill:#ACE3FC;" d="M435.951,331.901c-33.091,0-60,26.909-60,60s26.909,60,60,60s60-26.909,60-60
		S469.041,331.901,435.951,331.901z M435.951,421.901c-16.538,0-30-13.462-30-30s13.462-30,30-30s30,13.462,30,30
		S452.489,421.901,435.951,421.901z"/>
</g>
<g>
</g>
<g>
</g>
<g>
</g>
<g>
</g>
<g>
</g>
<g>
</g>
<g>
</g>
<g>
</g>
<g>
</g>
<g>
</g>
<g>
</g>
<g>
</g>
<g>
</g>
<g>
</g>
<g>
</g>
</svg>
