<?xml version="1.0" encoding="iso-8859-1"?>
<!-- Generator: Adobe Illustrator 19.0.0, SVG Export Plug-In . SVG Version: 6.00 Build 0)  -->
<svg version="1.1" id="Layer_1" xmlns="http://www.w3.org/2000/svg" xmlns:xlink="http://www.w3.org/1999/xlink" x="0px" y="0px"
	 viewBox="0 0 512 512" style="enable-background:new 0 0 512 512;" xml:space="preserve">
<g>
	<path style="fill:#BF6015;" d="M481,346v135c0,8.399-6.599,15-15,15H46c-8.401,0-15-6.601-15-15V346l45-30
		c24.901,0,45,20.099,45,45c0,8.399,6.599,15,15,15s15-6.601,15-15c0-24.901,20.099-45,45-45s45,20.099,45,45
		c0,8.399,6.599,15,15,15s15-6.601,15-15c0-24.901,20.099-45,45-45s45,20.099,45,45c0,8.399,6.599,15,15,15s15-6.601,15-15
		c0-24.901,20.099-45,45-45L481,346z"/>
	<path style="fill:#994C0F;" d="M451,166v135c0,8.399-6.599,15-15,15H76c-8.401,0-15-6.601-15-15V166l15-30
		c24.901,0,45,20.099,45,45c0,8.399,6.599,15,15,15s15-6.601,15-15c0-24.901,20.099-45,45-45s45,20.099,45,45
		c0,8.399,6.599,15,15,15s15-6.601,15-15c0-24.901,20.099-45,45-45s45,20.099,45,45c0,8.399,6.599,15,15,15s15-6.601,15-15
		c0-24.901,20.099-45,45-45L451,166z"/>
	<path style="fill:#FD003A;" d="M151,106h29.947c22.323,0,36.832-23.795,26.836-43.755L191.45,29.564
		C187.261,21.2,174.855,16,165.495,16s-20.808,5.2-24.997,13.564l-16.333,32.681C114.189,82.165,128.722,106,151,106z"/>
	<path style="fill:#FD003A;" d="M271,106h-30c-22.2,0-36.899-23.701-26.7-43.801L230.501,29.5c4.199-8.401,15.599-13.5,24.899-13.5
		c0.3,0,0.3,0,0.601,0c9.6,0.3,21.301,5.4,25.499,13.5L297.7,62.199C307.899,82.299,293.2,106,271,106z"/>
	<path style="fill:#E50027;" d="M331,106h29.947c22.323,0,36.832-23.795,26.836-43.755L371.45,29.564
		C367.261,21.2,354.855,16,345.495,16s-20.808,5.2-24.997,13.564l-16.333,32.681C294.189,82.165,308.722,106,331,106z"/>
	<path style="fill:#994C0F;" d="M481,346v135c0,8.399-6.599,15-15,15H256V376c8.401,0,15-6.601,15-15c0-24.901,20.099-45,45-45
		s45,20.099,45,45c0,8.399,6.599,15,15,15s15-6.601,15-15c0-24.901,20.099-45,45-45L481,346z"/>
	<path style="fill:#713708;" d="M451,166v135c0,8.399-6.599,15-15,15H256V196c8.401,0,15-6.601,15-15c0-24.901,20.099-45,45-45
		s45,20.099,45,45c0,8.399,6.599,15,15,15s15-6.601,15-15c0-24.901,20.099-45,45-45L451,166z"/>
	<path style="fill:#E50027;" d="M271,106h-15V16c9.6,0.3,21.301,5.4,25.499,13.5L297.7,62.199C307.899,82.299,293.2,106,271,106z"/>
	<path style="fill:#CCEFFF;" d="M481,331v9.3c0,0,0-25.8,0,5.7h-45c-8.401,0-15,6.599-15,15c0,24.899-20.099,45-45,45
		s-45-20.101-45-45c0-8.401-6.599-15-15-15s-15,6.599-15,15c0,24.899-20.099,45-45,45s-45-20.101-45-45c0-8.401-6.599-15-15-15
		s-15,6.599-15,15c0,24.899-20.099,45-45,45s-45-20.101-45-45c0-8.401-6.599-15-15-15H31v-15c0-24.901,20.099-45,45-45h360
		C460.901,286,481,306.099,481,331z"/>
	<path style="fill:#ACE3FC;" d="M481,331v9.3c0,0,0-25.8,0,5.7h-45c-8.401,0-15,6.599-15,15c0,24.899-20.099,45-45,45
		s-45-20.101-45-45c0-8.401-6.599-15-15-15s-15,6.599-15,15c0,24.899-20.099,45-45,45V286h180C460.901,286,481,306.099,481,331z"/>
	<path style="fill:#CCEFFF;" d="M451,151v15h-15c-8.401,0-15,6.599-15,15c0,24.899-20.099,45-45,45s-45-20.101-45-45
		c0-8.401-6.599-15-15-15s-15,6.599-15,15c0,24.899-20.099,45-45,45s-45-20.101-45-45c0-8.401-6.599-15-15-15s-15,6.599-15,15
		c0,24.899-20.099,45-45,45s-45-20.101-45-45c0-8.401-6.599-15-15-15H61v-15c0-24.901,20.099-45,45-45h300
		C430.901,106,451,126.099,451,151z"/>
	<path style="fill:#ACE3FC;" d="M451,151v15h-15c-8.401,0-15,6.599-15,15c0,24.899-20.099,45-45,45s-45-20.101-45-45
		c0-8.401-6.599-15-15-15s-15,6.599-15,15c0,24.899-20.099,45-45,45V106h150C430.901,106,451,126.099,451,151z"/>
	<path style="fill:#FEA832;" d="M512,481c0,8.399-6.599,15-15,15H15c-8.401,0-15-6.601-15-15c0-8.401,6.599-15,15-15h482
		C505.401,466,512,472.599,512,481z"/>
	<path style="fill:#FE9923;" d="M512,481c0,8.399-6.599,15-15,15H256v-30h241C505.401,466,512,472.599,512,481z"/>
</g>
<g>
</g>
<g>
</g>
<g>
</g>
<g>
</g>
<g>
</g>
<g>
</g>
<g>
</g>
<g>
</g>
<g>
</g>
<g>
</g>
<g>
</g>
<g>
</g>
<g>
</g>
<g>
</g>
<g>
</g>
</svg>
