<?xml version="1.0" encoding="iso-8859-1"?>
<!-- Generator: Adobe Illustrator 19.0.0, SVG Export Plug-In . SVG Version: 6.00 Build 0)  -->
<svg version="1.1" id="Layer_1" xmlns="http://www.w3.org/2000/svg" xmlns:xlink="http://www.w3.org/1999/xlink" x="0px" y="0px"
	 viewBox="0 0 512 512" style="enable-background:new 0 0 512 512;" xml:space="preserve">
<g>
	<path style="fill:#32D736;" d="M392,256.5c0,39.899-14.099,76.5-37.8,105H98.8C75.099,333,61,296.399,61,256.5
		c0-91.201,73.801-165,165-165S392,165.299,392,256.5z"/>
	<path style="fill:#10BB67;" d="M392,256.5c0,39.899-14.099,76.5-37.8,105H226v-270C317.199,91.5,392,165.299,392,256.5z"/>
	<path style="fill:#FE9923;" d="M347,481.5c-8.291,0-15-6.709-15-15v-60c0-8.291,6.709-15,15-15s15,6.709,15,15v60
		C362,474.791,355.291,481.5,347,481.5z"/>
	<path style="fill:#FEA832;" d="M166,481.5c-8.291,0-15-6.709-15-15v-60c0-8.291,6.709-15,15-15s15,6.709,15,15v60
		C181,474.791,174.291,481.5,166,481.5z"/>
	<path style="fill:#FEA832;" d="M512,376.5c0,57.9-47.1,105-105,105H15c-8.401,0-15-6.601-15-15c0-8.401,6.599-15,15-15h392
		c41.4,0,75-33.6,75-75c0-8.401,6.599-15,15-15S512,368.099,512,376.5z"/>
	<g>
		<path style="fill:#10BB67;" d="M283.1,180.899c-1.5,0.3-2.699,0.601-4.2,0.601c-6.299,0-12.299-4.2-14.399-10.8
			c-8.401-29.401-24.401-49.2-38.5-49.2s-29.099,19.799-37.5,49.2c-2.401,7.798-10.499,12.599-18.6,10.199
			s-12.599-10.499-10.201-18.6c12.601-44.399,37.5-70.8,66.301-70.8s54.699,26.4,67.301,70.8
			C295.699,170.4,291.2,178.499,283.1,180.899z"/>
	</g>
	<g>
		<path style="fill:#FD003A;" d="M512,256.5c0,8.399-6.599,15-15,15h-15c0,9-3.9,17.399-10.8,23.099
			c-12.601,9.901-19.2,21.901-19.2,34.501c0,51.899-39.6,92.401-90,92.401H133.299c-37.2,0-73.299-22.2-87.999-66.901
			c-10.501-31.5-20.4-41.398-28.2-48.898c-9-9.001-15.3-15-16.8-48.301C0,248.7,6.899,241.5,15.3,241.5H136
			c24.901,0,45,20.099,45,45v15c0,16.5,13.5,30,30,30h121c16.5,0,30-13.5,30-30v-15c0-24.901,20.099-45,45-45h90
			C505.401,241.5,512,248.099,512,256.5z"/>
	</g>
	<path style="fill:#0CA656;" d="M283.1,180.899c-1.5,0.3-2.699,0.601-4.2,0.601c-6.299,0-12.299-4.2-14.399-10.8
		c-8.401-29.401-24.401-49.2-38.5-49.2v-30c28.801,0,54.699,26.4,67.301,70.8C295.699,170.4,291.2,178.499,283.1,180.899z"/>
	<path style="fill:#E50027;" d="M512,256.5c0,8.399-6.599,15-15,15h-15c0,9-3.9,17.399-10.8,23.099
		c-12.601,9.901-19.2,21.901-19.2,34.501c0,51.899-39.6,92.401-90,92.401H226v-90h106c16.5,0,30-13.5,30-30v-15
		c0-24.901,20.099-45,45-45h90C505.401,241.5,512,248.099,512,256.5z"/>
	<path style="fill:#FE9923;" d="M512,376.5c0,57.9-47.1,105-105,105H226v-30h181c41.4,0,75-33.6,75-75c0-8.401,6.599-15,15-15
		S512,368.099,512,376.5z"/>
	<g>
		<g>
			<path style="fill:#10BB67;" d="M299.9,37.7c-2.999-4.501-7.8-7.2-12.9-7.2H166c-5.099,0-9.901,2.699-12.9,7.2
				c-2.701,4.2-2.701,9.901-0.601,14.399l30,61c2.701,5.101,7.8,8.401,13.5,8.401h61c5.7,0,10.8-3.3,13.5-8.401l30-61
				C302.601,47.6,302.601,41.9,299.9,37.7z"/>
		</g>
	</g>
	<path style="fill:#0CA656;" d="M300.5,52.099l-30,61c-2.701,5.101-7.8,8.401-13.5,8.401h-31v-91h61c5.099,0,9.901,2.699,12.9,7.2
		C302.601,41.9,302.601,47.6,300.5,52.099z"/>
</g>
<g>
</g>
<g>
</g>
<g>
</g>
<g>
</g>
<g>
</g>
<g>
</g>
<g>
</g>
<g>
</g>
<g>
</g>
<g>
</g>
<g>
</g>
<g>
</g>
<g>
</g>
<g>
</g>
<g>
</g>
</svg>
