<svg id="Lager_1" data-name="Lager 1" xmlns="http://www.w3.org/2000/svg" viewBox="0 0 511.9 511.9"><defs><style>.cls-1{fill:#3a3a3a;}.cls-2{fill:#232221;}.cls-3{fill:#fd003a;}.cls-4{fill:#e50027;}.cls-5{fill:#fedb41;}.cls-6{fill:#fc3;}.cls-7{fill:#fea832;}.cls-8{fill:#fe9923;}.cls-9{fill:#32d736;}.cls-10{fill:#10bb67;}.cls-11{fill:#ccefff;}.cls-12{fill:#ace3fc;}</style></defs><title>Rityta 1</title><path class="cls-1" d="M430.4,106.5h0a9.56,9.56,0,0,1-9.5-9.5V67a9.56,9.56,0,0,1,9.5-9.5h0a9.56,9.56,0,0,1,9.5,9.5V97A9.56,9.56,0,0,1,430.4,106.5Z"/><path class="cls-2" d="M430.4,57.5v49a9.56,9.56,0,0,0,9.5-9.5V67A9.56,9.56,0,0,0,430.4,57.5Z"/><path class="cls-3" d="M354.6,162.1V459.5a6.18,6.18,0,0,1-6,6.4H276.5a6.24,6.24,0,0,1-6-6.4V162.1a6.18,6.18,0,0,1,6-6.4h72.1A6.24,6.24,0,0,1,354.6,162.1Z"/><path class="cls-4" d="M354.6,162.1V459.5a6.18,6.18,0,0,1-6,6.4H312.5V155.7h36.1A6.24,6.24,0,0,1,354.6,162.1Z"/><path class="cls-5" d="M329.1,128.2l-11.3-20.3a6.42,6.42,0,0,0-10.6,0l-11.7,21.2a20,20,0,0,0-1.1,6.4,18,18,0,0,0,36,1.8A19.06,19.06,0,0,0,329.1,128.2Z"/><path class="cls-6" d="M330.6,135.6a18,18,0,0,1-18,18V105.2a6.08,6.08,0,0,1,5.3,2.8l11.3,20.3A22.1,22.1,0,0,1,330.6,135.6Z"/><path class="cls-3" d="M472.4,107.6v352a6.11,6.11,0,0,1-6,6.4H394.3a6.11,6.11,0,0,1-6-6.4v-352a6.11,6.11,0,0,1,6-6.4h72.1A6.11,6.11,0,0,1,472.4,107.6Z"/><path class="cls-4" d="M472.4,107.6v352a6.11,6.11,0,0,1-6,6.4H430.3V101.2h36.1A6.11,6.11,0,0,1,472.4,107.6Z"/><path class="cls-1" d="M312.4,106.5h0a9.56,9.56,0,0,1-9.5-9.5V67a9.56,9.56,0,0,1,9.5-9.5h0a9.56,9.56,0,0,1,9.5,9.5V97A9.56,9.56,0,0,1,312.4,106.5Z"/><path class="cls-2" d="M312.4,57.5v49a9.56,9.56,0,0,0,9.5-9.5V67A9.56,9.56,0,0,0,312.4,57.5Z"/><path class="cls-3" d="M354.4,107.6v352a6.11,6.11,0,0,1-6,6.4H276.3a6.11,6.11,0,0,1-6-6.4v-352a6.11,6.11,0,0,1,6-6.4h72.1A6.11,6.11,0,0,1,354.4,107.6Z"/><path class="cls-4" d="M354.4,107.6v352a6.11,6.11,0,0,1-6,6.4H312.3V101.2h36.1A6.11,6.11,0,0,1,354.4,107.6Z"/><path class="cls-3" d="M118.9,210.7V459.5a6.27,6.27,0,0,1-6,6.5H40.8a6.27,6.27,0,0,1-6-6.5V210.7a6.27,6.27,0,0,1,6-6.5h72.1A6.27,6.27,0,0,1,118.9,210.7Z"/><path class="cls-4" d="M118.9,210.7V459.5a6.27,6.27,0,0,1-6,6.5H76.8V204.2h36.1A6.27,6.27,0,0,1,118.9,210.7Z"/><path class="cls-7" d="M112.5,201.7H41.1c-9.1,0-17.6,7.4-18.4,16.5a18,18,0,0,0,18,19.6h18v6a17.9,17.9,0,0,0,24.6,16.7h0a18.16,18.16,0,0,0,20,13.2c9-1.2,15.5-9.2,15.5-18.3V236.7h0a18,18,0,0,0,11.7-20.3C129,207.8,121.2,201.7,112.5,201.7Z"/><path class="cls-5" d="M93.4,176.3h0L82.1,156a6.42,6.42,0,0,0-10.6,0L59.8,177.2h0a20,20,0,0,0-1.1,6.4,18,18,0,0,0,36,1.8A19.06,19.06,0,0,0,93.4,176.3Z"/><path class="cls-6" d="M94.8,183.7a18,18,0,0,1-18,18h0V153.2h0a6.08,6.08,0,0,1,5.3,2.8l11.3,20.3h0A20.63,20.63,0,0,1,94.8,183.7Z"/><path class="cls-3" d="M236.7,162.1V459.5a6.18,6.18,0,0,1-6,6.4H158.6a6.24,6.24,0,0,1-6-6.4V162.1a6.18,6.18,0,0,1,6-6.4h72.1A6.24,6.24,0,0,1,236.7,162.1Z"/><path class="cls-4" d="M236.7,162.1V459.5a6.18,6.18,0,0,1-6,6.4H194.6V155.7h36.1A6.24,6.24,0,0,1,236.7,162.1Z"/><path class="cls-7" d="M230.3,153.6H159c-9.1,0-17.6,7.4-18.4,16.5a18,18,0,0,0,18,19.6h18v6a17.9,17.9,0,0,0,24.6,16.7,18.16,18.16,0,0,0,20,13.2c9-1.2,15.5-9.2,15.5-18.3V188.6a18,18,0,0,0,11.7-20.3C246.9,159.7,239.1,153.6,230.3,153.6Z"/><path class="cls-8" d="M248.4,168.4a18,18,0,0,1-11.7,20.3v18.7a18.06,18.06,0,0,1-35.5,5.1,18,18,0,0,1-6.6,1.3V153.7h35.7A18,18,0,0,1,248.4,168.4Z"/><path class="cls-5" d="M211.2,128.2l-11.3-20.3a6.42,6.42,0,0,0-10.6,0l-11.7,21.2a20,20,0,0,0-1.1,6.4,18,18,0,0,0,36,1.8A19.06,19.06,0,0,0,211.2,128.2Z"/><path class="cls-6" d="M212.7,135.6a18,18,0,0,1-18,18V105.2A6.08,6.08,0,0,1,200,108l11.3,20.3A22.1,22.1,0,0,1,212.7,135.6Z"/><path class="cls-3" d="M236.7,162.1V459.5a6.18,6.18,0,0,1-6,6.4H158.6a6.24,6.24,0,0,1-6-6.4V162.1a6.18,6.18,0,0,1,6-6.4h72.1A6.24,6.24,0,0,1,236.7,162.1Z"/><path class="cls-4" d="M236.7,162.1V459.5a6.18,6.18,0,0,1-6,6.4H194.6V155.7h36.1A6.24,6.24,0,0,1,236.7,162.1Z"/><path class="cls-7" d="M230.3,153.6H159c-9.1,0-17.6,7.4-18.4,16.5a18,18,0,0,0,18,19.6h18v6a17.9,17.9,0,0,0,24.6,16.7,18.16,18.16,0,0,0,20,13.2c9-1.2,15.5-9.2,15.5-18.3V188.6a18,18,0,0,0,11.7-20.3C246.9,159.7,239.1,153.6,230.3,153.6Z"/><path class="cls-8" d="M248.4,168.4a18,18,0,0,1-11.7,20.3v18.7a18.06,18.06,0,0,1-35.5,5.1,18,18,0,0,1-6.6,1.3V153.7h35.7A18,18,0,0,1,248.4,168.4Z"/><path class="cls-5" d="M211.2,128.2l-11.3-20.3a6.42,6.42,0,0,0-10.6,0l-11.7,21.2a20,20,0,0,0-1.1,6.4,18,18,0,0,0,36,1.8A19.06,19.06,0,0,0,211.2,128.2Z"/><path class="cls-6" d="M212.7,135.6a18,18,0,0,1-18,18V105.2A6.08,6.08,0,0,1,200,108l11.3,20.3A22.1,22.1,0,0,1,212.7,135.6Z"/><g id="Lager_2" data-name="Lager 2"><path class="cls-9" d="M499.3,458.5c-1.2-2.8-3.1-4.5-5.2-4.5H23.4c-2,0-4,1.7-5.2,4.5a14.14,14.14,0,0,0-.2,9.1l12,37.8c1.1,3.2,3.1,5.3,5.4,5.3H482c2.3,0,4.3-2.1,5.4-5.3l12-37.8A14.87,14.87,0,0,0,499.3,458.5Z"/><path class="cls-10" d="M499.5,467.6l-12,37.8c-1.1,3.2-3.1,5.3-5.4,5.3H255.5V454H494.1c2,0,4,1.7,5.2,4.5A15.64,15.64,0,0,1,499.5,467.6Z"/><path class="cls-11" d="M506.1,459.8c0,5.7-5.6,10.1-9,10.1H13.4c-3.4,0-8-4.4-8-10.1s4.6-10.1,8-10.1H497.1C500.5,449.7,506.1,454.1,506.1,459.8Z"/><path class="cls-12" d="M506.1,459.8c0,5.7-5.6,10.1-9,10.1H255.5V449.7H497.1C500.5,449.7,506.1,454.1,506.1,459.8Z"/></g></svg>