<?xml version="1.0" encoding="iso-8859-1"?>
<!-- Generator: Adobe Illustrator 19.0.0, SVG Export Plug-In . SVG Version: 6.00 Build 0)  -->
<svg version="1.1" id="Layer_1" xmlns="http://www.w3.org/2000/svg" xmlns:xlink="http://www.w3.org/1999/xlink" x="0px" y="0px"
	 viewBox="0 0 512.026 512.026" style="enable-background:new 0 0 512.026 512.026;" xml:space="preserve">
<g>
	<polygon style="fill:#FD003A;" points="482.013,413.325 482.013,482.026 30.013,482.026 30.013,321.026 30.013,278.725 
		30.013,210.026 482.013,210.026 482.013,369.026 	"/>
	<polygon style="fill:#E50027;" points="482.013,413.325 482.013,482.026 256.013,482.026 256.013,210.026 482.013,210.026 
		482.013,369.026 	"/>
	<path style="fill:#994C0F;" d="M413.912,28.526l-157.899,79.799l-116.201,58.801c-2.399,1.199-4.499,1.8-6.899,1.8
		c-5.4,0-10.8-3.001-13.5-8.101c-3.6-7.5-0.599-16.5,6.601-20.4l130-66l144.101-72.9c7.5-3.6,16.5-0.601,20.4,6.599
		C424.113,15.625,421.112,24.626,413.912,28.526z"/>
	<path style="fill:#C85F03;" d="M392.614,160.825c-2.701,5.099-8.101,8.101-13.5,8.101c-2.401,0-4.501-0.601-6.899-1.8
		l-116.201-58.801L98.114,28.526c-7.2-3.9-10.201-12.902-6.601-20.402c3.9-7.2,12.9-10.199,20.4-6.599l144.101,72.9l130,66
		C393.212,144.326,396.213,153.325,392.614,160.825z"/>
	<circle style="fill:#FE9923;" cx="377.013" cy="315.026" r="15"/>
	<circle style="fill:#FEA832;" cx="135.013" cy="315.026" r="15"/>
	<circle style="fill:#FE9923;" cx="317.013" cy="375.026" r="15"/>
	<circle style="fill:#FE9923;" cx="437.013" cy="375.026" r="15"/>
	<circle style="fill:#FEA832;" cx="195.013" cy="375.026" r="15"/>
	<path style="fill:#FE9923;" d="M407.013,210.026c-24.814,0-45-20.186-45-45s20.186-45,45-45s45,20.186,45,45
		S431.827,210.026,407.013,210.026z"/>
	<path style="fill:#FEA832;" d="M105.013,210.026c-24.814,0-45-20.186-45-45s20.186-45,45-45s45,20.186,45,45
		S129.827,210.026,105.013,210.026z"/>
	<path style="fill:#FEDB41;" d="M512.013,482.026c0,16.5-13.5,30-30,30h-452c-16.5,0-30-13.5-30-30s13.5-30,30-30h452
		C498.513,452.026,512.013,465.526,512.013,482.026z"/>
	<path style="fill:#FCBF29;" d="M512.013,482.026c0,16.5-13.5,30-30,30h-226v-60h226
		C498.513,452.026,512.013,465.526,512.013,482.026z"/>
	<path style="fill:#FEDB41;" d="M512.013,210.026c0,16.5-13.5,30-30,30h-452c-16.5,0-30-13.5-30-30s13.5-30,30-30h452
		C498.513,180.026,512.013,193.526,512.013,210.026z"/>
	<path style="fill:#FCBF29;" d="M512.013,210.026c0,16.5-13.5,30-30,30h-226v-60h226
		C498.513,180.026,512.013,193.526,512.013,210.026z"/>
	<path style="fill:#FEA832;" d="M256.013,353.725l-50.501-49.2c-5.7-5.999-15.298-5.999-20.999,0l-19.501,19.501l-30,29.7
		l-49.501-49.2c-5.7-5.999-15.298-5.999-20.999,0l-34.501,34.2v42.301l45-44.702l49.501,49.2c5.7,6,15.298,6,20.999,0l19.501-19.499
		l30-29.702l50.501,49.2c2.851,2.999,6.674,4.501,10.499,4.501V353.725z"/>
	<path style="fill:#FE9923;" d="M256.013,353.725l50.501-49.2c5.7-5.999,15.298-5.999,20.999,0l19.501,19.501l30,29.7l49.501-49.2
		c5.7-5.999,15.298-5.999,20.999,0l34.501,34.2v42.301l-45-44.702l-49.501,49.2c-5.7,6-15.298,6-20.999,0l-19.501-19.499l-30-29.702
		l-50.501,49.2c-2.851,2.999-6.674,4.501-10.499,4.501V353.725z"/>
	<circle style="fill:#FEA832;" cx="256.013" cy="315.026" r="15"/>
	<path style="fill:#FE9923;" d="M271.013,315.026c0-8.286-6.716-15-15-15v30C264.297,330.026,271.013,323.31,271.013,315.026z"/>
</g>
<g>
</g>
<g>
</g>
<g>
</g>
<g>
</g>
<g>
</g>
<g>
</g>
<g>
</g>
<g>
</g>
<g>
</g>
<g>
</g>
<g>
</g>
<g>
</g>
<g>
</g>
<g>
</g>
<g>
</g>
</svg>
