<?xml version="1.0" encoding="iso-8859-1"?>
<!-- Generator: Adobe Illustrator 19.0.0, SVG Export Plug-In . SVG Version: 6.00 Build 0)  -->
<svg version="1.1" id="Layer_1" xmlns="http://www.w3.org/2000/svg" xmlns:xlink="http://www.w3.org/1999/xlink" x="0px" y="0px"
	 viewBox="0 0 512 512" style="enable-background:new 0 0 512 512;" xml:space="preserve">
<g>
	<path style="fill:#994C0F;" d="M439.5,297h-60c-8.291,0-15-6.709-15-15v-30c0-24.814,20.186-45,45-45h60c8.291,0,15,6.709,15,15v30
		C484.5,276.814,464.314,297,439.5,297z"/>
	<path style="fill:#713708;" d="M394.5,267v-15c0-8.276,6.724-15,15-15h45v15c0,8.276-6.724,15-15,15H394.5z"/>
	<path style="fill:#BF6015;" d="M132.5,300h-60c-24.814,0-45-20.186-45-45v-30c0-8.291,6.709-15,15-15h60c24.814,0,45,20.186,45,45
		v30C147.5,293.291,140.791,300,132.5,300z"/>
	<path style="fill:#994C0F;" d="M72.5,270c-8.276,0-15-6.724-15-15v-15h45c8.276,0,15,6.724,15,15v15H72.5z"/>
	<path style="fill:#713708;" d="M462.5,60c-8.291,0-15,6.709-15,15v30c0,8.276-6.724,15-15,15h-15V15c0-8.291-6.709-15-15-15
		s-15,6.709-15,15v45h-15c-8.276,0-15-6.724-15-15V15c0-8.291-6.709-15-15-15s-15,6.709-15,15v30c0,24.814,20.186,45,45,45h15v30
		h-45c-24.814,0-45,20.186-45,45v45.352c0,8.291,6.709,15,15,15s15-6.709,15-15V165c0-8.276,6.724-15,15-15h90
		c24.814,0,45-20.186,45-45V75C477.5,66.709,470.791,60,462.5,60z"/>
	<path style="fill:#994C0F;" d="M162.5,120h-45V90h15c24.814,0,45-20.186,45-45V15c0-8.291-6.709-15-15-15s-15,6.709-15,15v30
		c0,8.276-6.724,15-15,15h-15V15c0-8.291-6.709-15-15-15s-15,6.709-15,15v105h-15c-8.276,0-15-6.724-15-15V75
		c0-8.291-6.709-15-15-15s-15,6.709-15,15v30c0,24.814,20.186,45,45,45h90c8.276,0,15,6.724,15,15v45.352c0,8.291,6.709,15,15,15
		s15-6.709,15-15V165C207.5,140.186,187.314,120,162.5,120z"/>
	<path style="fill:#E4741B;" d="M385.7,292.2c-8.401-49.2-43.5-90.601-89.399-105.3C281.899,182.401,267.2,180,252.5,180
		s-29.399,2.401-43.801,6.899c-45.899,14.7-80.999,55.801-89.399,105c-5.4,31.8,0.3,62.1,16.5,90c6.301,11.1,10.8,24.3,13.5,40.801
		C157.401,472.5,201.8,512,252.5,512s95.099-39.5,103.2-89.299c2.701-16.501,7.2-30,13.5-40.801
		c12.299-20.999,18.6-43.499,18.6-66.899C387.8,307.5,386.899,300,385.7,292.2z"/>
	<path style="fill:#BF6015;" d="M387.8,315c0,23.401-6.301,45.901-18.6,66.899c-6.301,10.801-10.8,24.3-13.5,40.801
		C347.599,472.5,303.2,512,252.5,512V180c14.7,0,29.399,2.401,43.801,6.899c45.899,14.7,80.999,56.1,89.399,105.3
		C386.899,300,387.8,307.5,387.8,315z"/>
	<circle style="fill:#994C0F;" cx="192.5" cy="315" r="15"/>
	<circle style="fill:#713708;" cx="312.5" cy="315" r="15"/>
	<path style="fill:#994C0F;" d="M252.5,360c-24.901,0-45,20.099-45,45s20.099,45,45,45s45-20.099,45-45S277.401,360,252.5,360z"/>
	<path style="fill:#713708;" d="M297.5,405c0,24.901-20.099,45-45,45v-90C277.401,360,297.5,380.099,297.5,405z"/>
</g>
<g>
</g>
<g>
</g>
<g>
</g>
<g>
</g>
<g>
</g>
<g>
</g>
<g>
</g>
<g>
</g>
<g>
</g>
<g>
</g>
<g>
</g>
<g>
</g>
<g>
</g>
<g>
</g>
<g>
</g>
</svg>
