<?xml version="1.0" encoding="iso-8859-1"?>
<!-- Generator: Adobe Illustrator 19.0.0, SVG Export Plug-In . SVG Version: 6.00 Build 0)  -->
<svg version="1.1" id="Layer_1" xmlns="http://www.w3.org/2000/svg" xmlns:xlink="http://www.w3.org/1999/xlink" x="0px" y="0px"
	 viewBox="0 0 512.014 512.014" style="enable-background:new 0 0 512.014 512.014;" xml:space="preserve">
<g>
	<path style="fill:#FEDB41;" d="M426.707,302.014l-22.8,30h-295.8l-22.8-30c3.3-17.1,5.7-36.501,5.7-54.2v-22.8
		c0-26.7,6.599-53.401,18.9-76.8l50.4-36.301h191.4l50.4,36.301c12.301,23.399,18.9,50.099,18.9,76.8v22.8
		C421.007,265.513,423.407,284.914,426.707,302.014z"/>
	<path style="fill:#FFCC33;" d="M426.707,302.014l-22.8,30h-147.9V111.913h95.7l50.4,36.301c12.301,23.399,18.9,50.099,18.9,76.8
		v22.8C421.007,265.513,423.407,284.914,426.707,302.014z"/>
	<path style="fill:#FEA832;" d="M331.007,437.014c0,41.4-33.6,75-75,75s-75-33.6-75-75c0-8.401,6.599-15,15-15h120
		C324.408,422.014,331.007,428.613,331.007,437.014z"/>
	<path style="fill:#C1001F;" d="M399.664,6.767c-13.33-8.203-29.736-8.994-43.784-1.963l-76.582,38.291l4.585,89.121l71.997,36.006
		c14.01,7.021,30.393,6.299,43.784-1.963c13.359-8.262,21.343-22.573,21.343-38.291v-82.91
		C421.007,29.34,413.024,15.028,399.664,6.767z"/>
	<path style="fill:#E50027;" d="M156.134,4.804c-14.019-7.046-30.425-6.299-43.784,1.963S91.007,29.34,91.007,45.058v82.91
		c0,15.718,7.983,30.029,21.343,38.291c13.392,8.262,29.774,8.984,43.784,1.963l71.997-36.006l4.585-89.121L156.134,4.804z"/>
	<path style="fill:#FE9923;" d="M346.007,105.014h-45c-8.291,0-15-6.709-15-15s6.709-15,15-15h45c8.291,0,15,6.709,15,15
		S354.298,105.014,346.007,105.014z"/>
	<path style="fill:#FEA832;" d="M211.007,105.014h-45c-8.291,0-15-6.709-15-15s6.709-15,15-15h45c8.291,0,15,6.709,15,15
		S219.298,105.014,211.007,105.014z"/>
	<path style="fill:#FEA832;" d="M472.007,407.014h-431.7c25.201-35.4,37.8-68.701,45-105h341.4
		C433.907,338.014,446.506,371.614,472.007,407.014z"/>
	<path style="fill:#FE9923;" d="M472.007,407.014h-216v-105h170.7C433.907,338.014,446.506,371.614,472.007,407.014z"/>
	<path style="fill:#FE9923;" d="M331.007,437.014c0,41.4-33.6,75-75,75v-90h60C324.408,422.014,331.007,428.613,331.007,437.014z"/>
	<path style="fill:#FEDB41;" d="M481.007,422.014c0,16.5-13.5,30-30,30h-390c-16.5,0-30-13.5-30-30s13.5-30,30-30h390
		C467.507,392.014,481.007,405.514,481.007,422.014z"/>
	<path style="fill:#FFCC33;" d="M481.007,422.014c0,16.5-13.5,30-30,30h-195v-60h195
		C467.507,392.014,481.007,405.514,481.007,422.014z"/>
	<path style="fill:#FD003A;" d="M256.007,30.014c-32.999,0-60,27.001-60,60s27.001,60,60,60s60-27.001,60-60
		S289.006,30.014,256.007,30.014z"/>
	<path style="fill:#E50027;" d="M316.007,90.014c0,32.999-27.001,60-60,60v-120C289.006,30.014,316.007,57.015,316.007,90.014z"/>
</g>
<g>
</g>
<g>
</g>
<g>
</g>
<g>
</g>
<g>
</g>
<g>
</g>
<g>
</g>
<g>
</g>
<g>
</g>
<g>
</g>
<g>
</g>
<g>
</g>
<g>
</g>
<g>
</g>
<g>
</g>
</svg>
