<?xml version="1.0" encoding="iso-8859-1"?>
<!-- Generator: Adobe Illustrator 19.0.0, SVG Export Plug-In . SVG Version: 6.00 Build 0)  -->
<svg version="1.1" id="Layer_1" xmlns="http://www.w3.org/2000/svg" xmlns:xlink="http://www.w3.org/1999/xlink" x="0px" y="0px"
	 viewBox="0 0 512 512" style="enable-background:new 0 0 512 512;" xml:space="preserve">
<g>
	<g>
		<g>
			<path style="fill:#713708;" d="M255.999,512c-2.681,0-5.347-0.718-7.734-2.139c-2.563-1.553-63.618-38.569-108.838-93.311
				c-4.922-5.962-4.497-14.692,0.967-20.156l45-45c5.859-5.859,15.352-5.859,21.211,0l49.395,49.395l49.395-49.395
				c5.859-5.859,15.352-5.859,21.211,0l45,45c5.464,5.464,5.889,14.194,0.967,20.156c-45.22,54.741-106.274,91.758-108.838,93.311
				C261.346,511.282,258.68,512,255.999,512z"/>
		</g>
	</g>
	<path style="fill:#592800;" d="M263.733,509.861c2.563-1.553,63.618-38.569,108.838-93.311c4.922-5.962,4.497-14.692-0.967-20.156
		l-45-45c-5.859-5.859-15.352-5.859-21.211,0l-49.395,49.395V512C258.68,512,261.346,511.282,263.733,509.861z"/>
	<g>
		<path style="fill:#994C0F;" d="M255.999,437c-3.838,0-7.676-1.465-10.605-4.395l-49.395-49.395l-34.395,34.395
			c-2.988,2.988-7.236,4.717-11.323,4.38c-4.233-0.205-8.174-2.183-10.869-5.449C107.288,377.513,90.999,338.973,90.999,302
			c0-6.064,3.647-11.543,9.258-13.857c5.625-2.3,12.056-1.04,16.348,3.252l19.395,19.395l49.395-49.395
			c5.859-5.859,15.352-5.859,21.211,0l49.395,49.395l49.395-49.395c5.859-5.859,15.352-5.859,21.211,0l49.395,49.395l19.395-19.395
			c4.307-4.307,10.723-5.581,16.348-3.252c5.61,2.314,9.258,7.793,9.258,13.857c0,36.973-16.289,75.513-48.413,114.536
			c-2.695,3.267-6.636,5.244-10.869,5.449c-4.277,0.278-8.35-1.392-11.323-4.38l-34.395-34.395l-49.395,49.395
			C263.675,435.535,259.837,437,255.999,437z"/>
	</g>
	<path style="fill:#713708;" d="M266.605,432.605l49.395-49.395l34.395,34.395c2.974,2.988,7.046,4.658,11.323,4.38
		c4.233-0.205,8.174-2.183,10.869-5.449c32.124-39.023,48.413-77.563,48.413-114.536c0-6.064-3.647-11.543-9.258-13.857
		c-5.625-2.329-12.041-1.055-16.348,3.252l-19.395,19.395l-49.395-49.395c-5.859-5.859-15.352-5.859-21.211,0l-49.395,49.395V437
		C259.837,437,263.675,435.535,266.605,432.605z"/>
	<g>
		<g>
			<path style="fill:#C85F03;" d="M375.999,347c-3.838,0-7.676-1.465-10.605-4.395l-49.395-49.395l-49.395,49.395
				c-5.859,5.859-15.352,5.859-21.211,0l-49.395-49.395l-49.395,49.395c-5.859,5.859-15.352,5.859-21.211,0l-50.098-50.098
				c-9.551-9.551-14.531-22.529-13.667-35.61c0.659-9.199,1.992-18.149,3.955-26.675c2.813-13.14,6.958-25.796,12.627-38.467
				c2.021-4.497,6.123-7.72,10.986-8.613c4.761-0.894,9.844,0.659,13.315,4.146l33.486,33.501l49.395-49.395
				c5.859-5.859,15.352-5.859,21.211,0l49.395,49.395l49.395-49.395c5.859-5.859,15.352-5.859,21.211,0l49.395,49.395l33.472-33.486
				c3.486-3.486,8.452-5.054,13.301-4.175c4.834,0.879,8.95,4.087,10.986,8.569c9.39,20.742,14.985,42.964,16.597,66.035l0,0
				c0.923,12.715-3.853,25.283-13.066,34.482c-3.165,3.018-6.372,6.226-9.771,9.624c-3.56,3.56-7.295,7.31-11.118,10.972
				l-29.795,29.795C383.675,345.535,379.837,347,375.999,347z"/>
		</g>
	</g>
	<path style="fill:#994C0F;" d="M266.605,342.605l49.395-49.395l49.395,49.395c2.93,2.93,6.768,4.395,10.605,4.395
		s7.676-1.465,10.605-4.395l29.795-29.795c3.823-3.662,7.559-7.412,11.118-10.972c3.398-3.398,6.606-6.606,9.771-9.624
		c9.214-9.199,13.989-21.768,13.066-34.482c-1.611-23.071-7.207-45.293-16.597-66.035c-2.036-4.482-6.152-7.69-10.986-8.569
		c-4.849-0.879-9.814,0.688-13.301,4.175l-33.472,33.486l-49.395-49.395c-5.859-5.859-15.352-5.859-21.211,0l-49.395,49.395V347
		C259.837,347,263.675,345.535,266.605,342.605z"/>
	<g>
		<path style="fill:#994C0F;" d="M255.999,107c-8.291,0-15-6.709-15-15V15c0-8.291,6.709-15,15-15c8.291,0,15,6.709,15,15v77
			C270.999,100.291,264.29,107,255.999,107z"/>
	</g>
	<g>
		<path style="fill:#E4741B;" d="M375.999,257c-3.838,0-7.676-1.465-10.605-4.395l-49.395-49.395l-49.395,49.395
			c-5.859,5.859-15.352,5.859-21.211,0l-49.395-49.395l-49.395,49.395c-5.859,5.859-15.352,5.859-21.211,0L77.098,204.31
			c-17.095-17.095-18.442-44.165-3.135-62.974C120.75,84.31,195.823,77,255.999,77s135.249,7.31,182.007,64.277
			c15.059,18.618,13.667,46.26-3.105,63.032l-48.296,48.296C383.675,255.535,379.837,257,375.999,257z"/>
	</g>
	<path style="fill:#BF6015;" d="M266.605,252.605l49.395-49.395l49.395,49.395c2.93,2.93,6.768,4.395,10.605,4.395
		s7.676-1.465,10.605-4.395L434.9,204.31c16.772-16.772,18.164-44.414,3.105-63.032C391.248,84.31,316.175,77,255.999,77v180
		C259.837,257,263.675,255.535,266.605,252.605z"/>
</g>
<g>
</g>
<g>
</g>
<g>
</g>
<g>
</g>
<g>
</g>
<g>
</g>
<g>
</g>
<g>
</g>
<g>
</g>
<g>
</g>
<g>
</g>
<g>
</g>
<g>
</g>
<g>
</g>
<g>
</g>
</svg>
