<?xml version="1.0" encoding="iso-8859-1"?>
<!-- Generator: Adobe Illustrator 19.0.0, SVG Export Plug-In . SVG Version: 6.00 Build 0)  -->
<svg version="1.1" id="Layer_1" xmlns="http://www.w3.org/2000/svg" xmlns:xlink="http://www.w3.org/1999/xlink" x="0px" y="0px"
	 viewBox="0 0 512 512" style="enable-background:new 0 0 512 512;" xml:space="preserve">
<g>
	<g>
		<path style="fill:#FEA832;" d="M78.513,390.877l-68.52,28.214c-4.666,1.696-8.697,5.727-9.545,10.819
			c-1.273,5.09,0.212,10.394,3.818,14l63.64,63.64c3.606,3.606,9.123,5.303,14.212,4.031c4.88-1.06,9.123-4.879,10.607-9.757
			l28.214-68.52l5.303-15.91l-29.487-29.487L78.513,390.877z"/>
	</g>
	<path style="fill:#FE9923;" d="M110.333,401.483l15.91,15.91l-5.303,15.91l-28.214,68.52c-1.484,4.879-5.727,8.697-10.607,9.757
		c-5.09,1.273-10.607-0.425-14.212-4.031l-31.82-31.82L110.333,401.483z"/>
	<path style="fill:#FEDB41;" d="M453.375,58.625c25.456,25.456,43.911,57.913,57.699,100.126c1.697,4.668,1.06,9.546-1.91,13.366
		c-2.757,4.031-7.213,6.364-12.304,6.364H434.92c-2.121,0-4.243,0.423-6.577,0.637l-51.123-14.212l-29.911-29.911l-14.425-51.336
		c0.214-2.334,0.637-4.457,0.637-6.577V15.14c0-5.091,2.333-9.547,6.364-12.304c3.82-2.97,8.698-3.607,13.366-1.91
		C395.462,14.714,427.919,33.169,453.375,58.625z"/>
	<path style="fill:#FFCC33;" d="M453.375,58.625c25.456,25.456,43.911,57.913,57.699,100.126c1.697,4.668,1.06,9.546-1.91,13.366
		c-2.757,4.031-7.213,6.364-12.304,6.364H434.92c-2.121,0-4.243,0.423-6.577,0.637l-51.123-14.212l-15.062-15.062L453.375,58.625z"
		/>
	<path style="fill:#FEA832;" d="M389.311,122.689c14.425,14.425,26.092,31.607,39.032,56.428
		c-36.063,2.969-105.453,52.236-130.696,77.48l-45.821,3.395l-46.032,3.606l49.427-49.427
		c25.456-25.456,74.695-94.875,77.663-130.513C357.703,96.597,374.886,108.264,389.311,122.689z"/>
	<path style="fill:#FE9923;" d="M389.311,122.689c14.425,14.425,26.092,31.607,39.032,56.428
		c-36.063,2.969-105.453,52.236-130.696,77.48l-45.821,3.395L389.311,122.689z"/>
	<g>
		<path style="fill:#FEA832;" d="M216.425,295.443c-5.863,5.863-15.351,5.863-21.213,0l-42.426-42.426
			c-5.863-5.863-5.863-15.351,0-21.213c5.863-5.863,15.351-5.863,21.213,0l42.426,42.426
			C222.288,280.093,222.288,289.581,216.425,295.443z"/>
	</g>
	<g>
		<path style="fill:#FEA832;" d="M173.999,337.87c-5.863,5.863-15.351,5.863-21.213,0l-42.426-42.426
			c-5.863-5.863-5.863-15.351,0-21.213c5.863-5.863,15.351-5.863,21.213,0l42.426,42.426
			C179.861,322.519,179.861,332.007,173.999,337.87z"/>
	</g>
	<g>
		<path style="fill:#FEA832;" d="M131.572,380.296c-5.863,5.863-15.351,5.863-21.213,0L67.933,337.87
			c-5.863-5.863-5.863-15.351,0-21.213s15.351-5.863,21.213,0l42.426,42.426C137.435,364.946,137.435,374.434,131.572,380.296z"/>
	</g>
	<path style="fill:#FEDB41;" d="M274.311,237.506c-24.607-1.273-49.851,7.424-68.518,26.092L78.513,390.877l42.426,42.426
		l21.213-21.213l21.213,21.213c35.213,35.213,92.277,35.002,127.279,0l42.426-42.426c35.002-35.002,35.213-92.066,0-127.279
		C316.949,247.475,295.737,238.566,274.311,237.506z M290.645,348.45l-42.426,42.426c-11.667,11.667-30.759,11.667-42.426,0
		l-21.213-21.213l63.64-63.64c11.667-11.667,30.759-11.667,42.426,0C302.312,317.691,302.312,336.783,290.645,348.45z"/>
	<path style="fill:#FEDB41;" d="M195.186,231.778L67.907,359.057c-5.858,5.858-15.355,5.858-21.213,0h0
		c-5.858-5.858-5.858-15.355,0-21.213l127.279-127.279c5.858-5.858,15.355-5.858,21.213,0l0,0
		C201.044,216.422,201.044,225.92,195.186,231.778z"/>
	<path style="fill:#FFCC33;" d="M274.311,237.506L99.726,412.09l21.213,21.213l21.213-21.213l21.213,21.213
		c35.213,35.213,92.277,35.002,127.279,0l42.426-42.426c35.002-35.002,35.213-92.066,0-127.279
		C316.949,247.475,295.737,238.566,274.311,237.506z M290.645,348.45l-42.426,42.426c-11.667,11.667-30.759,11.667-42.426,0
		l-21.213-21.213l63.64-63.64c11.667-11.667,30.759-11.667,42.426,0C302.312,317.691,302.312,336.783,290.645,348.45z"/>
</g>
<g>
</g>
<g>
</g>
<g>
</g>
<g>
</g>
<g>
</g>
<g>
</g>
<g>
</g>
<g>
</g>
<g>
</g>
<g>
</g>
<g>
</g>
<g>
</g>
<g>
</g>
<g>
</g>
<g>
</g>
</svg>
