<?xml version="1.0" encoding="iso-8859-1"?>
<!-- Generator: Adobe Illustrator 19.0.0, SVG Export Plug-In . SVG Version: 6.00 Build 0)  -->
<svg version="1.1" id="Layer_1" xmlns="http://www.w3.org/2000/svg" xmlns:xlink="http://www.w3.org/1999/xlink" x="0px" y="0px"
	 viewBox="0 0 512.038 512.038" style="enable-background:new 0 0 512.038 512.038;" xml:space="preserve">
<g>
	<path style="fill:#10BB67;" d="M377.038,121.019c-8.291,0-15-6.709-15-15v-15c0-33.091-26.909-61-60-61s-60,27.909-60,61v15
		c0,8.291-7.709,15-16,15s-15-6.709-15-15v-15c0-49.629,41.371-91,91-91s90,41.371,90,91v15
		C392.038,114.31,385.329,121.019,377.038,121.019z"/>
	<g>
		<path style="fill:#FD003A;" d="M45.038,91.019c-7.8,0-14.399,6-15,13.799l-30,391c-0.3,4.2,1.199,8.401,3.9,11.4
			c2.999,3.001,6.899,4.801,11.1,4.801h377v-421H45.038z"/>
		<rect x="196.038" y="91.019" style="fill:#E50027;" width="196" height="421"/>
	</g>
	<path style="fill:#32D736;" d="M302.038,106.019v60c0,8.399-6.599,15-15,15s-15-6.601-15-15v-60c0-41.4-34.6-76-76-76
		s-76,34.6-76,76v60c0,8.399-6.599,15-15,15s-15-6.601-15-15v-60c0-57.9,48.1-106,106-106S302.038,48.119,302.038,106.019z"/>
	<g>
		<g>
			<g>
				<g>
					<path style="fill:#CCEFFF;" d="M211.038,346.019v61c0,8.399-6.599,15-15,15s-15-6.601-15-15v-61c0-8.401,6.599-15,15-15
						S211.038,337.618,211.038,346.019z"/>
				</g>
				<g>
					<path style="fill:#CCEFFF;" d="M211.038,226.019v60c0,8.399-6.599,15-15,15s-15-6.601-15-15v-60c0-8.401,6.599-15,15-15
						S211.038,217.618,211.038,226.019z"/>
				</g>
			</g>
		</g>
		<g>
			<g>
				<path style="fill:#ACE3FC;" d="M222.039,316.019c-5.186,0-10.225-2.681-13.008-7.5c-4.146-7.178-1.685-16.348,5.493-20.493
					l52.958-30c7.119-4.145,16.333-1.714,20.493,5.493c4.146,7.178,1.685,16.348-5.493,20.493l-52.958,30
					C227.166,315.374,224.588,316.019,222.039,316.019z"/>
			</g>
		</g>
		<g>
			<g>
				<path style="fill:#CCEFFF;" d="M104.1,368.519c-4.146-7.178-1.685-16.348,5.493-20.493l52.958-30
					c7.119-4.131,16.348-1.685,20.493,5.493s1.685,16.348-5.493,20.493l-52.958,30C117.524,378.096,108.289,375.772,104.1,368.519z"
					/>
			</g>
		</g>
		<g>
			<g>
				<path style="fill:#CCEFFF;" d="M170.037,316.019c-2.549,0-5.127-0.645-7.485-2.007l-52.958-30
					c-7.178-4.146-9.639-13.315-5.493-20.493c4.146-7.207,13.33-9.639,20.493-5.493l52.958,30
					c7.178,4.146,9.639,13.315,5.493,20.493C180.262,313.338,175.223,316.019,170.037,316.019z"/>
			</g>
		</g>
		<g>
			<g>
				<path style="fill:#ACE3FC;" d="M267.482,374.012l-52.958-30c-7.178-4.146-9.639-13.315-5.493-20.493
					c4.131-7.178,13.315-9.624,20.493-5.493l52.958,30c7.178,4.146,9.639,13.315,5.493,20.493
					C283.787,375.772,274.552,378.096,267.482,374.012z"/>
			</g>
		</g>
		<path style="fill:#ACE3FC;" d="M211.038,226.019v60c0,8.399-6.599,15-15,15v-90C204.439,211.019,211.038,217.618,211.038,226.019z
			"/>
		<path style="fill:#ACE3FC;" d="M211.038,346.019v61c0,8.399-6.599,15-15,15v-91C204.439,331.019,211.038,337.618,211.038,346.019z
			"/>
		<g>
			<path style="fill:#CCEFFF;" d="M196.038,271.019c-24.901,0-46,20.099-46,45c0,24.899,21.099,45,46,45s46-20.101,46-45
				C242.038,291.118,220.938,271.019,196.038,271.019z"/>
		</g>
		<path style="fill:#ACE3FC;" d="M242.038,316.019c0,24.899-21.099,45-46,45v-90C220.938,271.019,242.038,291.118,242.038,316.019z"
			/>
	</g>
	<path style="fill:#10BB67;" d="M302.038,106.019v60c0,8.399-6.599,15-15,15s-15-6.601-15-15v-60c0-41.4-34.6-76-76-76v-30
		C253.938,0.019,302.038,48.119,302.038,106.019z"/>
	<path style="fill:#E50027;" d="M482.038,91.019h-60l15,331l19.922,59.907l55.078,30.093
		C501.182,360.038,492.894,243,482.038,91.019z"/>
	<path style="fill:#FD003A;" d="M422.038,91.019h-60c0,151.981,0,269.019,0,421l47.829-21.396l27.171-68.604L422.038,91.019z"/>
	<polygon style="fill:#E50027;" points="512.038,512.019 362.038,512.019 437.038,422.019 	"/>
	<polygon style="fill:#C1001F;" points="512.038,512.019 437.038,512.019 437.038,422.019 	"/>
</g>
<g>
</g>
<g>
</g>
<g>
</g>
<g>
</g>
<g>
</g>
<g>
</g>
<g>
</g>
<g>
</g>
<g>
</g>
<g>
</g>
<g>
</g>
<g>
</g>
<g>
</g>
<g>
</g>
<g>
</g>
</svg>
