<?xml version="1.0" encoding="iso-8859-1"?>
<!-- Generator: Adobe Illustrator 19.0.0, SVG Export Plug-In . SVG Version: 6.00 Build 0)  -->
<svg version="1.1" id="Layer_1" xmlns="http://www.w3.org/2000/svg" xmlns:xlink="http://www.w3.org/1999/xlink" x="0px" y="0px"
	 viewBox="0 0 511.999 511.999" style="enable-background:new 0 0 511.999 511.999;" xml:space="preserve">
<g>
	<path style="fill:#FEA832;" d="M501.785,235.237c-29.7-10.499-49.799-38.699-49.799-70.199c0.601-5.101-1.8-9.3-5.7-12.9
		c-3.3-2.701-8.399-3.9-12.599-3.301c-25.201,3.6-49.2-3.6-67.5-18.3s-31.201-36.899-33.3-62.699c-0.3-4.501-3.001-8.701-6.901-11.4
		c-3.9-2.401-8.699-3.001-13.2-1.201c-40.8,14.7-79.2-11.1-94.499-46.199c-3.001-6.601-9.901-10.201-17.1-8.699
		c-57.601,12.9-109.401,49.06-144.8,94.661c-81.899,105.3-73.5,250.201,18.3,342.301c99.901,99.598,261,99.598,360.601,0
		c46.199-46.201,76.7-112.063,76.7-182.262C511.385,245.138,511.085,238.539,501.785,235.237z"/>
	<path style="fill:#FE9923;" d="M511.985,255.038c0,70.199-30.5,136.061-76.7,182.262c-99.6,99.598-260.7,99.598-360.601,0
		l291.501-306.763c18.3,14.7,42.299,21.899,67.5,18.3c4.2-0.599,9.3,0.601,12.599,3.301c3.9,3.6,6.301,7.798,5.7,12.9
		c0,31.5,20.099,59.7,49.799,70.199C511.085,238.539,511.385,245.138,511.985,255.038z"/>
	<path style="fill:#994C0F;" d="M193.486,312.499c-7.5-6.599-17.701-10.499-28.5-10.499c-24.901,0-45,20.099-45,45
		c0,11.7,4.501,22.2,11.7,30c8.099,9.3,20.099,15,33.3,15c24.901,0,45-20.101,45-45C209.985,332.899,203.685,320.6,193.486,312.499z
		"/>
	<path style="fill:#713708;" d="M314.985,302c-24.814,0-45-20.186-45-45s20.186-45,45-45s45,20.186,45,45S339.8,302,314.985,302z"/>
	<path style="fill:#713708;" d="M299.985,422c-16.538,0-30-13.462-30-30s13.462-30,30-30s30,13.462,30,30S316.523,422,299.985,422z"
		/>
	<path style="fill:#994C0F;" d="M179.985,212c-16.538,0-30-13.462-30-30s13.462-30,30-30s30,13.462,30,30S196.523,212,179.985,212z"
		/>
	<circle style="fill:#713708;" cx="404.235" cy="318.13" r="15"/>
	<circle style="fill:#994C0F;" cx="104.235" cy="258.13" r="15"/>
	<path style="fill:#713708;" d="M209.985,347c0,24.899-20.099,45-45,45c-13.2,0-25.201-5.7-33.3-15l61.8-64.501
		C203.685,320.6,209.985,332.899,209.985,347z"/>
</g>
<g>
</g>
<g>
</g>
<g>
</g>
<g>
</g>
<g>
</g>
<g>
</g>
<g>
</g>
<g>
</g>
<g>
</g>
<g>
</g>
<g>
</g>
<g>
</g>
<g>
</g>
<g>
</g>
<g>
</g>
</svg>
