<?xml version="1.0" encoding="iso-8859-1"?>
<!-- Generator: Adobe Illustrator 19.0.0, SVG Export Plug-In . SVG Version: 6.00 Build 0)  -->
<svg version="1.1" id="Layer_1" xmlns="http://www.w3.org/2000/svg" xmlns:xlink="http://www.w3.org/1999/xlink" x="0px" y="0px"
	 viewBox="0 0 512 512" style="enable-background:new 0 0 512 512;" xml:space="preserve">
<g>
	<path style="fill:#C85F03;" d="M115.101,72.863L46.957,4.47c-3.9-3.6-9.001-5.101-14.101-3.9c-5.099,1.199-9.3,5.099-10.8,9.899
		l-8.401,24.6l-12.9,39c-1.8,5.402-0.3,11.4,3.6,15.3l47.145,47.094c2.699,2.699,6.599,4.199,10.499,4.199s7.8-1.5,10.499-4.199
		l42.601-42.601C120.801,88.161,120.801,78.561,115.101,72.863z"/>
	<path style="fill:#994C0F;" d="M93.8,115.162l-21.301,21.301C69.8,139.161,65.9,140.661,62,140.661s-7.8-1.5-10.499-4.199
		L4.356,89.368c-3.9-3.9-5.4-9.899-3.6-15.3l12.9-39L93.8,115.162z"/>
	<path style="fill:#FEA832;" d="M486.2,401.361C390.2,305.661,317,232.163,221,136.462c-5.7-6-15.3-6-21,0
		c-11.699,11.4-20.4,20.099-31.8,31.8c-3.9-3.9-6.899-6.901-10.8-10.801c-5.7-5.7-5.7-15.298,0-20.999l21.301-21.301
		c5.7-6,5.7-15.3,0-21.301c-15.3-15.3-27.001-26.999-42.301-42.299c-5.999-6-15.599-6-21.299,0L72.499,93.861L30.2,136.462
		c-6,5.7-6,15.298,0,20.999c126.599,126.601,223.2,223.5,349.799,350.101c6,5.7,15.601,5.7,21.301,0l42.299-42.601l42.601-42.299
		C491.901,416.661,491.901,407.362,486.2,401.361z"/>
	<path style="fill:#FE9923;" d="M443.599,464.961L401.3,507.562c-5.7,5.7-15.3,5.7-21.301,0
		C253.4,380.961,156.799,284.062,30.2,157.461c-6-5.7-6-15.298,0-20.999l42.299-42.601L443.599,464.961z"/>
	<path style="fill:#32D736;" d="M507.499,86.661C504.8,89.663,500.9,91.162,497,91.162s-7.8-1.5-10.499-4.501
		C473,73.461,455.6,65.062,437,62.362v103.801c0,8.399-6.599,15-15,15s-15-6.601-15-15v-120c0-8.401,6.599-15,15-15
		c33.6,0,63.6,12.599,85.499,34.499C513.5,71.361,513.5,80.961,507.499,86.661z"/>
	<path style="fill:#C85F03;" d="M359.001,380.363c-6,5.698-15.601,5.698-21.301,0c-6-6-6-15.601,0-21.301c5.7-6,15.3-6,21.301,0
		C364.701,364.762,364.701,374.362,359.001,380.363z"/>
	<path style="fill:#C85F03;" d="M316.399,337.761c-5.7,6-15.3,6-21.299,0c-5.7-5.7-5.7-15.3,0-21.299c5.999-5.7,15.599-5.7,21.299,0
		C322.4,322.461,322.4,332.061,316.399,337.761z"/>
	<path style="fill:#C85F03;" d="M274.1,295.462c-6,5.7-15.3,5.7-21.301,0c-5.7-6-5.7-15.3,0-21.301c6-6,15.3-6,21.301,0
		C279.8,280.162,279.8,289.462,274.1,295.462z"/>
	<path style="fill:#C85F03;" d="M231.501,252.863c-5.7,5.999-15.3,5.999-21,0c-6-5.7-6-15.3,0-21c5.7-6,15.3-6,21,0
		C237.499,237.562,237.499,247.163,231.501,252.863z"/>
	<path style="fill:#C85F03;" d="M464.9,359.062l-127.2,127.2c-6,6-15.3,6-21.301,0c-5.7-5.7-5.7-15.3,0-21.301l127.2-127.2
		c6-5.7,15.601-5.7,21.301,0C470.9,343.762,470.9,353.062,464.9,359.062z"/>
	<path style="fill:#32D736;" d="M422,132.863c-7.8-7.202-18.3-11.7-30-11.7c-24.901,0-45,20.099-45,45c0,24.899,20.099,45,45,45
		c11.7,0,22.2-4.501,30-11.7c9.3-8.101,15-20.099,15-33.3S431.3,140.961,422,132.863z"/>
	<path style="fill:#994C0F;" d="M401.3,422.662l-63.6,63.6c-6,6-15.3,6-21.301,0c-5.7-5.7-5.7-15.3,0-21.301l63.6-63.6
		L401.3,422.662z"/>
</g>
<g>
</g>
<g>
</g>
<g>
</g>
<g>
</g>
<g>
</g>
<g>
</g>
<g>
</g>
<g>
</g>
<g>
</g>
<g>
</g>
<g>
</g>
<g>
</g>
<g>
</g>
<g>
</g>
<g>
</g>
</svg>
