<svg id="Lager_1" data-name="Lager 1" xmlns="http://www.w3.org/2000/svg" viewBox="0 0 511.9 511.9"><defs><style>.cls-1{fill:#3a3a3a;}.cls-2{fill:#232221;}.cls-3{fill:#fd003a;}.cls-4{fill:#e50027;}.cls-5{fill:#fea832;}.cls-6{fill:#fe9923;}.cls-7{fill:#fedb41;}.cls-8{fill:#fc3;}.cls-9{fill:#32d736;}.cls-10{fill:#10bb67;}.cls-11{fill:#ccefff;}.cls-12{fill:#ace3fc;}</style></defs><title>Rityta 1</title><g id="Layer_1" data-name="Layer 1"><path class="cls-1" d="M430.4,111.1h0a9.56,9.56,0,0,1-9.5-9.5v-30a9.56,9.56,0,0,1,9.5-9.5h0a9.56,9.56,0,0,1,9.5,9.5v30A9.56,9.56,0,0,1,430.4,111.1Z"/><path class="cls-2" d="M430.4,62.1v49a9.56,9.56,0,0,0,9.5-9.5v-30A9.56,9.56,0,0,0,430.4,62.1Z"/><path class="cls-3" d="M119.6,299.9V460a6,6,0,0,1-6,6H41.4a6,6,0,0,1-6-6V299.9a6,6,0,0,1,6-6h72.1A6,6,0,0,1,119.6,299.9Z"/><path class="cls-4" d="M119.6,299.9V460a6,6,0,0,1-6,6H77.5V293.9h36.1A6,6,0,0,1,119.6,299.9Z"/><path class="cls-5" d="M113.2,269.8H41.9c-9.1,0-17.6,7.4-18.4,16.5a18,18,0,0,0,18,19.6h18v6a17.9,17.9,0,0,0,24.6,16.7,18.16,18.16,0,0,0,20,13.2c9-1.2,15.5-9.2,15.5-18.3V304.8a18,18,0,0,0,11.7-20.3C129.8,275.9,122,269.8,113.2,269.8Z"/><path class="cls-6" d="M131.3,284.6a18,18,0,0,1-11.7,20.3v18.7a18.06,18.06,0,0,1-35.5,5.1,18,18,0,0,1-6.6,1.3V269.9h35.7A18,18,0,0,1,131.3,284.6Z"/><path class="cls-7" d="M94.1,244.4,82.8,224.1a6.42,6.42,0,0,0-10.6,0L60.5,245.3a20,20,0,0,0-1.1,6.4,18,18,0,0,0,36,1.8A19.06,19.06,0,0,0,94.1,244.4Z"/><path class="cls-8" d="M95.5,251.8a18,18,0,0,1-18,18V221.3a6.08,6.08,0,0,1,5.3,2.8l11.3,20.3A20.63,20.63,0,0,1,95.5,251.8Z"/><path class="cls-3" d="M236.8,215.3V459.5a6.27,6.27,0,0,1-6,6.5H158.7a6.27,6.27,0,0,1-6-6.5V215.3a6.27,6.27,0,0,1,6-6.5h72.1A6.27,6.27,0,0,1,236.8,215.3Z"/><path class="cls-4" d="M236.8,215.3V459.5a6.27,6.27,0,0,1-6,6.5H194.7V208.8h36.1A6.27,6.27,0,0,1,236.8,215.3Z"/><path class="cls-5" d="M230.4,206.3H159c-9.1,0-17.6,7.4-18.4,16.5a18,18,0,0,0,18,19.6h18v6a17.9,17.9,0,0,0,24.6,16.7h0a18.16,18.16,0,0,0,20,13.2c9-1.2,15.5-9.2,15.5-18.3V241.3h0A18,18,0,0,0,248.4,221C246.9,212.4,239.1,206.3,230.4,206.3Z"/><path class="cls-7" d="M211.3,180.9h0L200,160.6a6.42,6.42,0,0,0-10.6,0l-11.7,21.2h0a20,20,0,0,0-1.1,6.4,18,18,0,0,0,36,1.8A19.06,19.06,0,0,0,211.3,180.9Z"/><path class="cls-8" d="M212.7,188.3a18,18,0,0,1-18,18h0V157.8h0a6.08,6.08,0,0,1,5.3,2.8l11.3,20.3h0A20.63,20.63,0,0,1,212.7,188.3Z"/><path class="cls-3" d="M354.6,166.7V459.5a6.18,6.18,0,0,1-6,6.4H276.5a6.24,6.24,0,0,1-6-6.4V166.7a6.18,6.18,0,0,1,6-6.4h72.1A6.24,6.24,0,0,1,354.6,166.7Z"/><path class="cls-4" d="M354.6,166.7V459.5a6.18,6.18,0,0,1-6,6.4H312.5V160.3h36.1A6.24,6.24,0,0,1,354.6,166.7Z"/><path class="cls-5" d="M348.2,158.2H276.9c-9.1,0-17.6,7.4-18.4,16.5a18,18,0,0,0,18,19.6h18v6A17.9,17.9,0,0,0,319.1,217a18.16,18.16,0,0,0,20,13.2c9-1.2,15.5-9.2,15.5-18.3V193.2a18,18,0,0,0,11.7-20.3C364.8,164.3,357,158.2,348.2,158.2Z"/><path class="cls-6" d="M366.3,173a18,18,0,0,1-11.7,20.3V212a18.06,18.06,0,0,1-35.5,5.1,18,18,0,0,1-6.6,1.3V158.3h35.7A18,18,0,0,1,366.3,173Z"/><path class="cls-7" d="M329.1,132.8l-11.3-20.3a6.42,6.42,0,0,0-10.6,0l-11.7,21.2a20,20,0,0,0-1.1,6.4,18,18,0,0,0,36,1.8A19.06,19.06,0,0,0,329.1,132.8Z"/><path class="cls-8" d="M330.6,140.2a18,18,0,0,1-18,18V109.8a6.08,6.08,0,0,1,5.3,2.8l11.3,20.3A22.1,22.1,0,0,1,330.6,140.2Z"/><path class="cls-3" d="M472.4,112.2V459.6a6.11,6.11,0,0,1-6,6.4H394.3a6.11,6.11,0,0,1-6-6.4V112.2a6.11,6.11,0,0,1,6-6.4h72.1A6.11,6.11,0,0,1,472.4,112.2Z"/><path class="cls-4" d="M472.4,112.2V459.6a6.11,6.11,0,0,1-6,6.4H430.3V105.8h36.1A6.11,6.11,0,0,1,472.4,112.2Z"/><path class="cls-3" d="M354.6,166.7V459.5a6.18,6.18,0,0,1-6,6.4H276.5a6.24,6.24,0,0,1-6-6.4V166.7a6.18,6.18,0,0,1,6-6.4h72.1A6.24,6.24,0,0,1,354.6,166.7Z"/><path class="cls-4" d="M354.6,166.7V459.5a6.18,6.18,0,0,1-6,6.4H312.5V160.3h36.1A6.24,6.24,0,0,1,354.6,166.7Z"/><path class="cls-5" d="M348.2,158.2H276.9c-9.1,0-17.6,7.4-18.4,16.5a18,18,0,0,0,18,19.6h18v6A17.9,17.9,0,0,0,319.1,217a18.16,18.16,0,0,0,20,13.2c9-1.2,15.5-9.2,15.5-18.3V193.2a18,18,0,0,0,11.7-20.3C364.8,164.3,357,158.2,348.2,158.2Z"/><path class="cls-6" d="M366.3,173a18,18,0,0,1-11.7,20.3V212a18.06,18.06,0,0,1-35.5,5.1,18,18,0,0,1-6.6,1.3V158.3h35.7A18,18,0,0,1,366.3,173Z"/><path class="cls-7" d="M329.1,132.8l-11.3-20.3a6.42,6.42,0,0,0-10.6,0l-11.7,21.2a20,20,0,0,0-1.1,6.4,18,18,0,0,0,36,1.8A19.06,19.06,0,0,0,329.1,132.8Z"/><path class="cls-8" d="M330.6,140.2a18,18,0,0,1-18,18V109.8a6.08,6.08,0,0,1,5.3,2.8l11.3,20.3A22.1,22.1,0,0,1,330.6,140.2Z"/></g><g id="Lager_2" data-name="Lager 2"><path class="cls-9" d="M499.3,458.5c-1.2-2.8-3.1-4.5-5.2-4.5H23.4c-2,0-4,1.7-5.2,4.5a14.14,14.14,0,0,0-.2,9.1l12,37.8c1.1,3.2,3.1,5.3,5.4,5.3H482c2.3,0,4.3-2.1,5.4-5.3l12-37.8A14.87,14.87,0,0,0,499.3,458.5Z"/><path class="cls-10" d="M499.5,467.6l-12,37.8c-1.1,3.2-3.1,5.3-5.4,5.3H255.5V454H494.1c2,0,4,1.7,5.2,4.5A15.64,15.64,0,0,1,499.5,467.6Z"/><path class="cls-11" d="M506.1,459.8c0,5.7-5.6,10.1-9,10.1H13.4c-3.4,0-8-4.4-8-10.1s4.6-10.1,8-10.1H497.1C500.5,449.7,506.1,454.1,506.1,459.8Z"/><path class="cls-12" d="M506.1,459.8c0,5.7-5.6,10.1-9,10.1H255.5V449.7H497.1C500.5,449.7,506.1,454.1,506.1,459.8Z"/></g></svg>