<?xml version="1.0" encoding="iso-8859-1"?>
<!-- Generator: Adobe Illustrator 19.0.0, SVG Export Plug-In . SVG Version: 6.00 Build 0)  -->
<svg version="1.1" id="Layer_1" xmlns="http://www.w3.org/2000/svg" xmlns:xlink="http://www.w3.org/1999/xlink" x="0px" y="0px"
	 viewBox="0 0 512 512" style="enable-background:new 0 0 512 512;" xml:space="preserve">
<g>
	<path style="fill:#CCEFFF;" d="M270.798,15v30c0,8.401-6.599,15-15,15s-15-6.599-15-15V15c0-8.401,6.599-15,15-15
		S270.798,6.599,270.798,15z"/>
	<path style="fill:#CCEFFF;" d="M185.192,55.605l-30-30c-5.859-5.859-5.859-15.352,0-21.211s15.352-5.859,21.211,0l30,30
		c5.859,5.859,5.859,15.352,0,21.211C200.544,61.465,191.052,61.465,185.192,55.605z"/>
	<path style="fill:#CCEFFF;" d="M305.192,55.605c-5.859-5.859-5.859-15.352,0-21.211l30-30c5.859-5.859,15.352-5.859,21.211,0
		s5.859,15.352,0,21.211l-30,30C320.544,61.465,311.052,61.465,305.192,55.605z"/>
	<g>
		<path style="fill:#CCEFFF;" d="M444.497,182.999l-17.999,27.902l-61.8,24.598l-61.5,24.3l-33.6-30
			c-4.2-35.4-8.401-70.199-13.5-110.4c-0.901-7.2,3.9-14.099,11.1-16.199l57.9-15.601l58.2-15.3c7.2-2.098,14.7,1.501,17.401,8.401
			C416.597,117.9,430.398,150.3,444.497,182.999z"/>
		<path style="fill:#ACE3FC;" d="M444.497,182.999l-17.999,27.902l-61.8,24.598l-39.6-147.9l58.2-15.3
			c7.2-2.098,14.7,1.501,17.401,8.401C416.597,117.9,430.398,150.3,444.497,182.999z"/>
		<path style="fill:#CCEFFF;" d="M433.998,496.081c-8.101,2.1-16.199-2.701-18.6-10.8L392.297,396
			c-2.1-8.101,2.401-16.5,10.501-18.6c8.099-2.1,16.199,2.699,18.3,10.8l23.399,89.281
			C446.597,485.58,441.798,493.981,433.998,496.081z"/>
		<path style="fill:#CCEFFF;" d="M491.898,480.48l-57.9,15.3v0.3l-58.2,15.3c-7.8,2.399-16.199-2.401-18.3-10.501
			c-2.1-8.099,2.699-16.199,10.8-18.3l57.9-15.601l57.9-15.599c8.101-2.1,16.201,2.699,18.3,10.8
			C504.497,469.981,499.998,478.38,491.898,480.48z"/>
		<path style="fill:#FD003A;" d="M410.597,406.5c-55.8,15-113.699-18.3-128.699-74.399c-2.401-19.2-9.901-82.5-12.299-102.301
			l87.299-23.399l87.599-23.401c0,0,27.001,63.001,39.6,93.001C499.698,333.9,466.398,391.5,410.597,406.5z"/>
		<path style="fill:#ACE3FC;" d="M491.898,480.48l-57.9,15.3l-7.8-28.801l57.9-15.599c8.101-2.1,16.201,2.699,18.3,10.8
			C504.497,469.981,499.998,478.38,491.898,480.48z"/>
		<path style="fill:#ACE3FC;" d="M433.998,496.081l-31.199-118.68c8.099-2.1,16.199,2.699,18.3,10.8l23.399,89.281
			C446.597,485.58,441.798,493.981,433.998,496.081z"/>
		<path style="fill:#E50027;" d="M410.597,406.5L356.898,206.4l87.599-23.401c0,0,27.001,63.001,39.6,93.001
			C499.698,333.9,466.398,391.5,410.597,406.5z"/>
	</g>
	<g>
		<path style="fill:#CCEFFF;" d="M67.503,182.999l17.999,27.902l61.8,24.598l61.5,24.3l33.6-30c4.2-35.4,8.401-70.199,13.5-110.4
			c0.901-7.2-3.9-14.099-11.1-16.199l-57.9-15.601l-58.2-15.3c-7.2-2.098-14.7,1.501-17.401,8.401
			C95.403,117.9,81.603,150.3,67.503,182.999z"/>
		<path style="fill:#CCEFFF;" d="M143.702,482.58l-43.273-11.66L119.703,396c2.1-8.101-2.401-16.5-10.501-18.6
			c-8.099-2.1-16.199,2.699-18.3,10.8l-19.517,74.896l-43.482-11.715c-8.101-2.1-16.201,2.699-18.3,10.8
			c-2.1,7.8,2.399,16.199,10.499,18.3l56.666,14.974c0.439,0.167,0.775,0.502,1.234,0.626l58.2,15.3
			c7.8,2.399,16.199-2.401,18.3-10.501C156.602,492.781,151.803,484.681,143.702,482.58z"/>
		<path style="fill:#FD003A;" d="M101.404,406.5c55.8,15,113.699-18.3,128.699-74.399c2.401-19.2,9.901-82.5,12.299-102.301
			L155.103,206.4l-87.599-23.401c0,0-27.001,63.001-39.6,93.001C12.303,333.9,45.602,391.5,101.404,406.5z"/>
	</g>
	<path style="fill:#ACE3FC;" d="M154.502,500.88c2.1-8.099-2.699-16.199-10.8-18.3l-43.273-11.66L119.703,396
		c2.1-8.101-2.401-16.5-10.501-18.6l-0.049-0.004l-31.15,118.684l58.2,15.3C144.003,513.78,152.402,508.981,154.502,500.88z"/>
	<path style="fill:#ACE3FC;" d="M147.302,235.499l61.5,24.3l33.6-30c4.2-35.4,8.401-70.199,13.5-110.4
		c0.901-7.2-3.9-14.099-11.1-16.199l-57.9-15.601l-39.673,147.87L147.302,235.499z"/>
	<path style="fill:#E50027;" d="M101.403,406.5c55.8,15,113.699-18.3,128.699-74.399c2.401-19.2,9.901-82.5,12.299-102.301
		L155.102,206.4l-0.068-0.018L101.35,406.479C101.35,406.479,101.385,406.494,101.403,406.5z"/>
</g>
<g>
</g>
<g>
</g>
<g>
</g>
<g>
</g>
<g>
</g>
<g>
</g>
<g>
</g>
<g>
</g>
<g>
</g>
<g>
</g>
<g>
</g>
<g>
</g>
<g>
</g>
<g>
</g>
<g>
</g>
</svg>
