<?xml version="1.0" encoding="iso-8859-1"?>
<!-- Generator: Adobe Illustrator 19.0.0, SVG Export Plug-In . SVG Version: 6.00 Build 0)  -->
<svg version="1.1" id="Layer_1" xmlns="http://www.w3.org/2000/svg" xmlns:xlink="http://www.w3.org/1999/xlink" x="0px" y="0px"
	 viewBox="0 0 510.801 510.801" style="enable-background:new 0 0 510.801 510.801;" xml:space="preserve">
<g>
	<path style="fill:#FD003A;" d="M465.349,210.801c-0.051-10.071-1.014-19.979-2.454-29.767l0.104-0.233
		c-6.599-44.399-26.999-87.201-59.099-119.299C364.3,21.601,311.5,0,255.4,0S146.5,21.601,106.9,61.501
		C67.3,101.1,45.4,155.9,45.4,212v73.801l210,58.5l120,33.6l0.002-0.004c37.592,10.49,21.714,6.059,74.998,20.931
		c8.291,0,15-6.709,15-15V211.87C465.4,211.511,465.351,211.16,465.349,210.801z"/>
	<path style="fill:#E50027;" d="M465.349,210.801c-0.051-10.071-1.014-19.979-2.454-29.767l0.104-0.233
		c-6.599-44.399-26.999-87.201-59.099-119.299C364.3,21.601,311.5,0,255.4,0v344.301l120,33.6l0.002-0.004
		c37.592,10.49,21.714,6.059,74.998,20.931c8.291,0,15-6.709,15-15V211.87C465.4,211.511,465.351,211.16,465.349,210.801z"/>
	<g>
		<g>
			<path style="fill:#CCEFFF;" d="M390.4,270.801h-330c-24.901,0-45,20.099-45,45v30c0,24.901,20.099,45,45,45h330
				c8.401,0,15-6.599,15-15v-90C405.4,277.4,398.801,270.801,390.4,270.801z"/>
		</g>
	</g>
	<path style="fill:#ACE3FC;" d="M405.4,285.801v90c0,8.401-6.599,15-15,15h-135v-120h135C398.801,270.801,405.4,277.4,405.4,285.801
		z"/>
	<path style="fill:#C1001F;" d="M390.4,420.801L390.4,420.801c-8.284,0-15-6.716-15-15v-210c0-8.284,6.716-15,15-15l0,0
		c8.284,0,15,6.716,15,15v210C405.4,414.085,398.685,420.801,390.4,420.801z"/>
	<path style="fill:#CCEFFF;" d="M420.4,510.801c-41.353,0-75-33.647-75-75s33.647-75,75-75s75,33.647,75,75
		S461.753,510.801,420.4,510.801z"/>
</g>
<g>
</g>
<g>
</g>
<g>
</g>
<g>
</g>
<g>
</g>
<g>
</g>
<g>
</g>
<g>
</g>
<g>
</g>
<g>
</g>
<g>
</g>
<g>
</g>
<g>
</g>
<g>
</g>
<g>
</g>
</svg>
