<?xml version="1.0" encoding="iso-8859-1"?>
<!-- Generator: Adobe Illustrator 19.0.0, SVG Export Plug-In . SVG Version: 6.00 Build 0)  -->
<svg version="1.1" id="Layer_1" xmlns="http://www.w3.org/2000/svg" xmlns:xlink="http://www.w3.org/1999/xlink" x="0px" y="0px"
	 viewBox="0 0 512.093 512.093" style="enable-background:new 0 0 512.093 512.093;" xml:space="preserve">
<g>
	<path style="fill:#32D736;" d="M119.988,459.02c-2.241,3.384-4.546,6.87-6.978,10.554c-32.1,13.801-60.019,27.501-92.119,41.302
		c-6.299,2.699-12.299,0.601-16.5-3.3c-3.9-4.2-5.7-10.201-3.3-16.501c22.8-52.798,42.919-95.901,65.419-148.401
		c7.322,3.083,13.929,5.836,20.433,8.542c16.594,6.903,29.847,19.896,37.359,36.224l0.108,0.234
		c0.809,2.095,1.618,4.167,2.431,6.229C135.324,415.427,132.76,439.731,119.988,459.02z"/>
	<path style="fill:#10BB67;" d="M119.988,459.02c-2.241,3.384-4.546,6.87-6.978,10.554c-32.1,13.801-60.019,27.501-92.119,41.302
		c-6.299,2.699-12.299,0.601-16.5-3.3L124.41,387.675c0.809,2.095,1.618,4.167,2.431,6.229
		C135.324,415.427,132.76,439.731,119.988,459.02z"/>
	<path style="fill:#FD003A;" d="M213.209,426.675l-100.199,42.9l-18.9-51.599l-27.599-75.3l62.699-146.1l0,0
		c29.787,24.725,50.701,58.485,59.575,96.166l5.825,24.733l6.453,26.884C207.548,371.382,211.613,398.93,213.209,426.675
		L213.209,426.675z"/>
	<path style="fill:#E50027;" d="M213.209,426.675l-100.199,42.9l-18.9-51.599l100.499-100.501l6.453,26.884
		C207.548,371.382,211.613,398.93,213.209,426.675L213.209,426.675z"/>
	<circle style="fill:#FEA832;" cx="167.01" cy="45.076" r="15"/>
	<circle style="fill:#FEA832;" cx="257.01" cy="15.076" r="15"/>
	<circle style="fill:#FE9923;" cx="467.01" cy="345.076" r="15"/>
	<circle style="fill:#FE9923;" cx="497.01" cy="255.076" r="15"/>
	<path style="fill:#CCEFFF;" d="M421.709,111.376l-138.6,138.898c-5.7,5.7-15.3,5.7-21.301,0c-5.7-5.999-5.7-15.599,0-21.299
		l138.9-138.6c5.7-6,15.3-6,21,0C427.71,96.076,427.71,105.676,421.709,111.376z"/>
	<path style="fill:#FEA832;" d="M498.81,13.276c-17.701-17.701-45.899-17.701-63.6,0s-17.701,45.899,0,63.6s45.899,17.701,63.6,0
		S516.51,30.976,498.81,13.276z"/>
	<path style="fill:#CCEFFF;" d="M404.212,319.997c-15.322-15.322-43.433-19.731-73.242-11.543
		c-8.057,2.124-16.26-2.505-18.442-10.474c-2.197-7.998,2.49-16.245,10.474-18.442c40.811-11.294,79.116-4.072,102.422,19.248
		c5.859,5.859,5.859,15.352,0,21.211C419.563,325.857,410.071,325.857,404.212,319.997z"/>
	<path style="fill:#CCEFFF;" d="M214.104,199.558c-7.983-2.197-12.671-10.444-10.474-18.442
		c8.203-29.839,3.794-57.905-11.543-73.242c-5.859-5.859-5.859-15.352,0-21.211s15.352-5.859,21.211,0
		c23.291,23.291,30.483,61.582,19.248,102.422C230.362,197.018,222.138,201.765,214.104,199.558z"/>
	<path style="fill:#CCEFFF;" d="M261.932,165.295c-5.859-5.859-5.859-15.352,0-21.211c19.585-19.585,30.791-62.856,15-78.647
		c-5.859-5.859-5.859-15.352,0-21.211s15.352-5.859,21.211,0c30.762,30.762,12.393,93.677-15,121.069
		C277.283,171.155,267.791,171.155,261.932,165.295z"/>
	<path style="fill:#CCEFFF;" d="M346.79,250.154c-5.859-5.859-5.859-15.352,0-21.211c27.422-27.393,90.293-45.747,121.069-15
		c5.859,5.859,5.859,15.352,0,21.211s-15.352,5.859-21.211,0c-15.806-15.776-59.048-4.57-78.647,15
		C362.141,256.013,352.649,256.013,346.79,250.154z"/>
	<path style="fill:#32D736;" d="M320.91,380.475c-84,36-73.5,31.5-107.701,46.199l-34.199-93.6l-49.801-136.5l2.401-5.4
		c35.7,35.7,65.099,65.4,94.499,94.799C255.51,315.376,284.909,344.475,320.91,380.475z"/>
	<path style="fill:#10BB67;" d="M320.91,380.475c-84,36-73.5,31.5-107.701,46.199l-34.199-93.6l47.098-47.1
		C255.51,315.376,284.909,344.475,320.91,380.475z"/>
	<path style="fill:#FE9923;" d="M498.81,76.875c-17.701,17.701-45.899,17.701-63.6,0l63.6-63.6
		C516.51,30.976,516.51,59.175,498.81,76.875z"/>
	<path style="fill:#CCEFFF;" d="M346.709,398.775c-5.7,5.7-15.3,5.7-21,0L219.51,292.576L113.31,186.374
		c-5.7-5.7-5.7-15.298,0-20.999c5.999-6,15.599-6,21.299,0L240.81,271.575l105.899,105.899
		C352.71,383.174,352.71,392.775,346.709,398.775z"/>
	<path style="fill:#ACE3FC;" d="M346.709,398.775c-5.7,5.7-15.3,5.7-21,0L219.51,292.576l21.301-21l105.899,105.899
		C352.71,383.174,352.71,392.775,346.709,398.775z"/>
</g>
<g>
</g>
<g>
</g>
<g>
</g>
<g>
</g>
<g>
</g>
<g>
</g>
<g>
</g>
<g>
</g>
<g>
</g>
<g>
</g>
<g>
</g>
<g>
</g>
<g>
</g>
<g>
</g>
<g>
</g>
</svg>
