<?xml version="1.0" encoding="iso-8859-1"?>
<!-- Generator: Adobe Illustrator 19.0.0, SVG Export Plug-In . SVG Version: 6.00 Build 0)  -->
<svg version="1.1" id="Layer_1" xmlns="http://www.w3.org/2000/svg" xmlns:xlink="http://www.w3.org/1999/xlink" x="0px" y="0px"
	 viewBox="0 0 512 512" style="enable-background:new 0 0 512 512;" xml:space="preserve">
<g>
	<path style="fill:#CCEFFF;" d="M481,226c0,60.899-24,117.9-67.8,160.8H98.8C55,343.9,31,286.899,31,226C31,101.8,131.8,0,256,0
		S481,101.8,481,226z"/>
	<path style="fill:#ACE3FC;" d="M481,226c0,60.899-24,117.9-67.8,160.8H256V0C380.2,0,481,101.8,481,226z"/>
	<path style="fill:#C85F03;" d="M271,316v60c0,8.399-6.599,15-15,15s-15-6.601-15-15v-60c0-8.401,6.599-15,15-15
		S271,307.599,271,316z"/>
	<path style="fill:#994C0F;" d="M271,316v60c0,8.399-6.599,15-15,15v-90C264.401,301,271,307.599,271,316z"/>
	<path style="fill:#32D736;" d="M329.801,310.3l-60-150c-2.401-5.7-8.101-8.701-13.801-8.701s-11.4,3.001-13.801,8.701l-60,150
		c-2.1,4.799-1.5,9.901,1.501,14.099c2.699,4.2,7.2,6.601,12.299,6.601h120c5.099,0,9.6-2.401,12.299-6.601
		C331.3,320.2,331.901,315.099,329.801,310.3z"/>
	<circle style="fill:#81C8EE;" cx="219.249" cy="92.067" r="15"/>
	<circle style="fill:#4DBBEB;" cx="369.249" cy="272.067" r="15"/>
	<circle style="fill:#81C8EE;" cx="129.249" cy="302.067" r="15"/>
	<g>
		<path style="fill:#81C8EE;" d="M391,136c0,8.399-6.599,15-15,15h-15v15c0,8.399-6.599,15-15,15s-15-6.601-15-15v-15h-15
			c-8.401,0-15-6.601-15-15c0-8.401,6.599-15,15-15h15v-15c0-8.401,6.599-15,15-15s15,6.599,15,15v15h15
			C384.401,121,391,127.599,391,136z"/>
	</g>
	<path style="fill:#81C8EE;" d="M181,196c0,8.399-6.599,15-15,15h-15v15c0,8.399-6.599,15-15,15s-15-6.601-15-15v-15h-15
		c-8.401,0-15-6.601-15-15c0-8.401,6.599-15,15-15h15v-15c0-8.401,6.599-15,15-15s15,6.599,15,15v15h15
		C174.401,181,181,187.599,181,196z"/>
	<path style="fill:#10BB67;" d="M328.299,324.399c-2.699,4.2-7.2,6.601-12.299,6.601h-60V151.599c5.7,0,11.4,3.001,13.801,8.701
		l60,150C331.901,315.099,331.3,320.2,328.299,324.399z"/>
	<path style="fill:#994C0F;" d="M406,361H106c-24.901,0-45,21.099-45,46v30c0,8.399,6.599,15,15,15h360c8.401,0,15-6.601,15-15v-30
		C451,382.099,430.901,361,406,361z"/>
	<path style="fill:#713708;" d="M451,407v30c0,8.399-6.599,15-15,15H256v-91h150C430.901,361,451,382.099,451,407z"/>
	<path style="fill:#E4741B;" d="M436,422H76c-24.901,0-45,20.099-45,45v30c0,8.399,6.599,15,15,15h420c8.401,0,15-6.601,15-15v-30
		C481,442.099,460.901,422,436,422z"/>
	<path style="fill:#BF6015;" d="M481,467v30c0,8.399-6.599,15-15,15H256v-90h180C460.901,422,481,442.099,481,467z"/>
</g>
<g>
</g>
<g>
</g>
<g>
</g>
<g>
</g>
<g>
</g>
<g>
</g>
<g>
</g>
<g>
</g>
<g>
</g>
<g>
</g>
<g>
</g>
<g>
</g>
<g>
</g>
<g>
</g>
<g>
</g>
</svg>
