<?xml version="1.0" encoding="iso-8859-1"?>
<!-- Generator: Adobe Illustrator 19.0.0, SVG Export Plug-In . SVG Version: 6.00 Build 0)  -->
<svg version="1.1" id="Layer_1" xmlns="http://www.w3.org/2000/svg" xmlns:xlink="http://www.w3.org/1999/xlink" x="0px" y="0px"
	 viewBox="0 0 512.199 512.199" style="enable-background:new 0 0 512.199 512.199;" xml:space="preserve">
<g>
	<path style="fill:#FEDB41;" d="M306.3,310.243C185.758,248.134,185.802,97.712,185.817,18.054v-3.062
		c0-6.313-3.955-11.953-9.888-14.106c-5.918-2.124-12.583-0.352-16.641,4.497l-63.42,76.111l-0.051,0.06L32.345,5.383
		c-4.058-4.849-10.723-6.621-16.641-4.497C9.772,3.039,5.817,8.679,5.817,14.992c0,209.854,133.169,347.707,264.697,373.313
		c0.967,0.19,1.934,0.278,2.886,0.278c7.031,0,13.315-4.966,14.707-12.129l8.503-15.87l16.15-30.141
		C316.554,323.075,313.668,314.037,306.3,310.243z"/>
	<path style="fill:#FFCC33;" d="M95.868,81.494l-0.051,0.06L32.345,5.383c-4.058-4.849-10.723-6.621-16.641-4.497
		C9.772,3.039,5.817,8.679,5.817,14.992c0,209.854,133.169,347.707,264.697,373.313c0.967,0.19,1.934,0.278,2.886,0.278
		c7.031,0,13.315-4.966,14.707-12.129l8.503-15.87C202.818,318.911,118.635,220.041,95.868,81.494z"/>
	<path style="fill:#FEA832;" d="M501.864,395.2l-57.301-55.801l13.5-78.6c1.201-5.7-1.199-11.4-6-14.7
		c-4.499-3.3-10.499-3.9-15.599-1.199l-70.501,37.2l-70.8-37.2c-5.099-2.701-11.1-2.1-15.899,1.199c-4.501,3.3-6.901,9-5.7,14.7
		l13.499,78.6L229.764,395.2c-3.9,3.898-5.4,9.899-3.9,15.298c1.8,5.4,6.601,9.3,12.299,10.201l78.9,11.4l35.402,71.7
		c2.399,5.099,7.5,8.399,13.499,8.399c5.7,0,10.801-3.3,13.2-8.399l35.4-71.7l78.9-11.4c5.7-0.901,10.501-4.801,12.301-10.201
		C507.264,405.099,506.064,399.099,501.864,395.2z"/>
	<path style="fill:#FE9923;" d="M505.764,410.499c-1.8,5.4-6.601,9.3-12.301,10.201l-78.9,11.4l-35.4,71.7
		c-2.399,5.099-7.5,8.399-13.2,8.399c-5.999,0-11.1-3.3-13.499-8.399l-35.402-71.7l135-186c4.801,3.3,7.202,9,6,14.7l-13.5,78.6
		l57.301,55.801C506.064,399.099,507.264,405.099,505.764,410.499z"/>
	<circle style="fill:#FEA832;" cx="470.813" cy="197.13" r="15"/>
	<circle style="fill:#FEA832;" cx="410.813" cy="77.13" r="15"/>
	<g>
		<path style="fill:#FEA832;" d="M396.564,166c0,8.399-6.599,15-15,15h-15v15c0,8.399-6.599,15-15,15s-15-6.601-15-15v-15h-15
			c-8.401,0-15-6.601-15-15c0-8.401,6.599-15,15-15h15v-15c0-8.401,6.599-15,15-15s15,6.599,15,15v15h15
			C389.965,151,396.564,157.599,396.564,166z"/>
		<path style="fill:#FE9923;" d="M396.564,166c0,8.399-6.599,15-15,15h-15v15c0,8.399-6.599,15-15,15v-90c8.401,0,15,6.599,15,15v15
			h15C389.965,151,396.564,157.599,396.564,166z"/>
	</g>
	<g>
		<path style="fill:#FEA832;" d="M186.564,436c0,8.399-6.599,15-15,15h-15v15c0,8.399-6.599,15-15,15s-15-6.601-15-15v-15h-15
			c-8.401,0-15-6.601-15-15c0-8.401,6.599-15,15-15h15v-15c0-8.401,6.599-15,15-15s15,6.599,15,15v15h15
			C179.965,421,186.564,427.599,186.564,436z"/>
		<path style="fill:#FE9923;" d="M186.564,436c0,8.399-6.599,15-15,15h-15v15c0,8.399-6.599,15-15,15v-90c8.401,0,15,6.599,15,15v15
			h15C179.965,421,186.564,427.599,186.564,436z"/>
	</g>
</g>
<g>
</g>
<g>
</g>
<g>
</g>
<g>
</g>
<g>
</g>
<g>
</g>
<g>
</g>
<g>
</g>
<g>
</g>
<g>
</g>
<g>
</g>
<g>
</g>
<g>
</g>
<g>
</g>
<g>
</g>
</svg>
