<?xml version="1.0" encoding="iso-8859-1"?>
<!-- Generator: Adobe Illustrator 19.0.0, SVG Export Plug-In . SVG Version: 6.00 Build 0)  -->
<svg version="1.1" id="Layer_1" xmlns="http://www.w3.org/2000/svg" xmlns:xlink="http://www.w3.org/1999/xlink" x="0px" y="0px"
	 viewBox="0 0 510.092 510.092" style="enable-background:new 0 0 510.092 510.092;" xml:space="preserve">
<g>
	<path style="fill:#994C0F;" d="M210.866,58.908c-0.264,0-0.527,0-0.806-0.015C139.557,55.187,65.173,44.201,11.105,29.494
		C3.122,27.326-1.61,19.079,0.573,11.081C2.741,3.097,10.988-1.664,18.986,0.548c52.119,14.18,124.146,24.785,192.656,28.374
		c8.262,0.439,14.619,7.5,14.194,15.776C225.412,52.697,218.791,58.908,210.866,58.908z"/>
	<path style="fill:#713708;" d="M270.793,59.962c-8.174,0-14.854-6.548-15-14.736c-0.146-8.276,6.46-15.117,14.736-15.264
		c75.308-1.318,157.764-12.319,220.576-29.414c7.954-2.227,16.23,2.534,18.413,10.532s-2.534,16.245-10.532,18.413
		c-65.068,17.71-150.278,29.092-227.93,30.469C270.969,59.962,270.881,59.962,270.793,59.962z"/>
	<g>
		<path style="fill:#FEA832;" d="M286.052,45.092v95.099c0,8.101-6.599,15-15,15h-60.405c-8.101,0-15.595-6.899-15.595-15V45.092
			c0-24.6,20.692-44.7,44.994-45c0.3,0,0.3,0,0.601,0C265.545,0.092,286.052,20.192,286.052,45.092z"/>
		<path style="fill:#FE9923;" d="M286.052,45.092v95.099c0,8.101-6.599,15-15,15h-31.006V0.092c0.3,0,0.3,0,0.601,0
			C265.545,0.092,286.052,20.192,286.052,45.092z"/>
	</g>
	<path style="fill:#FD003A;" d="M240.646,120.092c-0.3,0-0.3,0-0.601,0c-57.297,0.3-104.399,47.401-104.399,105
		c0,56.1,44.099,164.399,104.399,165c0.3,0,0.3,0,0.601,0c60.901,0,105-108.6,105-165
		C345.646,167.193,298.544,120.092,240.646,120.092z"/>
	<path style="fill:#FEDB41;" d="M450.793,299.962h-60c-8.291,0-15-6.709-15-15s6.709-15,15-15h60c8.291,0,15,6.709,15,15
		S459.084,299.962,450.793,299.962z"/>
	<path style="fill:#FEDB41;" d="M90.793,299.962h-60c-8.291,0-15-6.709-15-15s6.709-15,15-15h60c8.291,0,15,6.709,15,15
		S99.084,299.962,90.793,299.962z"/>
	<path style="fill:#FEDB41;" d="M256.052,435.092v60c0,8.101-6.599,15-15,15c-0.3,0-0.3,0-0.601,0c-7.8-0.3-14.399-7.2-14.399-15
		v-60c0-8.101,6.599-14.7,14.399-15c0.3,0,0.3,0,0.601,0C249.452,420.092,256.052,426.693,256.052,435.092z"/>
	<path style="fill:#FEDB41;" d="M81.696,444.059c-5.859-5.859-5.859-15.352,0-21.211l42.422-42.422
		c5.859-5.859,15.352-5.859,21.211,0s5.859,15.352,0,21.211l-42.422,42.422C97.048,449.919,87.556,449.919,81.696,444.059z"/>
	<path style="fill:#FEDB41;" d="M378.679,444.059l-42.422-42.422c-5.859-5.859-5.859-15.352,0-21.211s15.352-5.859,21.211,0
		l42.422,42.422c5.859,5.859,5.859,15.352,0,21.211C394.03,449.919,384.538,449.919,378.679,444.059z"/>
	<path style="fill:#E50027;" d="M345.646,225.092c0,56.4-44.099,165-105,165c-0.3,0-0.3,0-0.601,0v-270c0.3,0,0.3,0,0.601,0
		C298.544,120.092,345.646,167.193,345.646,225.092z"/>
</g>
<g>
</g>
<g>
</g>
<g>
</g>
<g>
</g>
<g>
</g>
<g>
</g>
<g>
</g>
<g>
</g>
<g>
</g>
<g>
</g>
<g>
</g>
<g>
</g>
<g>
</g>
<g>
</g>
<g>
</g>
</svg>
