<?xml version="1.0" encoding="iso-8859-1"?>
<!-- Generator: Adobe Illustrator 19.0.0, SVG Export Plug-In . SVG Version: 6.00 Build 0)  -->
<svg version="1.1" id="Layer_1" xmlns="http://www.w3.org/2000/svg" xmlns:xlink="http://www.w3.org/1999/xlink" x="0px" y="0px"
	 viewBox="0 0 512 512" style="enable-background:new 0 0 512 512;" xml:space="preserve">
<g>
	<path style="fill:#32D736;" d="M510.875,172.482c-2.701,5.7-8.701,9.3-15.3,9c-44.401-4.501-112.075,42.001-136.975,81.599H156.7
		c-24.6-39.598-96.174-86.1-140.275-81.599c-6.599,0.601-12.599-3.3-15.3-9c-2.399-6-0.899-12.9,3.9-17.401
		c37.2-33.3,32.574-93.3,16.074-134.399c-2.399-6-0.599-12.9,4.2-17.1c5.099-4.2,12.001-4.801,17.701-1.201
		c37.798,23.401,94.499,33.001,135,0.901c5.099-3.9,12.299-4.2,17.699-0.601s7.8,10.201,6,16.501
		c-11.7,43.198,19.2,116.398,54.3,152.699l1.8,1.8c36-35.7,67.8-110.7,55.8-154.499c-1.8-6.301,0.601-12.902,6-16.501
		s12.599-3.3,17.701,0.601c40.499,32.1,97.2,22.5,135.298-0.901c5.402-3.6,12.601-2.999,17.401,1.201c5.099,4.2,6.601,11.1,4.2,17.1
		c-16.199,41.1-24.425,101.1,12.775,134.399C511.774,159.583,513.274,166.482,510.875,172.482z"/>
	<path style="fill:#10BB67;" d="M510.875,172.482c-2.701,5.7-8.701,9.3-15.3,9c-44.401-4.501-112.075,42.001-136.975,81.599H256
		v-91.199l1.8,1.8c36-35.7,67.8-110.7,55.8-154.499c-1.8-6.301,0.601-12.902,6-16.501s12.599-3.3,17.701,0.601
		c40.499,32.1,97.2,22.5,135.298-0.901c5.402-3.6,12.601-2.999,17.401,1.201c5.099,4.2,6.601,11.1,4.2,17.1
		c-16.199,41.1-24.425,101.1,12.775,134.399C511.774,159.583,513.274,166.482,510.875,172.482z"/>
	<g>
		<g>
			<path style="fill:#10BB67;" d="M204.496,227.766c-4.102,0-8.188-1.67-11.147-4.966l-83.496-92.783
				c-5.537-6.152-5.039-15.645,1.113-21.182c6.152-5.552,15.63-5.068,21.182,1.113l83.496,92.783
				c5.537,6.152,5.039,15.645-1.113,21.182C211.659,226.491,208.07,227.766,204.496,227.766z"/>
		</g>
	</g>
	<g>
		<path style="fill:#0CA656;" d="M308.075,227.106c-3.574,0-7.163-1.274-10.034-3.853c-6.152-5.537-6.65-15.029-1.113-21.182
			l82.925-92.124c5.552-6.152,15.029-6.636,21.182-1.113c6.152,5.537,6.65,15.029,1.113,21.182l-82.925,92.124
			C316.264,225.436,312.177,227.106,308.075,227.106z"/>
	</g>
	<path style="fill:#E50027;" d="M451.601,406.182c0,57.9-47.1,105.801-105,105.801c-38.101,0-71.4-19.801-90-50.7
		c-0.3,0.3-0.3-0.601-0.601-0.3c-18.3,30.3-51.301,51-89.399,51c-57.601,0-105-47.901-105-105.801s47.399-105,105-105
		c38.099,0,71.1,20.4,89.399,50.7c0.3,0.3,0.3,0.601,0.601,0.901c18.6-30.901,51.899-51.601,90-51.601
		C404.5,301.182,451.601,348.282,451.601,406.182z"/>
	<path style="fill:#C1001F;" d="M451.601,406.182c0,57.9-47.1,105.801-105,105.801c-38.101,0-71.4-19.801-90-50.7
		c-0.3,0.3-0.3-0.601-0.601-0.3v-109.1c0.3,0.3,0.3,0.601,0.601,0.901c18.6-30.901,51.899-51.601,90-51.601
		C404.5,301.182,451.601,348.282,451.601,406.182z"/>
	<g>
		<path style="fill:#FD003A;" d="M256.601,181.182c-0.3,0-0.3,0-0.601,0c-57.299,0.3-104.399,47.401-104.399,105
			s47.1,104.7,104.399,105c0.3,0,0.3,0,0.601,0c57.9,0,105-47.1,105-105S314.5,181.182,256.601,181.182z"/>
	</g>
	<path style="fill:#E50027;" d="M361.601,286.182c0,57.9-47.1,105-105,105c-0.3,0-0.3,0-0.601,0v-210c0.3,0,0.3,0,0.601,0
		C314.5,181.182,361.601,228.282,361.601,286.182z"/>
</g>
<g>
</g>
<g>
</g>
<g>
</g>
<g>
</g>
<g>
</g>
<g>
</g>
<g>
</g>
<g>
</g>
<g>
</g>
<g>
</g>
<g>
</g>
<g>
</g>
<g>
</g>
<g>
</g>
<g>
</g>
</svg>
