<?xml version="1.0" encoding="iso-8859-1"?>
<!-- Generator: Adobe Illustrator 19.0.0, SVG Export Plug-In . SVG Version: 6.00 Build 0)  -->
<svg version="1.1" id="Layer_1" xmlns="http://www.w3.org/2000/svg" xmlns:xlink="http://www.w3.org/1999/xlink" x="0px" y="0px"
	 viewBox="0 0 512 512" style="enable-background:new 0 0 512 512;" xml:space="preserve">
<g>
	<path style="fill:#CCEFFF;" d="M391,91c-5.7,0-11.4,0.599-17.401,1.5C350.2,45.399,306.7,11.999,256,2.999
		C246.4,0.899,236.201,0,226,0C148.599,0,82.301,54.699,65.501,129.699C26.499,145.899,0,183.399,0,226c0,57.9,48.1,106,106,106h285
		c66.301,0,121-54.701,121-121C512,144.699,457.301,91,391,91z"/>
	<circle style="fill:#ACE3FC;" cx="406" cy="377" r="15"/>
	<path style="fill:#CCEFFF;" d="M337.899,452c-4.199,7.2-13.499,9.6-20.4,5.4l-16.5-9.3V467c0,8.399-6.599,15-15,15s-15-6.601-15-15
		v-18.9l-16.5,9.3c-6.901,4.2-16.201,1.8-20.4-5.4c-4.2-7.2-1.8-16.201,5.4-20.4L256,422l-16.5-9.6c-7.2-4.2-9.6-13.2-5.4-20.4
		c4.199-7.2,13.2-9.6,20.4-5.4l16.5,9.3V377c0-8.401,6.599-15,15-15s15,6.599,15,15v18.9l16.5-9.3c7.2-4.2,16.201-1.8,20.4,5.4
		c4.2,7.2,1.8,16.199-5.4,20.4L316,422l16.5,9.6C339.699,435.799,342.1,444.8,337.899,452z"/>
	<circle style="fill:#CCEFFF;" cx="106" cy="377" r="15"/>
	<circle style="fill:#CCEFFF;" cx="166" cy="407" r="15"/>
	<circle style="fill:#CCEFFF;" cx="196" cy="497" r="15"/>
	<circle style="fill:#ACE3FC;" cx="376" cy="497" r="15"/>
	<g>
		<path style="fill:#CCEFFF;" d="M151,467c0,8.399-6.599,15-15,15h-15v15c0,8.399-6.599,15-15,15s-15-6.601-15-15v-15H76
			c-8.401,0-15-6.601-15-15c0-8.401,6.599-15,14.531-13.594h15L91,437c0-8.401,6.599-15,15-15s15,6.599,15,15v15h15
			C144.401,452,151,458.599,151,467z"/>
	</g>
	<path style="fill:#ACE3FC;" d="M512,211c0,66.299-54.699,121-121,121H256V2.999c50.7,9,94.2,42.4,117.599,89.5
		c6-0.901,11.7-1.5,17.401-1.5C457.301,91,512,144.699,512,211z"/>
</g>
<g>
</g>
<g>
</g>
<g>
</g>
<g>
</g>
<g>
</g>
<g>
</g>
<g>
</g>
<g>
</g>
<g>
</g>
<g>
</g>
<g>
</g>
<g>
</g>
<g>
</g>
<g>
</g>
<g>
</g>
</svg>
