<?xml version="1.0" encoding="iso-8859-1"?>
<!-- Generator: Adobe Illustrator 19.0.0, SVG Export Plug-In . SVG Version: 6.00 Build 0)  -->
<svg version="1.1" id="Layer_1" xmlns="http://www.w3.org/2000/svg" xmlns:xlink="http://www.w3.org/1999/xlink" x="0px" y="0px"
	 viewBox="0 0 512 512" style="enable-background:new 0 0 512 512;" xml:space="preserve">
<g>
	<path style="fill:#CCEFFF;" d="M356.499,477.499c-4.799,5.099-8.399,11.1-10.499,17.401c-0.601,1.8-1.199,3.3-1.5,5.099
		c-1.201,7.2-7.5,12.001-14.7,12.001c-0.901,0-1.8,0-3.001-0.3c-8.099-1.5-13.2-9.6-11.7-17.701
		c3.001-14.399,9.901-28.299,20.402-38.5c5.099-5.099,9-11.699,10.499-18.6c2.701-8.099,2.999-16.8,0-25.199
		c-0.3-2.401-1.199-4.501-2.401-6.901l-11.1-22.2c-3.6-7.2-0.599-16.199,6.901-20.099c2.098-0.901,4.199-1.5,6.599-1.5
		c5.4,0,10.8,2.999,13.5,8.399l10.8,21.901C384.699,419.799,378.999,454.999,356.499,477.499z"/>
	<path style="fill:#32D736;" d="M346,61c-82.8,0-150,74.099-150,165c0,90.899,67.2,165,150,165s150-74.101,150-165
		C496,135.099,428.8,61,346,61z"/>
	<path style="fill:#10BB67;" d="M496,226c0,90.899-67.2,165-150,165V61C428.8,61,496,135.099,496,226z"/>
	<path style="fill:#CCEFFF;" d="M179.5,490.399c3.6,7.2,0.599,16.201-6.901,20.101c-2.098,0.899-4.199,1.5-6.599,1.5
		c-5.4,0-10.8-3.001-13.5-8.401L141.7,481.7c-14.399-28.5-8.699-63.701,13.801-86.201c5.099-5.099,9-11.699,10.499-18.6
		c2.701-8.099,2.999-16.8,0-25.199c-0.3-2.401-1.199-4.501-2.401-6.901l-11.1-22.2c-3.6-7.2-0.599-16.199,6.901-20.099
		c2.098-0.901,4.199-1.5,6.599-1.5c5.4,0,10.8,2.999,13.5,8.399l10.8,21.901c14.399,28.499,8.699,62.699-13.801,85.199
		c-5.099,5.099-9,11.7-10.499,18.6c-2.701,8.101-2.999,16.8,0,25.201c0.3,2.401,1.199,5.499,2.401,7.899L179.5,490.399z"/>
	<path style="fill:#FD003A;" d="M166,0C83.2,0,16,75.099,16,166c0,90.899,67.2,165,150,165s150-74.101,150-165
		C316,75.099,248.8,0,166,0z"/>
	<path style="fill:#E50027;" d="M316,166c0,90.899-67.2,165-150,165V0C248.8,0,316,75.099,316,166z"/>
	<path style="fill:#FEDB41;" d="M253.9,132.999c-1.8-5.4-6.599-9.3-12.299-10.199l-44.101-6.301L177.7,76.3
		c-2.1-4.501-6.901-6.901-11.7-7.202c-6-0.899-12.299,1.501-15,7.202l-19.799,40.199L87.1,122.8
		c-5.7,0.899-10.499,4.799-12.299,10.199c-1.501,5.4,0,11.4,3.9,15.3l32.098,31.201l-7.798,44.099c-0.901,5.4,1.5,11.1,5.999,14.399
		c4.801,3.6,10.801,3.9,15.901,1.201l39.6-20.7l1.5,0.899l37.8,19.801c5.099,2.699,11.1,2.399,15.899-1.201
		c4.501-3.3,6.901-9,6-14.399l-7.5-44.099l31.8-31.201C254.2,144.399,255.7,138.399,253.9,132.999z"/>
	<path style="fill:#FCBF29;" d="M203.8,239.2c5.098,2.699,11.1,2.399,15.901-1.201c4.497-3.3,6.899-9,5.999-14.399l-7.5-44.099
		l31.802-31.201c4.197-3.9,5.698-9.901,3.896-15.3c-1.798-5.4-6.599-9.3-12.297-10.199l-44.099-6.301L177.7,76.3
		c-2.098-4.501-6.903-6.901-11.7-7.202v150.3L203.8,239.2z"/>
</g>
<g>
</g>
<g>
</g>
<g>
</g>
<g>
</g>
<g>
</g>
<g>
</g>
<g>
</g>
<g>
</g>
<g>
</g>
<g>
</g>
<g>
</g>
<g>
</g>
<g>
</g>
<g>
</g>
<g>
</g>
</svg>
