<?xml version="1.0" encoding="iso-8859-1"?>
<!-- Generator: Adobe Illustrator 19.0.0, SVG Export Plug-In . SVG Version: 6.00 Build 0)  -->
<svg version="1.1" id="Layer_1" xmlns="http://www.w3.org/2000/svg" xmlns:xlink="http://www.w3.org/1999/xlink" x="0px" y="0px"
	 viewBox="0 0 514 514" style="enable-background:new 0 0 514 514;" xml:space="preserve">
<g>
	<path style="fill:#FEA832;" d="M257,271c-24.901,0-45,20.099-45,45s20.099,45,45,45s45-20.099,45-45S281.901,271,257,271z"/>
	<path style="fill:#FE9923;" d="M302,316c0,24.901-20.099,45-45,45v-90C281.901,271,302,291.099,302,316z"/>
	<path style="fill:#FEDB41;" d="M357.499,275.501C341.3,258.999,332,236.499,332,213.701V196c0-41.4-33.6-75-75-75s-75,33.6-75,75
		v17.701c0,22.798-9.3,45.298-25.499,61.8c-4.501,4.199-5.7,10.499-3.301,16.199C155.6,297.4,161,301,167,301h180
		c6,0,11.4-3.6,13.801-9.3C363.199,286,362,279.699,357.499,275.501z"/>
	<path style="fill:#FCBF29;" d="M360.801,291.7C358.4,297.4,353,301,347,301h-90V121c41.4,0,75,33.6,75,75v17.701
		c0,22.798,9.3,45.298,25.499,61.8C362,279.699,363.199,286,360.801,291.7z"/>
	<path style="fill:#32D736;" d="M442.7,430.6C396.2,480.099,330.2,513,257,513c-72.299,0-137.401-32-183.9-80.6l82.8-87.301
		C180.5,373.299,216.501,391,257,391c42.001,0,79.501-19.2,104.099-49.2L442.7,430.6z"/>
	<path style="fill:#10BB67;" d="M442.7,430.6C396.2,480.099,330.2,513,257,513V391c42.001,0,79.501-19.2,104.099-49.2L442.7,430.6z"
		/>
	<path style="fill:#10BB67;" d="M155.9,345.099c-2.1-1.8-3.9-3.898-5.099-6.299C136.86,324.859,122,289.669,122,256
		c0-2.999,0-6,0.3-9L0,254.2v1.8c0,62.999,24.8,120.601,62.901,165.3v0.3c3.3,3.6,6.599,7.5,10.199,10.8
		c23.222,17.074,55.231,15.873,77.701-6.601C170.26,406.343,176.214,370.497,155.9,345.099z"/>
	<path style="fill:#0CA656;" d="M392,253.599V256c0,31.5-10.8,60.601-28.801,83.401c-0.599,0.599-1.5,1.5-2.1,2.399
		c-22.999,24.353-19.181,62.722,2.1,84c20.556,20.559,55.545,23.824,79.501,4.801c2.999-3.001,6-6.601,9-9.901
		C489.2,376.3,514,318.701,514,256v-6L392,253.599z"/>
	<path style="fill:#32D736;" d="M513.099,234.401C501.999,103.9,390.5,1,257,1C124.1,1,12.9,103.001,0.901,232.599
		C0.3,239.801,0,247,0,254.2c6.599,26.7,33.5,46.8,62,46.8c30.901,0,57.001-23.699,60.3-54c0.3-1.5,0.3-3.001,0.3-4.801
		C129.5,174.101,187.099,121,257,121c68.699,0,125.099,50.7,133.801,117.001c0,0,0,0,0,0.298c0.599,5.101,1.199,10.201,1.199,15.3
		C398,280.6,423.199,301,452,301c30,0,57.499-22.2,62-51C513.7,244.9,513.399,239.5,513.099,234.401z"/>
	<path style="fill:#10BB67;" d="M514,250c-4.501,28.801-32,51-62,51c-28.801,0-54-20.4-60-47.401c0-5.099-0.601-10.199-1.199-15.3
		c0-0.298,0-0.298,0-0.298C382.099,171.7,325.699,121,257,121V1c133.5,0,244.999,102.9,256.099,233.401
		C513.399,239.5,513.7,244.9,514,250z"/>
	<path style="fill:#E50027;" d="M400.657,26.254c-13.33-8.218-29.707-9.009-43.784-1.963L302,61l-15,12.513v62.593L302,151
		l54.873,36.709c14.009,7.02,30.392,6.299,43.784-1.963C414.017,177.484,422,163.173,422,147.455v-82.91
		C422,48.827,414.017,34.516,400.657,26.254z"/>
	<path style="fill:#FD003A;" d="M212,61l-54.873-36.709c-14.048-7.031-30.425-6.284-43.784,1.963C99.983,34.516,92,48.827,92,64.545
		v82.91c0,15.718,7.983,30.029,21.343,38.291c13.392,8.262,29.774,8.984,43.784,1.963L212,151l15-11.262V74.401L212,61z"/>
	<path style="fill:#E50027;" d="M227,121h-60c-8.291,0-15-6.709-15-15s6.709-15,15-15h60c8.291,0,15,6.709,15,15
		S235.291,121,227,121z"/>
	<path style="fill:#C1001F;" d="M347,121h-60c-8.291,0-15-6.709-15-15s6.709-15,15-15h60c8.291,0,15,6.709,15,15
		S355.291,121,347,121z"/>
	<path style="fill:#FEA832;" d="M212,61v90h90V61H212z"/>
	<rect x="257" y="61" style="fill:#FE9923;" width="45" height="90"/>
</g>
<g>
</g>
<g>
</g>
<g>
</g>
<g>
</g>
<g>
</g>
<g>
</g>
<g>
</g>
<g>
</g>
<g>
</g>
<g>
</g>
<g>
</g>
<g>
</g>
<g>
</g>
<g>
</g>
<g>
</g>
</svg>
