<?xml version="1.0" encoding="iso-8859-1"?>
<!-- Generator: Adobe Illustrator 19.0.0, SVG Export Plug-In . SVG Version: 6.00 Build 0)  -->
<svg version="1.1" id="Layer_1" xmlns="http://www.w3.org/2000/svg" xmlns:xlink="http://www.w3.org/1999/xlink" x="0px" y="0px"
	 viewBox="0 0 512 512" style="enable-background:new 0 0 512 512;" xml:space="preserve">
<g>
	<path style="fill:#CCEFFF;" d="M106,512c-8.291,0-15-6.709-15-15v-60c0-8.291,6.709-15,15-15s15,6.709,15,15v60
		C121,505.291,114.291,512,106,512z"/>
	<path style="fill:#CCEFFF;" d="M376,422H256c-8.401,0-15,6.599-15,15v60c0,8.401,6.599,15,15,15h120c8.401,0,15-6.599,15-15v-60
		C391,428.599,384.401,422,376,422z M361,482h-90v-30h90V482z"/>
	<path style="fill:#ACE3FC;" d="M391,437v60c0,8.401-6.599,15-15,15h-60v-30h45v-30h-45v-30h60C384.401,422,391,428.599,391,437z"/>
	<path style="fill:#CCEFFF;" d="M481,437c0,41.4-33.6,75-75,75H46c-8.401,0-15-6.599-15-15s6.599-15,15-15h360
		c24.901,0,45-20.099,45-45c0-8.401,6.599-15,15-15S481,428.599,481,437z"/>
	<path style="fill:#ACE3FC;" d="M481,437c0,41.4-33.6,75-75,75H184v-30h222c24.901,0,45-20.099,45-45c0-8.401,6.599-15,15-15
		S481,428.599,481,437z"/>
	<path style="fill:#994C0F;" d="M31,392v15c0,24.814,20.186,45,45,45h60c24.814,0,45-20.186,45-45v-15l-15-15H45.996L31,392z"/>
	<path style="fill:#713708;" d="M421,392v15c0,24.901-20.099,45-45,45H256c-24.901,0-45-20.099-45-45v-15l24.901-15H406L421,392z"/>
	<path style="fill:#FD003A;" d="M293.443,223.03l-14.852-2.477c-7.161-1.194-13.415-4.541-18.992-8.553
		c-8.041-5.785-66.476-33-66.476-33S241,137.624,241,121.124V30V15c0-8.284-6.716-15-15-15h-30c-19.565,0-36.048,12.563-42.246,30
		h-0.19H76c-24.853,0-45,20.147-45,45v167l150,150h90l30-30L293.443,223.03z"/>
	<path style="fill:#FD003A;" d="M293.443,223.03l-14.852-2.477c-7.161-1.194-13.415-4.541-18.992-8.553
		c-8.041-5.785-66.476-33-66.476-33S241,137.624,241,121.124V30V15c0-8.284-6.716-15-15-15h-30c-19.565,0-36.048,12.563-42.246,30
		h-0.19H76c-24.853,0-45,20.147-45,45v167l150,150h90l30-30L293.443,223.03z"/>
	<g>
		<path style="fill:#E50027;" d="M301,362l-7.557-138.97l-14.852-2.477c-7.161-1.194-13.415-4.541-18.992-8.553
			c-8.041-5.785-66.476-33-66.476-33S241,137.624,241,121.124V30V15c0-8.284-6.716-15-15-15h-30c-4.163,0-8.185,0.574-12,1.638V392
			h87L301,362z"/>
	</g>
	<path style="fill:#FE9923;" d="M358.345,233.857l-29.183-4.869l-35.718-5.958C279.375,241.22,271,263.482,271,287v105h30h105h15
		v-84.17C421,271.174,394.501,239.889,358.345,233.857z"/>
	<path style="fill:#FEA832;" d="M46,242H31v150h150v-15C181,302.557,120.443,242,46,242z"/>
	<path style="fill:#FEA832;" d="M259.6,212H136c-8.401,0-15-6.599-15-15c0-41.4,33.6-76,75-76h45v55.3
		C241,191,248.5,203.599,259.6,212z"/>
</g>
<g>
	<path style="fill:#FE9923;" d="M241,176.3V121h-45c-4.085,0-8.091,0.349-12,0.997V212h75.6C248.5,203.599,241,191,241,176.3z"/>
</g>
<g>
</g>
<g>
</g>
<g>
</g>
<g>
</g>
<g>
</g>
<g>
</g>
<g>
</g>
<g>
</g>
<g>
</g>
<g>
</g>
<g>
</g>
<g>
</g>
<g>
</g>
<g>
</g>
<g>
</g>
</svg>
