<?xml version="1.0" encoding="iso-8859-1"?>
<!-- Generator: Adobe Illustrator 19.0.0, SVG Export Plug-In . SVG Version: 6.00 Build 0)  -->
<svg version="1.1" id="Layer_1" xmlns="http://www.w3.org/2000/svg" xmlns:xlink="http://www.w3.org/1999/xlink" x="0px" y="0px"
	 viewBox="0 0 512 512" style="enable-background:new 0 0 512 512;" xml:space="preserve">
<g>
	<path style="fill:#32D736;" d="M201.621,40.532C188.657,15.527,163.124,0,135,0C93.647,0,60,33.647,60,75s33.647,75,75,75h60
		l42.426-55.137C224.198,79.98,212.944,62.373,201.621,40.532z"/>
	<path style="fill:#10BB67;" d="M225,120c-31.26,0-58.35-15.245-76.582-51.709c-3.721-7.397-12.7-10.4-20.127-6.709
		c-7.412,3.706-10.415,12.715-6.709,20.127C145.263,129.071,183.076,150,225,150c8.291,0,16-6.709,16-15S233.291,120,225,120z"/>
	<path style="fill:#10BB67;" d="M377,0c-28.126,0-53.657,15.527-66.621,40.532c-11.323,21.841-22.577,39.448-35.805,54.331L317,150
		h60c41.353,0,75-33.647,75-75S418.353,0,377,0z"/>
	<path style="fill:#10BB67;" d="M256,60c-24.901,0-46,20.099-46,45c0,24.899,21.099,45,46,45s46-20.101,46-45
		C302,80.099,280.901,60,256,60z"/>
	<path style="fill:#0CA656;" d="M383.709,61.582c-7.383-3.691-16.406-0.688-20.127,6.709C345.465,104.526,318.514,120,287,120
		c-8.291,0-16,6.709-16,15s7.709,15,16,15c42.189,0,79.843-21.141,103.418-68.291C394.124,74.297,391.121,65.288,383.709,61.582z"/>
	<path style="fill:#0CA656;" d="M302,105c0,24.899-21.099,45-46,45V60C280.901,60,302,80.099,302,105z"/>
	<path style="fill:#E50027;" d="M482,210v257c0,24.899-20.099,45-45,45H75c-24.901,0-45-20.101-45-45V210H482z"/>
	<path style="fill:#C1001F;" d="M256,512h181c24.902,0,45-20.101,45-45V210H256V512z"/>
	<path style="fill:#FD003A;" d="M512,165v30c0,24.899-20.099,45-45,45H45c-24.901,0-45-20.101-45-45v-30c0-24.901,20.099-45,45-45
		h422C491.901,120,512,140.099,512,165z"/>
	<path style="fill:#E50027;" d="M512,165v30c0,24.899-20.099,45-45,45H256V120h211C491.901,120,512,140.099,512,165z"/>
	<rect x="180" y="120" style="fill:#FEDB41;" width="152" height="392"/>
	<rect x="256" y="120" style="fill:#FFCC33;" width="76" height="392"/>
	<path style="fill:#FEA832;" d="M271,120v45c0,8.399-6.599,15-15,15s-15-6.601-15-15v-45H271z"/>
	<path style="fill:#FE9923;" d="M271,120v45c0,8.399-6.599,15-15,15v-60H271z"/>
	<path style="fill:#FEA832;" d="M271,467v45h-30v-45c0-8.401,6.599-15,15-15S271,458.599,271,467z"/>
	<path style="fill:#FE9923;" d="M271,467v45h-15v-60C264.401,452,271,458.599,271,467z"/>
</g>
<g>
</g>
<g>
</g>
<g>
</g>
<g>
</g>
<g>
</g>
<g>
</g>
<g>
</g>
<g>
</g>
<g>
</g>
<g>
</g>
<g>
</g>
<g>
</g>
<g>
</g>
<g>
</g>
<g>
</g>
</svg>
