<?xml version="1.0" encoding="iso-8859-1"?>
<!-- Generator: Adobe Illustrator 19.0.0, SVG Export Plug-In . SVG Version: 6.00 Build 0)  -->
<svg version="1.1" id="Layer_1" xmlns="http://www.w3.org/2000/svg" xmlns:xlink="http://www.w3.org/1999/xlink" x="0px" y="0px"
	 viewBox="0 0 513 513" style="enable-background:new 0 0 513 513;" xml:space="preserve">
<g>
	<rect x="91" y="91.5" style="fill:#FD003A;" width="360" height="361"/>
	<rect x="271" y="91.5" style="fill:#E50027;" width="180" height="361"/>
	<path style="fill:#CCEFFF;" d="M466,0.5H76c-24.901,0-46,20.099-46,45v31c0,24.899,21.099,45,46,45h165v15
		c0,19.499,12.599,36.299,30,42.299c4.799,1.8,9.6,2.701,15,2.701c24.901,0,45-20.101,45-45c0-8.401,6.599-15,15-15s15,6.599,15,15
		v60c0,24.899,20.099,45,45,45s45-20.101,45-45v-75h15c24.901,0,47-20.101,47-45v-31C513,20.599,490.901,0.5,466,0.5z"/>
	<path style="fill:#E50027;" d="M211,241.5v91h240v30H181v-121H91v-30c107.1,0,96.599,0,180,0h30v-90h30v90h120v30H211z"/>
	<g>
		<g>
			<polygon style="fill:#C1001F;" points="451,211.5 451,241.5 271,241.5 271,211.5 301,211.5 301,121.5 331,121.5 331,211.5 			"/>
			<rect x="271" y="332.5" style="fill:#C1001F;" width="180" height="30"/>
		</g>
	</g>
	<path style="fill:#ACE3FC;" d="M513,45.5v31c0,24.899-22.099,45-47,45h-15v75c0,24.899-20.099,45-45,45s-45-20.101-45-45v-60
		c0-8.401-6.599-15-15-15s-15,6.599-15,15c0,24.899-20.099,45-45,45c-5.4,0-10.201-0.901-15-2.701V0.5h195
		C490.901,0.5,513,20.599,513,45.5z"/>
	<path style="fill:#CCEFFF;" d="M464.801,431.8L271,362.5L20.099,273.399c-4.499-1.5-9.899-0.899-13.799,1.8
		C2.401,278.2,0,282.699,0,287.5v210c0,8.399,6.599,15,15,15h483c8.401,0,15-6.601,15-15C513,468.099,492.4,441.7,464.801,431.8z"/>
	<path style="fill:#ACE3FC;" d="M513,497.5c0,8.399-6.599,15-15,15H271v-150l193.801,69.3C492.4,441.7,513,468.099,513,497.5z"/>
</g>
<g>
</g>
<g>
</g>
<g>
</g>
<g>
</g>
<g>
</g>
<g>
</g>
<g>
</g>
<g>
</g>
<g>
</g>
<g>
</g>
<g>
</g>
<g>
</g>
<g>
</g>
<g>
</g>
<g>
</g>
</svg>
