<?xml version="1.0" encoding="iso-8859-1"?>
<!-- Generator: Adobe Illustrator 19.0.0, SVG Export Plug-In . SVG Version: 6.00 Build 0)  -->
<svg version="1.1" id="Layer_1" xmlns="http://www.w3.org/2000/svg" xmlns:xlink="http://www.w3.org/1999/xlink" x="0px" y="0px"
	 viewBox="0 0 512 512" style="enable-background:new 0 0 512 512;" xml:space="preserve">
<g>
	<path style="fill:#BF6015;" d="M256,0C165.099,0,91,74.099,91,165v302c0,8.399,6.599,15,15,15h300c8.401,0,15-6.601,15-15V165
		C421,74.099,346.901,0,256,0z"/>
	<path style="fill:#994C0F;" d="M421,165v302c0,8.399-6.599,15-15,15H256V0C346.901,0,421,74.099,421,165z"/>
	<path style="fill:#CCEFFF;" d="M391,309.3V452H121V285.3c8.401-5.101,17.402-9.001,27.297-11.7
		c37.5-10.501,77.402-2.701,107.703,21c3.9,2.999,7.8,6.299,11.4,9.899c24.598,24.6,60.601,33.001,93.6,21.901
		C372.1,322.5,382.299,316.8,391,309.3z"/>
	<path style="fill:#ACE3FC;" d="M391,452V309.3c-8.701,7.5-18.9,13.2-30,17.1c-32.999,11.1-69.001,2.699-93.6-21.901
		c-3.6-3.6-7.5-6.899-11.4-9.899V452H391z"/>
	<g>
		<path style="fill:#81C8EE;" d="M256,30c-74.399,0-135,60.599-135,135v120.3c8.401-5.101,17.402-9.001,27.297-11.7
			c37.5-10.501,77.402-2.701,107.703,21c3.9,2.999,7.8,6.299,11.4,9.899c24.598,24.6,60.601,33.001,93.6,21.901
			c11.1-3.9,21.299-9.6,30-17.1V165C391,90.599,330.399,30,256,30z"/>
	</g>
	<path style="fill:#4DBBEB;" d="M267.4,304.499c24.598,24.6,60.601,33.001,93.6,21.901c11.1-3.9,21.299-9.6,30-17.1V165
		c0-74.401-60.601-135-135-135v264.6C259.9,297.599,263.8,300.899,267.4,304.499z"/>
	<circle style="fill:#ACE3FC;" cx="316" cy="105" r="15"/>
	<circle style="fill:#CCEFFF;" cx="196" cy="105" r="15"/>
	<circle style="fill:#CCEFFF;" cx="166" cy="225" r="15"/>
	<path style="fill:#ACE3FC;" d="M352.958,241.069l10.605-10.605c5.859-5.859,5.859-15.352,0-21.211s-15.352-5.859-21.211,0
		l-10.605,10.605l-10.605-10.605c-5.859-5.859-15.352-5.859-21.211,0s-5.859,15.352,0,21.211l10.605,10.605l-10.605,10.605
		c-5.859,5.859-5.859,15.352,0,21.211c5.86,5.86,15.351,5.86,21.211,0l10.605-10.605l10.605,10.605c5.86,5.86,15.351,5.86,21.211,0
		c5.859-5.859,5.859-15.352,0-21.211L352.958,241.069z"/>
	<path style="fill:#BF6015;" d="M271,15v422c0,8.399-6.599,15-15,15s-15-6.601-15-15V15c0-8.401,6.599-15,15-15S271,6.599,271,15z"
		/>
	<path style="fill:#BF6015;" d="M421,165c0,8.399-6.599,15-15,15H106c-8.401,0-15-6.601-15-15c0-8.401,6.599-15,15-15h300
		C414.401,150,421,156.599,421,165z"/>
	<path style="fill:#994C0F;" d="M421,165c0,8.399-6.599,15-15,15H256v-30h150C414.401,150,421,156.599,421,165z"/>
	<path style="fill:#994C0F;" d="M271,15v422c0,8.399-6.599,15-15,15V0C264.401,0,271,6.599,271,15z"/>
	<path style="fill:#994C0F;" d="M436,422H76c-8.401,0-15,6.599-15,15v60c0,8.399,6.599,15,15,15h360c8.401,0,15-6.601,15-15v-60
		C451,428.599,444.401,422,436,422z"/>
	<path style="fill:#713708;" d="M451,437v60c0,8.399-6.599,15-15,15H256v-90h180C444.401,422,451,428.599,451,437z"/>
</g>
<g>
</g>
<g>
</g>
<g>
</g>
<g>
</g>
<g>
</g>
<g>
</g>
<g>
</g>
<g>
</g>
<g>
</g>
<g>
</g>
<g>
</g>
<g>
</g>
<g>
</g>
<g>
</g>
<g>
</g>
</svg>
