<?xml version="1.0" encoding="iso-8859-1"?>
<!-- Generator: Adobe Illustrator 19.0.0, SVG Export Plug-In . SVG Version: 6.00 Build 0)  -->
<svg version="1.1" id="Layer_1" xmlns="http://www.w3.org/2000/svg" xmlns:xlink="http://www.w3.org/1999/xlink" x="0px" y="0px"
	 viewBox="0 0 513 513" style="enable-background:new 0 0 513 513;" xml:space="preserve">
<g>
	<g id="Candy_2_">
		<g>
			<path style="fill:#32D736;" d="M112.291,512.574c-3.926,0-7.734-1.538-10.605-4.395l-97.295-97.28
				c-4.043-4.028-5.42-10.005-3.604-15.41s6.563-9.302,12.217-10.063l114.529-16.017c4.717-0.645,9.287,0.967,12.598,4.263
				c3.311,3.311,4.893,7.954,4.248,12.598l-17.234,113.297c-0.732,5.654-4.629,10.386-10.049,12.217
				C115.514,512.311,113.903,512.574,112.291,512.574z"/>
		</g>
	</g>
	<path style="fill:#10BB67;" d="M101.686,508.18c2.871,2.856,6.68,4.395,10.605,4.395c1.611,0,3.223-0.264,4.805-0.791
		c5.42-1.831,9.316-6.563,10.049-12.217l17.234-113.297c0.645-4.644-0.938-9.287-4.248-12.598l-87.089,85.871L101.686,508.18z"/>
	<g>
		<path style="fill:#32D736;" d="M383.852,144.937c-3.955,0-7.764-1.567-10.605-4.395c-3.311-3.311-4.893-7.954-4.248-12.598
			l16.857-114.523c0.732-5.654,4.629-10.386,10.049-12.217c5.449-1.802,11.367-0.425,15.41,3.604l97.295,97.295
			c4.043,4.028,5.42,10.005,3.604,15.41s-6.563,9.302-12.217,10.063l-114.152,17.228
			C385.17,144.893,384.496,144.937,383.852,144.937z"/>
	</g>
	<path style="fill:#10BB67;" d="M383.852,144.937c0.645,0,1.318-0.044,1.992-0.132l114.152-17.228
		c5.654-0.762,10.4-4.658,12.217-10.063s0.439-11.382-3.604-15.41L459.96,53.453l-86.714,87.089
		C376.088,143.369,379.896,144.937,383.852,144.937z"/>
	<g>
		<path style="fill:#FD003A;" d="M444.401,181.426c-3.602-11.1-9.6-21.601-18.001-30c-0.3-0.3-0.601-0.601-0.899-0.901l-63.6-63.6
			c-28.2-28.5-77.701-28.5-105.901,0L86.499,256.426c-4.499,4.499-8.699,9.6-11.699,15c-6.901,11.4-10.501,24.3-10.501,37.8
			c0,7.5,1.201,15,3.3,22.2c3.602,11.1,9.6,21.599,18.001,30c0.3,0.3,0.601,0.599,0.899,0.899l11.1,11.1l42.902,42.9l9.598,9.6
			c14.101,14.401,33.001,22.202,53.101,22.202c19.801,0,38.701-7.8,52.8-22.202l64.501-64.499l105-105
			c4.499-4.501,8.699-9.6,11.699-15c6.901-11.4,10.501-24.3,10.501-37.8C447.7,196.125,446.499,188.625,444.401,181.426z"/>
	</g>
	<path style="fill:#E50027;" d="M256,425.925l64.501-64.499l105-105c4.499-4.501,8.699-9.6,11.699-15
		c6.901-11.4,10.501-24.3,10.501-37.8c0-7.5-1.201-15-3.3-22.2c-3.602-11.1-9.6-21.601-18.001-30c-0.3-0.3-0.601-0.601-0.899-0.901
		l-31.119-31.119L140.131,373.672l-21.141,21.141l21.511,21.511l9.598,9.6c14.101,14.401,33.001,22.202,53.101,22.202
		C223.001,448.126,241.901,440.326,256,425.925z"/>
	<g>
		<g>
			<path style="fill:#32D736;" d="M444.401,181.426H161.499l30-30H426.4C434.801,159.825,440.799,170.326,444.401,181.426z"/>
		</g>
		<g>
			<path style="fill:#32D736;" d="M437.199,241.426c-2.999,5.4-7.2,10.499-11.699,15l-15,15h-335.7c2.999-5.4,7.2-10.501,11.699-15
				l15-15H437.199z"/>
		</g>
		<g>
			<path style="fill:#32D736;" d="M350.501,331.426l-30,30H85.6c-8.401-8.401-14.399-18.9-18.001-30H350.501z"/>
		</g>
	</g>
	<polygon style="fill:#10BB67;" points="350.501,331.426 182.375,331.426 152.377,361.426 320.501,361.426 	"/>
	<path style="fill:#10BB67;" d="M410.501,271.426l15-15c4.499-4.501,8.699-9.6,11.699-15H272.37l-29.998,30H410.501z"/>
	<path style="fill:#10BB67;" d="M444.401,181.426c-3.602-11.1-9.6-21.601-18.001-30h-64.036l-29.998,30H444.401z"/>
</g>
<g>
</g>
<g>
</g>
<g>
</g>
<g>
</g>
<g>
</g>
<g>
</g>
<g>
</g>
<g>
</g>
<g>
</g>
<g>
</g>
<g>
</g>
<g>
</g>
<g>
</g>
<g>
</g>
<g>
</g>
</svg>
