<?xml version="1.0" encoding="iso-8859-1"?>
<!-- Generator: Adobe Illustrator 19.0.0, SVG Export Plug-In . SVG Version: 6.00 Build 0)  -->
<svg version="1.1" id="Layer_1" xmlns="http://www.w3.org/2000/svg" xmlns:xlink="http://www.w3.org/1999/xlink" x="0px" y="0px"
	 viewBox="0 0 512 512" style="enable-background:new 0 0 512 512;" xml:space="preserve">
<g>
	<g>
		<path style="fill:#FEA832;" d="M361.399,234.399c-1.8-5.4-6.599-9.3-12.299-10.199l-54.901-8.8l-25.6-49.801
			c-2.699-5.099-7.2-8.099-12.599-8.399h-0.901c-5.698,0-10.8,2.999-13.499,8.399L216,215.4l-54.901,8.8
			c-5.7,0.899-10.499,4.799-12.299,10.199c-1.501,5.4,0,11.4,3.9,15.601l39.899,39.699l-9.6,54.901c-0.899,5.4,1.501,11.1,6,14.399
			c4.801,3.6,10.8,3.9,15.901,1.201l50.199-25.801l0.901,0.601l49.3,25.201c5.101,2.699,11.1,2.399,15.901-1.201
			c4.499-3.3,6.899-9,6-14.399l-9.6-54.901L357.499,250C361.7,245.799,362.901,239.799,361.399,234.399z"/>
	</g>
	<path style="fill:#CCEFFF;" d="M271,75v37.2c0,8.101-6.599,15-15,15s-15-6.899-15-15V75c0-8.401,6.599-15,15-15S271,66.599,271,75z
		"/>
	<path style="fill:#CCEFFF;" d="M271,385.099V444.2c0,8.101-6.599,15-15,15s-15-6.899-15-15v-59.101c0-8.099,6.599-15,15-15
		S271,377,271,385.099z"/>
	<path style="fill:#CCEFFF;" d="M271,15c0,8.399-6.599,15-15,15s-15-6.601-15-15c0-8.401,6.599-15,15-15S271,6.599,271,15z"/>
	<path style="fill:#CCEFFF;" d="M271,497c0,8.399-6.599,15-15,15s-15-6.601-15-15c0-8.401,6.599-15,15-15S271,488.599,271,497z"/>
	<path style="fill:#CCEFFF;" d="M105.63,271H75c-8.291,0-15-6.709-15-15s6.709-15,15-15h30.63c8.291,0,15,6.709,15,15
		S113.921,271,105.63,271z"/>
	<path style="fill:#ACE3FC;" d="M444.119,271h-39.536c-8.291,0-15-6.709-15-15s6.709-15,15-15h39.536c8.291,0,15,6.709,15,15
		S452.41,271,444.119,271z"/>
	<circle style="fill:#CCEFFF;" cx="15" cy="256" r="15"/>
	<circle style="fill:#ACE3FC;" cx="497" cy="256" r="15"/>
	<path style="fill:#CCEFFF;" d="M87.114,424.886c-5.859-5.859-5.859-15.352,0-21.211l44.648-44.648
		c5.859-5.859,15.352-5.859,21.211,0s5.859,15.352,0,21.211l-44.648,44.648C102.466,430.745,92.974,430.745,87.114,424.886z"/>
	<path style="fill:#ACE3FC;" d="M331.253,180.747c-5.859-5.859-5.859-15.352,0-21.211l77.461-77.461
		c5.859-5.859,15.352-5.859,21.211,0s5.859,15.352,0,21.211l-77.461,77.461C346.604,186.607,337.112,186.607,331.253,180.747z"/>
	<path style="fill:#ACE3FC;" d="M373.675,394.886l-15.923-15.923c-5.859-5.859-5.859-15.352,0-21.211s15.352-5.859,21.211,0
		l15.923,15.923c5.859,5.859,5.859,15.352,0,21.211C389.026,400.745,379.534,400.745,373.675,394.886z"/>
	<path style="fill:#CCEFFF;" d="M159.536,180.747l-47.461-47.461c-5.859-5.859-5.859-15.352,0-21.211s15.352-5.859,21.211,0
		l47.461,47.461c5.859,5.859,5.859,15.352,0,21.211C174.888,186.607,165.396,186.607,159.536,180.747z"/>
	<circle style="fill:#CCEFFF;" cx="75" cy="317" r="15"/>
	<circle style="fill:#ACE3FC;" cx="437" cy="195" r="15"/>
	<circle style="fill:#CCEFFF;" cx="195" cy="75" r="15"/>
	<circle style="fill:#ACE3FC;" cx="317" cy="437" r="15"/>
	<circle style="fill:#ACE3FC;" cx="437" cy="317" r="15"/>
	<circle style="fill:#CCEFFF;" cx="75" cy="195" r="15"/>
	<circle style="fill:#ACE3FC;" cx="317" cy="75" r="15"/>
	<circle style="fill:#CCEFFF;" cx="195" cy="437" r="15"/>
	<g>
		<path style="fill:#CCEFFF;" d="M120,75c0,8.399-6.599,15-15,15H90v15c0,8.399-6.599,15-15,15s-15-6.601-15-15V90H45
			c-8.401,0-15-6.601-15-15c0-8.401,6.599-15,15-15h15V45c0-8.401,6.599-15,15-15s15,6.599,15,15v15h15
			C113.401,60,120,66.599,120,75z"/>
	</g>
	<g>
		<g>
			<g>
				<path style="fill:#ACE3FC;" d="M512,45c0,8.399-6.599,15-15,15h-15v15c0,8.399-6.599,15-15,15s-15-6.601-15-15V60h-15
					c-8.401,0-15-6.601-15-15c0-8.401,6.599-15,15-15h15V15c0-8.401,6.599-15,15-15s15,6.599,15,15v15h15
					C505.401,30,512,36.599,512,45z"/>
			</g>
		</g>
	</g>
	<g>
		<g>
			<g>
				<path style="fill:#ACE3FC;" d="M482,437c0,8.399-6.599,15-15,15h-15v15c0,8.399-6.599,15-15,15s-15-6.601-15-15v-15h-15
					c-8.401,0-15-6.601-15-15c0-8.401,6.599-15,15-15h15v-15c0-8.401,6.599-15,15-15s15,6.599,15,15v15h15
					C475.401,422,482,428.599,482,437z"/>
			</g>
		</g>
	</g>
	<g>
		<path style="fill:#CCEFFF;" d="M90,467c0,8.399-6.599,15-15,15H60v15c0,8.399-6.599,15-15,15s-15-6.601-15-15v-15H15
			c-8.401,0-15-6.601-15-15c0-8.401,6.599-15,15-15h15v-15c0-8.401,6.599-15,15-15s15,6.599,15,15v15h15
			C83.401,452,90,458.599,90,467z"/>
	</g>
	<path style="fill:#FE9923;" d="M357.499,250l-39.899,39.699l9.6,54.901c0.899,5.4-1.501,11.1-6,14.399
		c-4.801,3.6-10.8,3.9-15.901,1.201L256,334.999V157.2c5.4,0.3,9.901,3.3,12.599,8.399l25.6,49.801l54.901,8.8
		c5.7,0.899,10.499,4.799,12.299,10.199C362.901,239.799,361.7,245.799,357.499,250z"/>
</g>
<g>
</g>
<g>
</g>
<g>
</g>
<g>
</g>
<g>
</g>
<g>
</g>
<g>
</g>
<g>
</g>
<g>
</g>
<g>
</g>
<g>
</g>
<g>
</g>
<g>
</g>
<g>
</g>
<g>
</g>
</svg>
