<?xml version="1.0" encoding="iso-8859-1"?>
<!-- Generator: Adobe Illustrator 19.0.0, SVG Export Plug-In . SVG Version: 6.00 Build 0)  -->
<svg version="1.1" id="Layer_1" xmlns="http://www.w3.org/2000/svg" xmlns:xlink="http://www.w3.org/1999/xlink" x="0px" y="0px"
	 viewBox="0 0 512 512" style="enable-background:new 0 0 512 512;" xml:space="preserve">
<g>
	<path style="fill:#81C8EE;" d="M106,0H76C34.647,0,0,33.647,0,75c0,8.291,6.709,15,15,15h91c8.291,0,15-6.709,15-15V15
		C121,6.709,114.291,0,106,0z"/>
	<path style="fill:#CCEFFF;" d="M421,75v362l-165,48.6L166.901,512H151c-33,0-60-27-60-60V0h255C387.421,0,421,33.579,421,75z"/>
	<path style="fill:#ACE3FC;" d="M421,75v362l-165,48.6V0h90C387.4,0,421,33.6,421,75z"/>
	<path style="fill:#994C0F;" d="M271,285v60c0,8.399-6.599,15-15,15s-15-6.601-15-15v-60c0-8.401,6.599-15,15-15
		S271,276.599,271,285z"/>
	<path style="fill:#713708;" d="M271,285v60c0,8.399-6.599,15-15,15v-90C264.401,270,271,276.599,271,285z"/>
	<path style="fill:#4DBBEB;" d="M512,437c0,41.4-34.6,75-76,75H151c32.999,0,60-27.001,60-60v-15c0-8.401,6.599-15,15-15h271
		C505.401,422,512,428.599,512,437z"/>
	<path style="fill:#32D736;" d="M356.499,274.499L322.301,240H331c6,0,11.4-3.6,13.801-9.3c2.399-5.7,1.199-12.001-3.301-16.201
		L307.301,180H316c6,0,11.4-3.6,13.801-9.3c2.399-5.7,1.199-12.001-3.301-16.201l-60-60C263.8,91.5,259.9,90,256,90
		s-7.8,1.5-10.499,4.499l-60,60c-4.501,4.2-5.7,10.501-3.301,16.201C184.6,176.4,190,180,196,180h8.699l-34.199,34.499
		c-4.501,4.2-5.7,10.501-3.301,16.201C169.6,236.4,175,240,181,240h8.699l-34.199,34.499c-4.501,4.2-5.7,10.501-3.301,16.201
		C154.6,296.4,160,300,166,300h180c6,0,11.4-3.6,13.801-9.3C362.199,285,361,278.699,356.499,274.499z"/>
	<path style="fill:#10BB67;" d="M359.801,290.7C357.4,296.4,352,300,346,300h-90V90c3.9,0,7.8,1.5,10.499,4.499l60,60
		c4.501,4.2,5.7,10.501,3.301,16.201C327.4,176.4,322,180,316,180h-8.699l34.199,34.499c4.501,4.2,5.7,10.501,3.301,16.201
		C342.4,236.4,337,240,331,240h-8.699l34.199,34.499C361,278.699,362.199,285,359.801,290.7z"/>
</g>
<g>
</g>
<g>
</g>
<g>
</g>
<g>
</g>
<g>
</g>
<g>
</g>
<g>
</g>
<g>
</g>
<g>
</g>
<g>
</g>
<g>
</g>
<g>
</g>
<g>
</g>
<g>
</g>
<g>
</g>
</svg>
