<?xml version="1.0" encoding="iso-8859-1"?>
<!-- Generator: Adobe Illustrator 19.0.0, SVG Export Plug-In . SVG Version: 6.00 Build 0)  -->
<svg version="1.1" id="Layer_1" xmlns="http://www.w3.org/2000/svg" xmlns:xlink="http://www.w3.org/1999/xlink" x="0px" y="0px"
	 viewBox="0 0 512 512" style="enable-background:new 0 0 512 512;" xml:space="preserve">
<g>
	<path style="fill:#81C8EE;" d="M372.4,8.516c-12.001-8.699-26.7-10.8-41.4-5.999l-75,28.799L100.6,91.899
		c-6.601,2.701-10.8,9.6-9.3,16.8C92.5,115.899,98.8,121,106,121h270c8.401,0,15-6.601,15-15V45.117
		C391,30.418,384.101,17.218,372.4,8.516z"/>
	<path style="fill:#FD003A;" d="M406,91H106c-24.901,0-45,20.099-45,45v331c0,24.899,20.099,45,45,45h300c24.901,0,45-20.101,45-45
		V136C451,111.099,430.901,91,406,91z"/>
	<path style="fill:#E50027;" d="M451,136v331c0,24.899-20.099,45-45,45H256V91h150C430.901,91,451,111.099,451,136z"/>
	<path style="fill:#32D736;" d="M361,316c0,8.399-6.599,15-15,15c-38.101,0-71.7-20.4-90-51c-18.3,30.601-51.899,51-90,51
		c-8.401,0-15-6.601-15-15c0-8.401,6.599-15,15-15c41.4,0,75-33.6,75-75v-30c0-8.401,6.599-15,15-15s15,6.599,15,15v30
		c0,41.4,33.6,75,75,75C354.401,301,361,307.599,361,316z"/>
	<path style="fill:#FEA832;" d="M361,376c0,8.399-6.599,15-15,15H166c-8.401,0-15-6.601-15-15c0-8.401,6.599-15,15-15h180
		C354.401,361,361,367.599,361,376z"/>
	<path style="fill:#FEA832;" d="M361,436c0,8.399-6.599,15-15,15H166c-8.401,0-15-6.601-15-15c0-8.401,6.599-15,15-15h180
		C354.401,421,361,427.599,361,436z"/>
	<rect x="61" y="181" style="fill:#10BB67;" width="90" height="30"/>
	<rect x="361" y="181" style="fill:#0CA656;" width="90" height="30"/>
	<path style="fill:#10BB67;" d="M361,316c0,8.399-6.599,15-15,15c-38.101,0-71.7-20.4-90-51v-99c8.401,0,15,6.599,15,15v30
		c0,41.4,33.6,75,75,75C354.401,301,361,307.599,361,316z"/>
	<path style="fill:#FE9923;" d="M361,376c0,8.399-6.599,15-15,15h-90v-30h90C354.401,361,361,367.599,361,376z"/>
	<path style="fill:#FE9923;" d="M361,436c0,8.399-6.599,15-15,15h-90v-30h90C354.401,421,361,427.599,361,436z"/>
	<path style="fill:#32D736;" d="M357.7,142.299c-20.4-10.199-44.401-8.099-62.701,5.7L256,177.4l-39-29.401
		c-18.3-13.799-42.301-15.899-62.701-5.7C133.599,152.5,121,173.2,121,196s12.599,43.5,33.3,53.699
		c20.101,9.901,44.101,8.101,62.701-5.7l39-29.399l39,29.399c18.001,13.5,42.001,16.201,62.701,5.7C378.401,239.5,391,218.8,391,196
		S378.401,152.5,357.7,142.299z M198.944,220.053c-5.156,3.809-11.396,5.903-17.886,5.903c-4.688,0-9.229-1.055-13.506-3.164
		C157.343,217.753,151,207.499,151,196s6.343-21.753,16.553-26.792c4.438-2.212,8.95-3.296,13.594-3.296
		c6.401,0,12.554,2.095,17.798,6.05L230.849,196L198.944,220.053z M344.447,222.792c-4.482,2.271-8.877,3.325-13.447,3.325
		c-6.416,0-12.656-2.109-18.018-6.123L281.151,196l31.89-24.053c5.244-3.94,11.396-6.035,17.813-6.035
		c4.629,0,9.141,1.084,13.418,3.223C354.643,174.247,361,184.501,361,196S354.643,217.753,344.447,222.792z"/>
	<path style="fill:#10BB67;" d="M295,243.999c18.001,13.5,42.001,16.201,62.701,5.7C378.401,239.5,391,218.8,391,196
		s-12.599-43.5-33.3-53.701c-20.4-10.199-44.401-8.099-62.701,5.7L256,177.4v37.2L295,243.999z M313.041,171.947
		c5.244-3.94,11.396-6.035,17.813-6.035c4.629,0,9.141,1.084,13.418,3.223C354.643,174.247,361,184.501,361,196
		s-6.357,21.753-16.553,26.792c-4.482,2.271-8.877,3.325-13.447,3.325c-6.416,0-12.656-2.109-18.018-6.123L281.151,196
		L313.041,171.947z"/>
</g>
<g>
</g>
<g>
</g>
<g>
</g>
<g>
</g>
<g>
</g>
<g>
</g>
<g>
</g>
<g>
</g>
<g>
</g>
<g>
</g>
<g>
</g>
<g>
</g>
<g>
</g>
<g>
</g>
<g>
</g>
</svg>
