<?xml version="1.0" encoding="iso-8859-1"?>
<!-- Generator: Adobe Illustrator 19.0.0, SVG Export Plug-In . SVG Version: 6.00 Build 0)  -->
<svg version="1.1" id="Layer_1" xmlns="http://www.w3.org/2000/svg" xmlns:xlink="http://www.w3.org/1999/xlink" x="0px" y="0px"
	 viewBox="0 0 511.925 511.925" style="enable-background:new 0 0 511.925 511.925;" xml:space="preserve">
<g>
	<path style="fill:#32D736;" d="M360.963,150.925h-330c-8.401,0-15,6.599-15,15v271c0,41.4,33.6,75,75,75h210c41.4,0,75-33.6,75-75
		v-271C375.963,157.524,369.364,150.925,360.963,150.925z"/>
	<path style="fill:#FEDB41;" d="M300.362,294.326c-1.8-5.402-6.599-9.302-12.299-10.201l-54.9-8.101l-24.6-49.799
		c-2.699-4.801-7.2-8.101-12.599-8.401h-0.901c-5.698,0-10.8,3.301-13.499,8.401l-24.6,49.799l-54.901,8.101
		c-5.7,0.899-10.499,4.799-12.299,10.201c-1.501,5.4,0,11.398,3.9,15.298l39.899,39.001l-9.6,55.598c-0.899,5.7,1.501,11.4,6,14.702
		c4.801,3.3,10.8,3.9,15.901,1.199l49.199-25.8l0.901,0.599l48.3,25.201c5.101,2.701,11.1,2.1,15.901-1.199
		c4.499-3.301,6.899-9.001,6-14.702l-9.6-55.598l39.899-39.001C300.662,305.725,301.864,299.726,300.362,294.326z"/>
	<path style="fill:#CCEFFF;" d="M92.662,112.268c-2.9-7.764,1.025-16.406,8.774-19.321c3.516-1.318,5.874-4.717,5.874-8.452
		s-2.358-7.134-5.874-8.452c-15.132-5.684-25.313-21.361-25.313-37.548S86.304,6.63,101.436,0.947
		c7.734-2.871,16.406,0.996,19.321,8.774c2.9,7.764-1.025,16.406-8.774,19.321c-3.501,1.304-5.859,5.702-5.859,9.452
		s2.358,7.148,5.859,8.452c15.146,5.684,25.327,21.376,25.327,37.548s-10.181,30.864-25.327,36.548
		C104.098,123.958,95.538,119.943,92.662,112.268z"/>
	<path style="fill:#CCEFFF;" d="M272.662,112.268c-2.9-7.764,1.025-16.406,8.774-19.321c3.516-1.318,5.874-4.717,5.874-8.452
		s-2.358-7.134-5.874-8.452c-15.132-5.684-25.313-21.361-25.313-37.548S266.304,6.63,281.436,0.947
		c7.778-2.871,16.421,0.996,19.321,8.774c2.9,7.764-1.025,16.406-8.774,19.321c-3.501,1.304-5.859,5.702-5.859,9.452
		s2.358,7.148,5.859,8.452c15.146,5.684,25.327,21.376,25.327,37.548s-10.181,30.864-25.327,36.548
		C284.098,123.958,275.538,119.943,272.662,112.268z"/>
	<g>
		<g>
			<path style="fill:#0CA656;" d="M420.963,180.925h-75v60h75c8.284,0,15,6.716,15,15v121c0,8.284-6.716,15-15,15h-75v60h75
				c41.353,0,75-33.647,75-75v-121C495.963,214.573,462.315,180.925,420.963,180.925z"/>
		</g>
	</g>
	<path style="fill:#10BB67;" d="M375.963,165.925v271c0,41.4-33.6,75-75,75h-105v-361h165
		C369.364,150.925,375.963,157.524,375.963,165.925z"/>
	<path style="fill:#FFCC33;" d="M296.462,309.625l-39.899,39.001l9.6,55.598c0.899,5.7-1.501,11.4-6,14.702
		c-4.801,3.3-10.8,3.9-15.901,1.199l-48.3-25.201v-177.1c5.4,0.3,9.901,3.6,12.599,8.401l24.6,49.799l54.9,8.101
		c5.7,0.899,10.499,4.799,12.299,10.201C301.864,299.726,300.662,305.725,296.462,309.625z"/>
	<path style="fill:#CCEFFF;" d="M227.162,84.625c0,15.901-9.899,30.601-25.199,36.301c-2.1,0.901-3.9,1.199-6,0.901
		c-5.7-0.3-11.1-3.9-13.2-9.6c-2.999-7.8,0.901-16.501,8.699-19.2c2.1-0.901,3.6-2.401,4.501-3.9s1.199-2.999,1.199-4.501
		c0-1.5-0.298-3.3-1.199-4.499c-0.901-1.8-2.401-3.3-4.501-4.2c-15.298-5.7-25.199-21.099-25.199-37.301
		c0-16.199,9.901-31.899,25.199-37.599c1.501-0.601,3.001-0.901,4.501-0.601c6.301-0.899,12.599,3.001,14.7,9.3
		c3.001,7.8-0.899,16.5-8.699,19.2c-3.6,1.5-5.7,5.799-5.7,9.699c0,3.6,2.1,6.901,5.7,8.401
		C217.263,52.726,227.162,68.425,227.162,84.625z"/>
</g>
<g>
</g>
<g>
</g>
<g>
</g>
<g>
</g>
<g>
</g>
<g>
</g>
<g>
</g>
<g>
</g>
<g>
</g>
<g>
</g>
<g>
</g>
<g>
</g>
<g>
</g>
<g>
</g>
<g>
</g>
</svg>
