<?xml version="1.0" encoding="iso-8859-1"?>
<!-- Generator: Adobe Illustrator 19.0.0, SVG Export Plug-In . SVG Version: 6.00 Build 0)  -->
<svg version="1.1" id="Layer_1" xmlns="http://www.w3.org/2000/svg" xmlns:xlink="http://www.w3.org/1999/xlink" x="0px" y="0px"
	 viewBox="0 0 512 512" style="enable-background:new 0 0 512 512;" xml:space="preserve">
<g>
	<path style="fill:#ACE3FC;" d="M346,355.789l-30,12.422V467c0,24.814,20.186,45,45,45s45-20.186,45-45v-8.789l-30-72.422
		L346,355.789z"/>
	<polygon style="fill:#E50027;" points="346,235.789 316,248.211 316,368.211 406,458.211 406,338.211 376,265.789 	"/>
	<polygon style="fill:#ACE3FC;" points="375.691,150 345.703,150 316,182 316,248.211 406,338.211 406,182 	"/>
	<path style="fill:#E50027;" d="M377.256,64.955l-52.562,10.14l-12.834,55.256c2.644,7.215,4.14,16.816,4.14,22.857V182h90v-24.555
		C406,127.038,396.637,92.954,377.256,64.955z"/>
	<path style="fill:#ACE3FC;" d="M311.86,130.351l65.396-65.396C349.775,25.267,305.808,0.052,256,0.011l-15,14.371v62.512l15,13.11
		C282.321,90.022,303.606,107.847,311.86,130.351z"/>
	<path style="fill:#FD003A;" d="M136,150l-30,32v45c0,24.814,20.186,45,45,45s45-20.186,45-45v-45l-30-32H136z"/>
	<path style="fill:#CCEFFF;" d="M186.973,104.762l-33.609-33.609l-19.717-7.295C116.302,88.553,106,118.308,106,150v32h90v-32
		c0-7.064,1.443-13.77,3.701-20.089L186.973,104.762z"/>
	<path style="fill:#FD003A;" d="M255.883,0c-50.476,0-95.305,25.521-122.236,63.858l66.053,66.053
		C208.028,106.619,230.582,90,255.956,90L256,90.004V0.011C255.96,0.011,255.923,0,255.883,0z"/>
</g>
<g>
</g>
<g>
</g>
<g>
</g>
<g>
</g>
<g>
</g>
<g>
</g>
<g>
</g>
<g>
</g>
<g>
</g>
<g>
</g>
<g>
</g>
<g>
</g>
<g>
</g>
<g>
</g>
<g>
</g>
</svg>
