<?xml version="1.0" encoding="iso-8859-1"?>
<!-- Generator: Adobe Illustrator 19.0.0, SVG Export Plug-In . SVG Version: 6.00 Build 0)  -->
<svg version="1.1" id="Layer_1" xmlns="http://www.w3.org/2000/svg" xmlns:xlink="http://www.w3.org/1999/xlink" x="0px" y="0px"
	 viewBox="0 0 512 512" style="enable-background:new 0 0 512 512;" xml:space="preserve">
<g>
	<path style="fill:#994C0F;" d="M256,0c-24.9,0-45,20.1-45,45v30c0,8.4,6.6,15,15,15h60c8.4,0,15-6.6,15-15V45
		C301,20.1,280.9,0,256,0z M270.99,60.01h-30v-15c0-8.28,6.74-15,15-15H256c8.26,0.01,14.99,6.72,14.99,15V60.01z"/>
	<path style="fill:#CCEFFF;" d="M361,106v54c0,8.399-6.599,15-15,15H166c-8.401,0-15-6.601-15-15v-54c0-24.901,20.099-46,45-46h120
		C340.901,60,361,81.099,361,106z"/>
	<path style="fill:#ACE3FC;" d="M361,106v54c0,8.399-6.599,15-15,15h-90V60h60C340.901,60,361,81.099,361,106z"/>
	<g>
		<path style="fill:#32D736;" d="M451,316c0,7.5-0.3,15-1.199,22.5c-0.838,6.697-27.863,15-27.863,15s21.954,15.062,20.363,20.099
			C417.7,452.5,344.2,512,256,512S94.3,452.5,69.699,373.599v-0.3c-1.608-4.959,14.269-23.08,14.269-23.08
			s-20.939-4.78-21.769-11.418C61.601,331.3,61,323.8,61,316c0-107.401,87.599-195,195-195S451,208.599,451,316z"/>
		<path style="fill:#10BB67;" d="M442.301,373.599c1.591-5.037-20.363-20.099-20.363-20.099s27.025-8.304,27.863-15
			C450.7,331,451,323.5,451,316c0-107.401-87.599-195-195-195v391C344.2,512,417.7,452.5,442.301,373.599z"/>
		<g>
			<circle style="fill:#FFFFFF;" cx="136" cy="376" r="15"/>
		</g>
		<g>
			<circle style="fill:#FFFFFF;" cx="196" cy="256" r="15"/>
		</g>
		<g>
			<path style="fill:#FFFFFF;" d="M271,376c0,8.399-6.599,15-15,15s-15-6.601-15-15c0-8.401,6.599-15,15-15S271,367.599,271,376z"/>
		</g>
		<g>
			<circle style="fill:#FFFFFF;" cx="376" cy="376" r="15"/>
		</g>
		<g>
			<circle style="fill:#FFFFFF;" cx="316" cy="256" r="15"/>
		</g>
		<path style="fill:#FFFFFF;" d="M271,376c0,8.399-6.599,15-15,15v-30C264.401,361,271,367.599,271,376z"/>
		<g id="Bauble_2_">
			<g>
				<g>
					<circle style="fill:#FD003A;" cx="136" cy="376" r="15"/>
				</g>
				<g>
					<circle style="fill:#FD003A;" cx="196" cy="256" r="15"/>
				</g>
				<g>
					<g>
						<circle style="fill:#FD003A;" cx="256" cy="376" r="15"/>
					</g>
				</g>
				<g>
					<g>
						<circle style="fill:#E50027;" cx="376" cy="376" r="15"/>
					</g>
				</g>
				<g>
					<g>
						<circle style="fill:#E50027;" cx="316" cy="256" r="15"/>
					</g>
				</g>
			</g>
		</g>
	</g>
	<g>
		<g>
			<path style="fill:#FD003A;" d="M449.801,338.5c-1.501,11.999-3.9,23.699-7.5,35.099L376,307.299l-49.501,49.2
				c-5.7,6-15.298,6-20.999,0L256,307.299l-49.501,49.2c-5.7,6-15.298,6-20.999,0L136,307.299l-66.301,66
				c-3.6-11.1-5.999-22.5-7.5-34.499l63.301-63.301c5.7-5.999,15.298-5.999,20.999,0l49.501,49.2l49.501-49.2
				c5.7-5.999,15.298-5.999,20.999,0l49.501,49.2l49.501-49.2c5.7-5.999,15.298-5.999,20.999,0L449.801,338.5z"/>
		</g>
	</g>
	<path style="fill:#E50027;" d="M305.501,356.499c5.7,6,15.298,6,20.999,0l49.501-49.2l66.301,66.301
		c3.6-11.4,5.999-23.101,7.5-35.099l-63.301-63.001c-5.7-5.999-15.298-5.999-20.999,0L316,324.699l-49.501-49.2
		C263.65,272.5,259.823,271,256,271v36.299L305.501,356.499z"/>
</g>
<g>
</g>
<g>
</g>
<g>
</g>
<g>
</g>
<g>
</g>
<g>
</g>
<g>
</g>
<g>
</g>
<g>
</g>
<g>
</g>
<g>
</g>
<g>
</g>
<g>
</g>
<g>
</g>
<g>
</g>
</svg>
