<?xml version="1.0" encoding="iso-8859-1"?>
<!-- Generator: Adobe Illustrator 19.0.0, SVG Export Plug-In . SVG Version: 6.00 Build 0)  -->
<svg version="1.1" id="Layer_1" xmlns="http://www.w3.org/2000/svg" xmlns:xlink="http://www.w3.org/1999/xlink" x="0px" y="0px"
	 viewBox="0 0 512 512" style="enable-background:new 0 0 512 512;" xml:space="preserve">
<g>
	<g>
		<g id="Winter_Hat_1_">
			<g>
				<path style="fill:#FD003A;" d="M445,237.999c-1.349-5.4-30.875-4.499-30.875-4.499s22.175-21.75,19.775-26.7
					c-23.101-52.2-68.699-93.3-126.301-108.9c-5.698-1.8-11.999,0.3-15.899,5.099c-17.401,22.8-54,22.8-71.4,0
					c-3.9-4.799-10.201-6.899-15.899-5.099C146.8,113.5,101.201,154.6,78.1,206.8c-2.119,4.37,17.275,31.075,17.275,31.075
					S68.508,231.966,67,237.999C63.1,253.599,61,269.5,61,286v121c0,8.399,6.599,15,15,15h360c8.401,0,15-6.601,15-15V286
					C451,269.5,448.9,253.599,445,237.999z"/>
			</g>
		</g>
	</g>
	<g>
		<path style="fill:#E50027;" d="M436,422c8.401,0,15-6.601,15-15V286c0-16.5-2.1-32.401-6-48.001
			c-1.349-5.4-30.875-4.499-30.875-4.499s22.176-21.751,19.775-26.7c-23.101-52.2-68.699-93.3-126.301-108.9
			c-5.698-1.8-11.999,0.3-15.899,5.099c-8.699,11.4-22.202,17.1-35.7,17.1V422H436z"/>
	</g>
	<g>
		<path style="fill:#CCEFFF;" d="M436,392H76c-24.853,0-45,20.147-45,45v30c0,24.853,20.147,45,45,45h360c24.853,0,45-20.147,45-45
			v-30C481,412.147,460.853,392,436,392z"/>
		<path style="fill:#ACE3FC;" d="M481,437v30c0,24.853-20.147,45-45,45H256V392h180C460.853,392,481,412.147,481,437z"/>
		<path style="fill:#81C8EF;" d="M421,512v-45c0-8.291-6.709-15-15-15s-15,6.709-15,15v45H421z"/>
		<path style="fill:#81C8EF;" d="M361,512v-45c0-8.291-6.709-15-15-15s-15,6.709-15,15v45H361z"/>
		<path style="fill:#81C8EF;" d="M301,512v-45c0-8.291-6.709-15-15-15s-15,6.709-15,15v45H301z"/>
		<path style="fill:#ACE3FC;" d="M241,512v-45c0-8.291-6.709-15-15-15s-15,6.709-15,15v45H241z"/>
		<path style="fill:#ACE3FC;" d="M181,512v-45c0-8.291-6.709-15-15-15s-15,6.709-15,15v45H181z"/>
		<path style="fill:#ACE3FC;" d="M121,512v-45c0-8.291-6.709-15-15-15s-15,6.709-15,15v45H121z"/>
	</g>
	<g>
		<path style="fill:#FEA832;" d="M445,237.999l-58.5,58.5C383.8,299.5,379.9,301,376,301s-7.8-1.5-10.499-4.501L316,247.299
			l-49.501,49.2c-5.7,6-15.298,6-20.999,0L196,247.299l-49.501,49.2c-5.7,6-15.298,6-20.999,0l-58.5-58.5
			c2.699-10.8,6.299-21.299,11.1-31.199l57.9,57.9l49.501-49.2c5.7-5.999,15.298-5.999,20.999,0l49.501,49.2l49.501-49.2
			c5.7-5.999,15.298-5.999,20.999,0l49.501,49.2l57.9-57.9C438.701,216.7,442.301,227.199,445,237.999z"/>
	</g>
	<path style="fill:#FE9923;" d="M266.499,296.499l49.501-49.2l49.501,49.2C368.2,299.5,372.1,301,376,301s7.8-1.5,10.499-4.501
		l58.5-58.5c-2.699-10.8-6.299-21.299-11.1-31.199l-57.9,57.9l-49.501-49.2c-5.7-5.999-15.298-5.999-20.999,0L256,264.699V301
		C259.823,301,263.65,299.499,266.499,296.499z"/>
	<path style="fill:#CCEFFF;" d="M256,0c-41.4,0-75,34.6-75,76s33.6,75,75,75s75-33.6,75-75S297.4,0,256,0z"/>
	<path style="fill:#ACE3FC;" d="M331,76c0,41.4-33.6,75-75,75V0C297.4,0,331,34.6,331,76z"/>
</g>
<g>
</g>
<g>
</g>
<g>
</g>
<g>
</g>
<g>
</g>
<g>
</g>
<g>
</g>
<g>
</g>
<g>
</g>
<g>
</g>
<g>
</g>
<g>
</g>
<g>
</g>
<g>
</g>
<g>
</g>
</svg>
