<?xml version="1.0" encoding="iso-8859-1"?>
<!-- Generator: Adobe Illustrator 19.0.0, SVG Export Plug-In . SVG Version: 6.00 Build 0)  -->
<svg version="1.1" id="Layer_1" xmlns="http://www.w3.org/2000/svg" xmlns:xlink="http://www.w3.org/1999/xlink" x="0px" y="0px"
	 viewBox="0 0 512 512" style="enable-background:new 0 0 512 512;" xml:space="preserve">
<g>
	<path style="fill:#FD003A;" d="M466,166v240c0,8.399-6.599,15-15,15H301l-153.3,0.3c-3.9,0-7.8-1.501-10.8-4.501l-103.2-103.5
		C22.301,302.199,16,287.199,16,271c0-16.201,6.301-31.201,17.701-42.601c22.5-22.5,61.8-22.5,84.598,0.3L136,246.099V171.7
		c0-79.501,63.3-157.901,137.999-169.6C283.001,0.599,292,0,301,0c77.401,0,145.499,55,161.7,132.7
		C465.099,145.3,466,155.799,466,166z"/>
	<path style="fill:#E50027;" d="M466,166v240c0,8.399-6.599,15-15,15H301V0c77.401,0,145.499,55,161.7,132.7
		C465.099,145.3,466,155.799,466,166z"/>
	<path style="fill:#CCEFFF;" d="M451,391H151c-24.901,0-45,20.099-45,45v31c0,24.899,20.099,45,45,45h300c24.901,0,45-20.101,45-45
		v-31C496,411.099,475.901,391,451,391z"/>
	<g>
		<g>
			<g>
				<g>
					<path style="fill:#FEA832;" d="M316,256v60c0,8.399-6.599,15-15,15s-15-6.601-15-15v-60c0-8.401,6.599-15,15-15
						S316,247.599,316,256z"/>
				</g>
				<g>
					<path style="fill:#FEA832;" d="M316,136v60c0,8.399-6.599,15-15,15s-15-6.601-15-15v-60c0-8.401,6.599-15,15-15
						S316,127.599,316,136z"/>
				</g>
			</g>
		</g>
		<g>
			<g>
				<path style="fill:#FE9923;" d="M327.001,226c-5.186,0-10.225-2.681-13.008-7.5c-4.146-7.178-1.685-16.348,5.493-20.493
					l51.958-30c7.119-4.146,16.333-1.714,20.493,5.493c4.146,7.178,1.685,16.348-5.493,20.493l-51.958,30
					C332.128,225.355,329.55,226,327.001,226z"/>
			</g>
		</g>
		<g>
			<g>
				<path style="fill:#FEA832;" d="M210.063,278.5c-4.146-7.178-1.685-16.348,5.493-20.493l51.958-30
					c7.119-4.131,16.348-1.685,20.493,5.493s1.685,16.348-5.493,20.493l-51.958,30C223.486,288.077,214.251,285.753,210.063,278.5z"
					/>
			</g>
		</g>
		<g>
			<g>
				<path style="fill:#FEA832;" d="M274.999,226c-2.549,0-5.127-0.645-7.485-2.007l-51.958-30
					c-7.178-4.146-9.639-13.315-5.493-20.493c4.146-7.207,13.33-9.639,20.493-5.493l51.958,30
					c7.178,4.146,9.639,13.315,5.493,20.493C285.224,223.319,280.185,226,274.999,226z"/>
			</g>
		</g>
		<g>
			<g>
				<path style="fill:#FE9923;" d="M371.444,283.993l-51.958-30c-7.178-4.146-9.639-13.315-5.493-20.493
					c4.131-7.178,13.315-9.624,20.493-5.493l51.958,30c7.178,4.146,9.639,13.315,5.493,20.493
					C387.749,285.753,378.514,288.077,371.444,283.993z"/>
			</g>
		</g>
		<path style="fill:#FE9923;" d="M316,136v60c0,8.399-6.599,15-15,15v-90C309.401,121,316,127.599,316,136z"/>
		<path style="fill:#FE9923;" d="M316,256v60c0,8.399-6.599,15-15,15v-90C309.401,241,316,247.599,316,256z"/>
		<g>
			<path style="fill:#FEA832;" d="M301,181c-24.901,0-45,20.099-45,45c0,24.899,20.099,45,45,45s45-20.101,45-45
				C346,201.099,325.901,181,301,181z"/>
		</g>
		<path style="fill:#FE9923;" d="M346,226c0,24.899-20.099,45-45,45v-90C325.901,181,346,201.099,346,226z"/>
	</g>
	<path style="fill:#ACE3FC;" d="M496,436v31c0,24.899-20.099,45-45,45H301V391h150C475.901,391,496,411.099,496,436z"/>
</g>
<g>
</g>
<g>
</g>
<g>
</g>
<g>
</g>
<g>
</g>
<g>
</g>
<g>
</g>
<g>
</g>
<g>
</g>
<g>
</g>
<g>
</g>
<g>
</g>
<g>
</g>
<g>
</g>
<g>
</g>
</svg>
