<?xml version="1.0" encoding="iso-8859-1"?>
<!-- Generator: Adobe Illustrator 19.0.0, SVG Export Plug-In . SVG Version: 6.00 Build 0)  -->
<svg version="1.1" id="Layer_1" xmlns="http://www.w3.org/2000/svg" xmlns:xlink="http://www.w3.org/1999/xlink" x="0px" y="0px"
	 viewBox="0 0 512 512" style="enable-background:new 0 0 512 512;" xml:space="preserve">
<g>
	<g>
		<path style="fill:#FD003A;" d="M391,107.899v165.3L301.601,450.5L286,466.099l-15.3,15.3c-10.499,10.499-22.8,18.3-36.299,23.401
			L97.899,370.399c5.101-13.5,13.2-26.1,23.701-36.899L182,274.399v-166.5c0-8.399,6.599-15,15-15h179
			C384.401,92.899,391,99.5,391,107.899z"/>
		<path style="fill:#FEA832;" d="M136.454,362.762c-14.083,0-26.843,3.514-38.509,7.641C93.554,381.907,91,394.148,91,407
			c0,57.891,47.563,105,105.454,105c13.178,0,25.911-2.609,37.842-7.22c3.902-11.272,7.158-23.522,7.158-37.018
			C241.454,409.871,194.345,362.762,136.454,362.762z"/>
		<path style="fill:#E50027;" d="M391,107.899v165.3L301.601,450.5L286,466.099v-373.2h90C384.401,92.899,391,99.5,391,107.899z"/>
		<path style="fill:#FEA832;" d="M391,273.199v44.7c0,27.9-10.499,53.401-30.3,73.5L301.601,450.5c-6-6-11.1-12.601-15.601-20.101
			c-9.6-15.599-15-33.9-15-53.399c0-19.501,5.4-38.101,15-53.701C304.3,292.7,337.599,272,376,272
			C381.099,272,386.201,272.3,391,273.199z"/>
		<path style="fill:#FE9923;" d="M391,273.199v44.7c0,27.9-10.499,53.401-30.3,73.5L301.601,450.5c-6-6-11.1-12.601-15.601-20.101
			v-107.1C304.3,292.7,337.599,272,376,272C381.099,272,386.201,272.3,391,273.199z"/>
		<g>
			<g>
				<g>
					<path style="fill:#FEA832;" d="M391,206V248l-60-59.702l-34.501,34.2C293.8,225.5,289.9,227,286,227s-7.8-1.5-10.499-4.501
						L241,188.299L182,247.7v-42.601l48.501-48.6c5.4-5.7,15.599-5.7,20.999,0l34.501,34.2l34.501-34.2
						c5.7-5.999,15.298-5.999,20.999,0L391,206z"/>
				</g>
			</g>
		</g>
		<path style="fill:#FE9923;" d="M320.501,156.499L286,190.699V227c3.9,0,7.8-1.5,10.499-4.501l34.501-34.2L391,248V206
			l-49.501-49.501C335.799,150.5,326.201,150.5,320.501,156.499z"/>
	</g>
	<path style="fill:#CCEFFF;" d="M421,45v32c0,24.899-20.099,45-45,45H196c-24.901,0-45-20.101-45-45V45c0-24.901,20.099-45,45-45
		h180C400.901,0,421,20.099,421,45z"/>
	<path style="fill:#ACE3FC;" d="M421,45v32c0,24.899-20.099,45-45,45h-90V0h90C400.901,0,421,20.099,421,45z"/>
</g>
<g>
</g>
<g>
</g>
<g>
</g>
<g>
</g>
<g>
</g>
<g>
</g>
<g>
</g>
<g>
</g>
<g>
</g>
<g>
</g>
<g>
</g>
<g>
</g>
<g>
</g>
<g>
</g>
<g>
</g>
</svg>
