<?xml version="1.0" encoding="iso-8859-1"?>
<!-- Generator: Adobe Illustrator 19.0.0, SVG Export Plug-In . SVG Version: 6.00 Build 0)  -->
<svg version="1.1" id="Layer_1" xmlns="http://www.w3.org/2000/svg" xmlns:xlink="http://www.w3.org/1999/xlink" x="0px" y="0px"
	 viewBox="0 0 511.014 511.014" style="enable-background:new 0 0 511.014 511.014;" xml:space="preserve">
<g>
	<g>
		<g>
			<path style="fill:#BF6015;" d="M312.702,187.598c-5.186,0-10.371-0.908-15.41-2.739c-11.309-4.116-20.332-12.378-25.4-23.262
				c0,0,0,0,0-0.015c-5.068-10.898-5.625-23.115-1.494-34.409c4.102-11.294,12.393-20.317,23.291-25.386
				c10.898-5.083,23.115-5.596,34.395-1.509c11.279,4.116,20.303,12.378,25.371,23.291c5.068,10.884,5.625,23.101,1.523,34.395
				c-4.131,11.294-12.393,20.303-23.291,25.386C325.651,186.177,319.206,187.598,312.702,187.598z M299.079,148.926
				c1.699,3.618,4.688,6.372,8.467,7.734c3.75,1.362,7.852,1.201,11.455-0.498c3.662-1.699,6.416-4.702,7.764-8.452
				c1.377-3.765,1.201-7.837-0.498-11.47c-1.699-3.647-4.688-6.401-8.467-7.764c-3.721-1.392-7.822-1.201-11.426,0.498
				C298.845,132.476,295.593,141.426,299.079,148.926L299.079,148.926z"/>
		</g>
	</g>
	<path style="fill:#994C0F;" d="M328.083,100.279c-11.279-4.087-23.496-3.574-34.395,1.509l12.671,27.198
		c0.005-0.004,0.009-0.007,0.009-0.007c3.609-1.703,7.711-1.893,11.431-0.502c3.779,1.362,6.768,4.116,8.467,7.764
		c1.699,3.633,1.875,7.705,0.498,11.47c-1.346,3.745-4.098,6.742-7.751,8.443l12.669,27.198l0.004-0.002
		c10.898-5.083,19.16-14.092,23.291-25.386c4.102-11.294,3.545-23.511-1.523-34.395
		C348.386,112.657,339.362,104.395,328.083,100.279z"/>
	<g>
		<g>
			<path style="fill:#BF6015;" d="M198.411,187.569c-6.387,0-12.832-1.362-18.955-4.219c-22.5-10.488-32.256-37.31-21.768-59.795
				c5.068-10.898,14.092-19.16,25.4-23.276c11.25-4.072,23.496-3.574,34.395,1.509c22.5,10.488,32.256,37.31,21.768,59.795
				c0,0.015,0,0.015,0,0.015C231.634,177.945,215.345,187.569,198.411,187.569z M198.499,127.569
				c-5.654,0-11.074,3.208-13.623,8.657c-3.486,7.5-0.234,16.436,7.266,19.937c7.471,3.516,16.436,0.22,19.922-7.236l0,0
				c3.486-7.515,0.234-16.45-7.266-19.951C202.776,128.023,200.608,127.569,198.499,127.569z"/>
		</g>
	</g>
	<path style="fill:#994C0F;" d="M212.064,148.926c-3.486,7.456-12.451,10.752-19.922,7.236l-0.013-0.009l-12.68,27.191
		c0.004,0.002,0.004,0.004,0.004,0.004c6.127,2.858,12.572,4.221,18.959,4.221c16.934,0,33.223-9.624,40.84-25.972c0,0,0,0,0-0.015
		c10.488-22.485,0.732-49.307-21.768-59.795l-12.68,27.191C212.298,132.484,215.55,141.414,212.064,148.926z"/>
	<g>
		<path style="fill:#FEA832;" d="M243.821,329.234h0.293H243.821z M192.006,156.06c-32.699-15.298-69.3-16.8-103.2-4.499
			c-29.099,10.499-53.399,30.599-69,56.7c-2.699,4.199-5.099,8.699-7.2,13.2c-2.1,4.499-3.9,9.3-5.4,13.799
			c-9.901,29.101-9.6,60.3,0.899,89.399c10.501,29.101,30.601,53.401,56.7,69.001c4.2,2.699,8.701,5.099,13.2,7.2
			c4.801,2.1,9.3,3.9,14.101,5.4c14.099,4.799,28.499,7.2,42.9,7.2c15.599,0,31.199-2.699,46.199-8.101
			c29.101-10.499,53.401-30.599,69-56.699c2.701-4.2,5.101-8.701,7.202-13.2c2.098-4.501,3.898-9.3,5.698-13.801
			C284.707,257.16,255.007,185.462,192.006,156.06z"/>
	</g>
	<g>
		<path style="fill:#FE9923;" d="M78.007,400.861c4.801,2.1,9.3,3.9,14.101,5.4c14.099,4.799,28.499,7.2,42.9,7.2
			c15.599,0,31.199-2.699,46.199-8.101c29.101-10.499,53.401-30.599,69-56.699c2.701-4.2,5.101-8.701,7.202-13.2
			c2.098-4.501,3.898-9.3,5.698-13.801c21.584-64.453-8.068-136.082-70.97-165.524L78.007,400.861z"/>
	</g>
	<g>
		<path style="fill:#BF6015;" d="M263.106,321.661c-1.8,4.501-3.6,9.3-5.698,13.801c-2.1,4.499-4.501,9-7.202,13.2L7.207,235.261
			c1.5-4.499,3.3-9.3,5.4-13.799c2.1-4.501,4.501-9.001,7.2-13.2L263.106,321.661z"/>
	</g>
	<path style="fill:#994C0F;" d="M263.106,321.661l-121.708-56.726l-12.62,27.059l121.428,56.667c2.701-4.2,5.101-8.701,7.202-13.2
		C259.506,330.961,261.306,326.162,263.106,321.661z"/>
	<g>
		<path style="fill:#BF6015;" d="M123.307,339.362l-31.199,66.899c-4.801-1.5-9.3-3.3-14.101-5.4c-4.499-2.1-9-4.501-13.2-7.2
			l31.201-67.2c3.6-7.5,12.599-10.501,20.099-7.202C123.607,322.86,126.907,331.862,123.307,339.362z"/>
	</g>
	<g>
		<g>
			<path style="fill:#FEDB41;" d="M503.808,235.561c-1.501-4.799-3.301-9.6-5.4-14.099c-2.1-4.501-4.501-9.001-7.202-13.2
				c-15.599-26.102-39.899-46.201-69-56.7c-33.9-12.301-70.499-10.8-103.2,4.499c-49.2,22.8-77.999,71.7-77.999,122.701
				c0,14.099,2.401,28.801,7.2,42.9c1.5,4.501,3.3,9.3,5.4,13.801c2.1,4.499,4.501,9,7.2,13.2c15.601,26.1,39.901,46.199,69,56.699
				c15.3,5.402,30.901,8.101,46.501,8.101c14.399,0,28.799-2.401,42.599-7.2c4.799-1.5,9.6-3.3,14.099-5.4
				c4.501-2.1,9.001-4.501,13.2-7.2c26.1-15.601,46.201-39.901,56.7-69.001C513.408,295.561,513.706,264.362,503.808,235.561z"/>
		</g>
		<path style="fill:#FFCC33;" d="M502.907,324.66c10.501-29.099,10.8-60.298,0.901-89.099c-1.501-4.799-3.301-9.6-5.4-14.099
			c-2.1-4.501-4.501-9.001-7.202-13.2c-15.599-26.102-39.899-46.201-69-56.7c-33.9-12.301-70.499-10.8-103.2,4.499
			c0,0-0.018,0.011-0.029,0.016l114.029,244.785c4.501-2.1,9.001-4.501,13.2-7.2C472.306,378.061,492.407,353.761,502.907,324.66z"
			/>
		<g>
			<path style="fill:#BF6015;" d="M446.206,393.662c-4.199,2.699-8.699,5.099-13.2,7.2c-4.499,2.1-9.3,3.9-14.099,5.4
				l-31.199-66.899c-3.301-7.5,0-16.501,7.5-20.101c7.5-3.3,16.199-0.298,19.799,7.202L446.206,393.662z"/>
		</g>
	</g>
	<g>
		<g>
			<path style="fill:#994C0F;" d="M92.108,406.261l31.199-66.899c3.6-7.5,0.3-16.501-7.2-20.101l-0.04-0.009l-38.06,81.61
				C82.808,402.962,87.306,404.761,92.108,406.261z"/>
		</g>
	</g>
	<g>
		<path style="fill:#BF6015;" d="M503.808,235.561L260.806,348.662c-2.699-4.2-5.099-8.701-7.2-13.2c-2.1-4.501-3.9-9.3-5.4-13.801
			l242.999-113.399c2.701,4.199,5.101,8.699,7.202,13.2C500.506,225.961,502.306,230.762,503.808,235.561z"/>
	</g>
	<path style="fill:#994C0F;" d="M415.007,326.462c-3.6-7.5-12.299-10.501-19.799-7.202c-0.062,0.029-0.097,0.088-0.157,0.119
		l37.956,81.482c4.501-2.1,9.001-4.501,13.2-7.2L415.007,326.462z"/>
	<path style="fill:#994C0F;" d="M369.701,264.964l12.638,27.133l121.469-56.536c-1.501-4.799-3.301-9.6-5.4-14.099
		c-2.1-4.501-4.501-9.001-7.202-13.2L369.701,264.964z"/>
</g>
<g>
</g>
<g>
</g>
<g>
</g>
<g>
</g>
<g>
</g>
<g>
</g>
<g>
</g>
<g>
</g>
<g>
</g>
<g>
</g>
<g>
</g>
<g>
</g>
<g>
</g>
<g>
</g>
<g>
</g>
</svg>
