<?xml version="1.0" encoding="iso-8859-1"?>
<!-- Generator: Adobe Illustrator 19.0.0, SVG Export Plug-In . SVG Version: 6.00 Build 0)  -->
<svg version="1.1" id="Layer_1" xmlns="http://www.w3.org/2000/svg" xmlns:xlink="http://www.w3.org/1999/xlink" x="0px" y="0px"
	 viewBox="0 0 512 512" style="enable-background:new 0 0 512 512;" xml:space="preserve">
<g>
	<g>
		<g>
			<path style="fill:#0CA656;" d="M449.173,498.549c-1.963,0-3.94-0.381-5.83-1.172C326.771,448.231,247.684,335.102,241.898,209.14
				c-0.19-4.087,1.304-8.086,4.131-11.045c2.842-2.974,6.753-4.644,10.855-4.644c6.094,0,12.349-1.465,18.105-4.219
				c5.713-2.739,12.612-1.597,17.095,2.915c16.187,16.187,39.082,30.264,66.182,40.693c4.6,1.772,8.027,5.684,9.185,10.474
				c15.527,64.028,61.274,117.729,122.388,143.628c6.094,2.593,9.785,8.877,9.053,15.469c-0.732,6.577-5.698,11.909-12.217,13.096
				l-44.575,8.145l21.064,54.492c2.168,5.61,0.776,11.982-3.545,16.172C456.761,497.084,452.997,498.549,449.173,498.549z"/>
		</g>
		<g>
			<path style="fill:#32D736;" d="M266.54,198.109c-0.52-0.54-1.07-1.04-1.66-1.49c-0.19-0.16-0.39-0.3-0.59-0.44
				c-0.18-0.13-0.37-0.25-0.56-0.37c-0.04-0.03-0.09-0.06-0.14-0.09c-2.35-1.47-5.09-2.27-7.91-2.27c-6.6,0-12.48-1.4-18.48-4.42
				c-5.69-2.81-13.28-1.63-17.71,2.9c-15.43,15.69-38.03,29.76-65.38,40.69c-4.51,1.8-7.88,5.69-9.01,10.42
				c-15.5,64.19-61.26,117.99-122.39,143.9c-6.09,2.6-9.78,8.88-9.05,15.47c0.73,6.58,5.7,11.91,12.22,13.1l44.57,8.14l-21.06,54.49
				c-2.17,5.62-0.78,11.99,3.54,16.18c2.86,2.77,6.62,4.23,10.45,4.23c1.96,0,3.94-0.38,5.83-1.17
				c90.39-38.1,158.31-114.97,186.93-206.55c8.19-26.2,13.16-53.61,14.53-81.65C270.86,205.079,269.38,201.079,266.54,198.109z"/>
		</g>
		<g>
			<g>
				<g>
					<path style="fill:#FD003A;" d="M43.169,283.451c-5.684,0-10.869-3.208-13.418-8.291c-39.668-79.336-39.668-174.082,0-253.418
						c2.549-5.083,7.734-8.291,13.418-8.291c75.088,0,156.322,28.184,197.953,70.137c3.428,3.457,4.966,8.364,4.116,13.169
						s-3.97,8.892-8.379,10.972c-15.732,7.383-25.884,23.379-25.884,40.723c0,17.139,10.078,33.018,25.664,40.459
						c4.38,2.08,7.471,6.152,8.306,10.928c0.85,4.775-0.674,9.668-4.072,13.125c-18.296,18.618-44.443,35.054-75.63,47.52
						C127.86,275.292,82.72,283.451,43.169,283.451z"/>
				</g>
			</g>
			<g>
				<path style="fill:#E50027;" d="M468.831,283.451c-38.833,0-83.789-8.027-121.377-22.617
					c-30.952-11.924-57.451-28.345-76.582-47.476c-3.457-3.457-5.01-8.379-4.175-13.184c0.85-4.819,3.97-8.921,8.394-11.001
					c15.732-7.383,25.884-23.379,25.884-40.723c0-17.139-10.078-33.018-25.664-40.459c-4.365-2.08-7.456-6.138-8.306-10.913
					c-0.85-4.761,0.659-9.639,4.043-13.11c40.576-41.514,123.588-70.518,197.783-70.518c5.684,0,10.869,3.208,13.418,8.291
					c39.668,79.336,39.668,174.082,0,253.418C479.7,280.243,474.515,283.451,468.831,283.451z"/>
			</g>
		</g>
		<g>
			<path style="fill:#E50027;" d="M105.975,193.451c-8.291,0-15-6.709-15-15s6.709-15,15-15c41.455,0,66.592-9.448,73.638-15
				c-7.046-5.552-32.183-15-73.638-15c-8.291,0-15-6.709-15-15s6.709-15,15-15c52.266,0,105,13.916,105,45
				S158.241,193.451,105.975,193.451z"/>
		</g>
		<g>
			<g>
				<path style="fill:#C1001F;" d="M405.975,193.451c-52.266,0-105-13.916-105-45s52.734-45,105-45c8.291,0,15,6.709,15,15
					s-6.709,15-15,15c-41.455,0-66.592,9.448-73.638,15c7.046,5.552,32.183,15,73.638,15c8.291,0,15,6.709,15,15
					S414.266,193.451,405.975,193.451z"/>
			</g>
		</g>
	</g>
	<g>
		<path style="fill:#FEA832;" d="M256.883,223.451c-11.836,0-21.855-2.241-31.553-6.826c-0.557-0.19-1.099-0.396-1.611-0.645
			c-25.972-12.378-42.744-38.892-42.744-67.529c0-28.916,16.919-55.562,43.11-67.881c20.244-9.302,43.257-9.36,62.534-0.293
			c0.557,0.176,1.099,0.396,1.611,0.645c25.972,12.378,42.744,38.892,42.744,67.529c0,28.916-16.919,55.562-43.11,67.881
			C278.197,220.976,267.445,223.451,256.883,223.451z"/>
	</g>
	<path style="fill:#FE9923;" d="M288.231,80.922c-0.513-0.249-1.055-0.469-1.611-0.645c-9.56-4.497-20.041-6.72-30.645-6.714
		v149.795c0.322,0.004,0.584,0.093,0.908,0.093c10.562,0,21.313-2.476,30.981-7.119c26.191-12.319,43.11-38.965,43.11-67.881
		C330.975,119.813,314.203,93.3,288.231,80.922z"/>
</g>
<g>
</g>
<g>
</g>
<g>
</g>
<g>
</g>
<g>
</g>
<g>
</g>
<g>
</g>
<g>
</g>
<g>
</g>
<g>
</g>
<g>
</g>
<g>
</g>
<g>
</g>
<g>
</g>
<g>
</g>
</svg>
