<?xml version="1.0" encoding="iso-8859-1"?>
<!-- Generator: Adobe Illustrator 19.0.0, SVG Export Plug-In . SVG Version: 6.00 Build 0)  -->
<svg version="1.1" id="Layer_1" xmlns="http://www.w3.org/2000/svg" xmlns:xlink="http://www.w3.org/1999/xlink" x="0px" y="0px"
	 viewBox="0 0 512 512" style="enable-background:new 0 0 512 512;" xml:space="preserve">
<g>
	<path style="fill:#FD003A;" d="M436,0H76C34.6,0,0,34.6,0,76v360c0,41.4,34.6,76,76,76h360c41.4,0,76-34.6,76-76V76
		C512,34.6,477.4,0,436,0z"/>
	<path style="fill:#E50027;" d="M512,76v360c0,41.4-34.6,76-76,76H256V0h180C477.4,0,512,34.6,512,76z"/>
	<path style="fill:#CCEFFF;" d="M256,436c-99.258,0-180-80.742-180-180S156.742,76,256,76s180,80.742,180,180S355.258,436,256,436z"
		/>
	<path style="fill:#ACE3FC;" d="M436,256c0-99.258-80.742-180-180-180v360C355.258,436,436,355.258,436,256z"/>
	<g>
		<path style="fill:#994C0F;" d="M394.459,393.023C429.364,357.757,452,309.335,452,256c0-53.339-22.638-101.763-57.545-137.029
			c-0.231-0.266-0.317-0.604-0.569-0.857s-0.591-0.339-0.857-0.569C357.763,82.638,309.339,61,256,61
			s-101.763,21.638-137.029,56.545c-0.266,0.231-0.604,0.317-0.857,0.569s-0.339,0.591-0.569,0.857
			C82.638,154.237,61,202.661,61,256c0,53.335,21.636,101.757,56.541,137.023c0.233,0.267,0.319,0.608,0.573,0.862
			s0.595,0.341,0.864,0.573C154.245,429.362,202.665,451,256,451s101.755-21.638,137.021-56.541c0.269-0.233,0.61-0.319,0.864-0.573
			S394.226,393.291,394.459,393.023z M256,391c-8.401,0-15,6.599-15,15v14.24c-34.241-3.105-65.491-16.664-90.504-37.526
			l10.04-10.04c5.859-5.859,5.859-15.352,0-21.211s-15.352-5.859-21.211,0l-10.042,10.042C108.422,336.495,94.865,305.243,91.76,271
			H106c8.291,0,15-6.709,15-15s-6.709-15-15-15H91.76c3.105-34.243,16.663-65.495,37.524-90.505l10.042,10.042
			c5.859,5.859,15.352,5.859,21.211,0s5.859-15.352,0-21.211l-10.04-10.04c25.012-20.861,56.263-34.42,90.504-37.526V106
			c0,8.399,6.599,15,15,15s15-6.601,15-15V91.76c34.221,3.104,65.12,17.075,90.128,37.901l-9.664,9.664
			c-5.859,5.859-5.859,15.352,0,21.211s15.352,5.859,21.211,0l9.67-9.67c20.815,24.944,34.083,55.981,37.222,90.134H406
			c-8.291,0-15,6.709-15,15s6.709,14.9,15,14.9h13.566c-3.138,34.153-16.406,65.289-37.222,90.234l-9.67-9.67
			c-5.859-5.859-15.352-5.859-21.211,0s-5.859,15.352,0,21.211l9.664,9.664C336.12,403.166,305.221,417.136,271,420.24V406
			C271,397.599,264.401,391,256,391z"/>
		<g>
			<path style="fill:#713708;" d="M271,106V91.76c34.221,3.104,65.12,17.075,90.128,37.901l-9.664,9.664
				c-5.859,5.859-5.859,15.352,0,21.211s15.352,5.859,21.211,0l9.67-9.67c20.815,24.944,34.083,55.981,37.222,90.134H406
				c-8.291,0-15,6.709-15,15s6.709,14.9,15,14.9h13.566c-3.138,34.153-16.406,65.289-37.222,90.234l-9.67-9.67
				c-5.859-5.859-15.352-5.859-21.211,0s-5.859,15.352,0,21.211l9.664,9.664C336.12,403.166,305.221,417.136,271,420.24V406
				c0-8.401-6.599-15-15-15v60c53.335,0,101.755-21.638,137.021-56.541c0.269-0.233,0.61-0.319,0.864-0.573s0.341-0.595,0.573-0.862
				C429.364,357.757,452,309.335,452,256c0-53.339-22.638-101.763-57.545-137.029c-0.231-0.266-0.317-0.604-0.569-0.857
				s-0.591-0.339-0.857-0.569C357.763,82.638,309.339,61,256,61v60C264.401,121,271,114.399,271,106z"/>
			<path style="fill:#994C0F;" d="M271,166v90c0,6-3.6,11.4-9.3,13.799C259.9,270.7,257.8,271,256,271c-3.9,0-7.8-1.5-10.499-4.501
				l-63.6-63.6c-6-5.7-6-15.3,0-21c5.698-6,15.298-6,20.999,0l38.101,37.8V166c0-8.401,6.599-15,15-15S271,157.599,271,166z"/>
		</g>
	</g>
	<path style="fill:#713708;" d="M271,166v90c0,6-3.6,11.4-9.3,13.799C259.9,270.7,257.8,271,256,271V151
		C264.401,151,271,157.599,271,166z"/>
</g>
<g>
</g>
<g>
</g>
<g>
</g>
<g>
</g>
<g>
</g>
<g>
</g>
<g>
</g>
<g>
</g>
<g>
</g>
<g>
</g>
<g>
</g>
<g>
</g>
<g>
</g>
<g>
</g>
<g>
</g>
</svg>
