<?xml version="1.0" encoding="iso-8859-1"?>
<!-- Generator: Adobe Illustrator 19.0.0, SVG Export Plug-In . SVG Version: 6.00 Build 0)  -->
<svg version="1.1" id="Layer_1" xmlns="http://www.w3.org/2000/svg" xmlns:xlink="http://www.w3.org/1999/xlink" x="0px" y="0px"
	 viewBox="0 0 512 512" style="enable-background:new 0 0 512 512;" xml:space="preserve">
<g>
	<path style="fill:#FD003A;" d="M511.7,250.6l-11.4,29.7c-8.099-11.7-27.999-11.7-36.099,0c-9.6,14.399-25.201,22.8-42.599,22.8
		c-17.1,0-32.701-8.401-42.301-22.8l-19.799-39c-7.2-51-50.7-90.3-103.5-90.3s-96.301,39.3-103.5,90l-18.3,39.3
		c-9.6,14.399-25.201,22.8-42.599,22.8c-17.1,0-32.701-8.401-42.301-22.8c-8.099-11.7-27.999-11.7-36.099,0L0,256
		c0-1.5,0.3-3.001,0.3-4.501C2.701,112.899,116.8,0,256,0C394.6,0,508.7,112.299,511.7,250.6z"/>
	<path style="fill:#E50027;" d="M511.7,250.6l-11.4,29.7c-8.099-11.7-27.999-11.7-36.099,0c-9.6,14.399-25.201,22.8-42.599,22.8
		c-17.1,0-32.701-8.401-42.301-22.8l-19.799-39c-7.2-51-50.7-90.3-103.5-90.3V0C394.6,0,508.7,112.299,511.7,250.6z"/>
	<path style="fill:#DCF4FF;" d="M196,121h-30c-8.291,0-15-6.709-15-15s6.709-15,15-15h30c8.291,0,15,6.709,15,15
		S204.291,121,196,121z"/>
	<path style="fill:#DCF4FF;" d="M365.395,146.605l-30-30c-5.859-5.859-5.859-15.352,0-21.211s15.352-5.859,21.211,0l30,30
		c5.859,5.859,5.859,15.352,0,21.211C380.746,152.465,371.254,152.465,365.395,146.605z"/>
	<path style="fill:#DCF4FF;" d="M296.499,86.499l-30,30C263.8,119.5,259.9,121,256,121s-7.8-1.5-10.499-4.501c-6-5.7-6-15.3,0-21
		l30-30c5.7-5.999,15.298-5.999,20.999,0C302.5,71.199,302.5,80.799,296.499,86.499z"/>
	<path style="fill:#DCF4FF;" d="M125.395,206.605l-30-30c-5.859-5.859-5.859-15.352,0-21.211s15.352-5.859,21.211,0l30,30
		c5.859,5.859,5.859,15.352,0,21.211C140.746,212.465,131.254,212.465,125.395,206.605z"/>
	<path style="fill:#DCF4FF;" d="M436,211h-30c-8.291,0-15-6.709-15-15s6.709-15,15-15h30c8.291,0,15,6.709,15,15
		S444.291,211,436,211z"/>
	<path style="fill:#994C0F;" d="M512,256c0,137.399-112.899,256-256,256S0,393.399,0,256c0-1.5,0.3-3.001,0.3-4.501
		C9,244.9,19.501,241,30.601,241c17.399,0,33.999,8.399,43.599,22.8c8.101,11.999,27.001,11.999,35.099,0
		c9.6-14.401,25.201-22.8,42.301-22.8h0.899c-0.599,5.099-1.5,9.899-1.5,15c0,55.499,45.601,105,105,105c59.7,0,105-49.501,105-105
		c0-5.101-0.901-9.901-1.5-14.7c0.899,0,1.5-0.3,2.1-0.3c17.399,0,32.999,8.399,42.599,22.8c8.101,11.999,27.001,11.999,35.099,0
		c9.6-14.401,25.201-22.8,42.301-22.8c10.8,0,21.7,3.6,30.099,9.6C511.7,252.4,512,254.2,512,256z"/>
	<path style="fill:#713708;" d="M512,256c0,137.399-112.899,256-256,256V361c59.7,0,105-49.501,105-105
		c0-5.101-0.901-9.901-1.5-14.7c0.899,0,1.5-0.3,2.1-0.3c17.399,0,32.999,8.399,42.599,22.8c8.101,11.999,27.001,11.999,35.099,0
		c9.6-14.401,25.201-22.8,42.301-22.8c10.8,0,21.7,3.6,30.099,9.6C511.7,252.4,512,254.2,512,256z"/>
</g>
<g>
</g>
<g>
</g>
<g>
</g>
<g>
</g>
<g>
</g>
<g>
</g>
<g>
</g>
<g>
</g>
<g>
</g>
<g>
</g>
<g>
</g>
<g>
</g>
<g>
</g>
<g>
</g>
<g>
</g>
</svg>
