<svg id="Layer_1" data-name="Layer 1" xmlns="http://www.w3.org/2000/svg" viewBox="0 0 500 500"><defs><style>.cls-1{fill:#fea832;}.cls-2{fill:#fe9923;}.cls-3{fill:#713708;}.cls-4{fill:#994c0f;}</style></defs><title>Rityta 1</title><circle class="cls-1" cx="249.59" cy="250.17" r="247.06" transform="translate(-103.79 249.76) rotate(-45)"/><path class="cls-2" d="M425,76.17c96.14,96.51,96,252.68-.34,349s-252.54,96.48-349,.34Z"/><path class="cls-3" d="M344.82,330.74a43.86,43.86,0,1,1,43.86-43.86A43.91,43.91,0,0,1,344.82,330.74Z"/><path class="cls-4" d="M249.59,122.86A35.85,35.85,0,1,1,285.44,87,35.89,35.89,0,0,1,249.59,122.86Z"/><path class="cls-3" d="M271.71,446.95A29.24,29.24,0,1,1,301,417.7,29.28,29.28,0,0,1,271.71,446.95Z"/><path class="cls-3" d="M424.83,207.7a21.93,21.93,0,1,1,20.07-20.07A22,22,0,0,1,424.83,207.7Z"/><path class="cls-4" d="M180.74,226.46A29.24,29.24,0,1,1,210,197.21,29.28,29.28,0,0,1,180.74,226.46Z"/><circle class="cls-3" cx="437.66" cy="294.24" r="14.62"/><circle class="cls-4" cx="83.5" cy="200.46" r="14.62"/><path class="cls-4" d="M197.35,305.19a42.2,42.2,0,0,0-27.51-10.94,43.8,43.8,0,0,0-45,42.72,44.29,44.29,0,0,0,42.72,45,43.8,43.8,0,0,0,45-42.72A42.45,42.45,0,0,0,197.35,305.19Z"/><path class="cls-3" d="M212.56,339.22a43.8,43.8,0,0,1-45,42.72,42.91,42.91,0,0,1-32.07-15.45l61.83-61.31A42.44,42.44,0,0,1,212.56,339.22Z"/></svg>