<svg xmlns="http://www.w3.org/2000/svg" xmlns:xlink="http://www.w3.org/1999/xlink" version="1.1" x="0px" y="0px" viewBox="0 0 100 125" style="enable-background:new 0 0 100 100;" xml:space="preserve"><g><g><path d="M50,19.9c-16.6,0-30.1,13.5-30.1,30.1S33.4,80.1,50,80.1S80.1,66.6,80.1,50S66.6,19.9,50,19.9z M50,77.1    c-14.9,0-27.1-12.1-27.1-27.1S35.1,22.9,50,22.9S77.1,35.1,77.1,50S64.9,77.1,50,77.1z"/><path d="M45.7,50l11.8-11.8c0.6-0.6,0.6-1.5,0-2.1c-0.6-0.6-1.5-0.6-2.1,0L42.5,48.9c-0.6,0.6-0.6,1.5,0,2.1l12.8,12.8    c0.3,0.3,0.7,0.4,1.1,0.4s0.8-0.1,1.1-0.4c0.6-0.6,0.6-1.5,0-2.1L45.7,50z"/></g></g><text x="0" y="115" fill="#000000" font-size="5px" font-weight="bold" font-family="'Helvetica Neue', Helvetica, Arial-Unicode, Arial, Sans-serif">Created by Bestdesignmarket</text><text x="0" y="120" fill="#000000" font-size="5px" font-weight="bold" font-family="'Helvetica Neue', Helvetica, Arial-Unicode, Arial, Sans-serif">from the Noun Project</text></svg>