<svg xmlns="http://www.w3.org/2000/svg" xmlns:xlink="http://www.w3.org/1999/xlink" viewBox="0 0 1600 1067"><defs><style>.cls-1{fill:blue;}.cls-2{fill:#0b6d35;}.cls-3{fill:#10bb67;}.cls-4{fill:#0ca656;}.cls-5{fill:#0d592b;}.cls-6{fill:#13a053;}.cls-7{fill:#108e46;}.cls-8{fill:url(#Namnlös_övertoning_20);}.cls-9{fill:url(#Namnlös_övertoning_20-2);}.cls-10{fill:url(#Namnlös_övertoning_20-3);}.cls-11{fill:#bf6015;}.cls-12{fill:#994c0f;}</style><linearGradient id="Namnlös_övertoning_20" x1="794" y1="1122.47" x2="794" y2="911.64" gradientUnits="userSpaceOnUse"><stop offset="0" stop-color="#fff"/><stop offset="0.41" stop-color="#fdfdff"/><stop offset="0.62" stop-color="#f5f6fe"/><stop offset="0.77" stop-color="#e8ebfc"/><stop offset="0.91" stop-color="#d5daf9"/><stop offset="1" stop-color="#c4cbf7"/></linearGradient><linearGradient id="Namnlös_övertoning_20-2" x1="352.86" y1="1111.73" x2="352.86" y2="944.32" xlink:href="#Namnlös_övertoning_20"/><linearGradient id="Namnlös_övertoning_20-3" x1="107.86" y1="1116.48" x2="107.86" y2="931.5" gradientTransform="matrix(-1, 0, 0, 1, 1355.73, 0)" xlink:href="#Namnlös_övertoning_20"/></defs><title>Rityta 1</title><g id="Lager_1" data-name="Lager 1"><rect class="cls-1" x="0.5" y="0.5" width="1599" height="1066"/></g><g id="snow"><path class="cls-2" d="M241.18,794.92V981.67a6.74,6.74,0,0,1-1.57,4.45l-17,19.09c-2.3,2.58-5.85,1.5-7-2.14L210.58,988c-1.25-3.82-5.05-4.77-7.3-1.84L188.88,1005c-2.09,2.74-5.6,2.12-7.07-1.24l-7.45-17c-1.47-3.36-5-4-7.07-1.24L150,1008c-2.36,3.08-6.38,1.84-7.43-2.29l-6-23.47c-.88-3.45-3.92-5-6.37-3.32l-34.1,23.77c-3.71,2.59-7.87-2.32-6.26-7.41l63.84-202.64c.69-2.2,2.33-3.63,4.15-3.63h78.85C239.17,789.05,241.18,791.68,241.18,794.92Z"/><path class="cls-3" d="M241.18,651.69v148.6a7.2,7.2,0,0,1-.77,3.29c-2.84,5.48-6.54,18.2-11.11,17.65-2.07-.25-5.32-8-8.24-13.49-1.6-3-4.88-3.36-6.85-.78l-5.49,7.17c-2.07,2.7-5.52,2.14-7-1.13l-4.27-9.3c-1.43-3.12-4.66-3.8-6.77-1.44L177.48,817c-2.65,3-6.77,1-7.35-3.49L169,805c-.48-3.73-3.49-5.91-6.15-4.45L138.44,813.9c-3.71,2-7.43-2.87-5.86-7.71l51-156.8c.7-2.17,2.33-3.57,4.13-3.57h49C239.17,645.82,241.18,648.45,241.18,651.69Z"/><path class="cls-4" d="M241.18,450.5,161,656c-2,5,2.13,10.45,6,7.91l7.87-5.14c3-2,6.5.89,6.5,5.25h0c0,4.92,4.35,7.66,7.29,4.58l5-5.2c2.23-2.33,5.54-1.38,6.82,2l1.67,4.38c1.28,3.34,4.59,4.29,6.82,2l8.65-9c2-2.07,4.88-1.59,6.4,1.06l3.18,5.54c1.91,3.33,5.8,3.07,7.44-.5l5.89-12.83a7.28,7.28,0,0,0,.64-3Z"/><path class="cls-5" d="M240.82,794.92V981.67a6.74,6.74,0,0,0,1.57,4.45l17,19.09c2.3,2.58,5.85,1.5,7-2.14L271.42,988c1.25-3.82,5.05-4.77,7.3-1.84l14.4,18.82c2.09,2.74,5.6,2.12,7.07-1.24l7.45-17c1.47-3.36,5-4,7.07-1.24L332,1008c2.36,3.08,6.38,1.84,7.43-2.29l6-23.47c.88-3.45,3.92-5,6.37-3.32l34.1,23.77c3.71,2.59,7.87-2.32,6.26-7.41L328.31,792.69c-.69-2.2-2.33-3.63-4.15-3.63H245.31C242.83,789.05,240.82,791.68,240.82,794.92Z"/><path class="cls-6" d="M240.82,651.69v148.6a7.2,7.2,0,0,0,.77,3.29c2.84,5.48,6.54,18.2,11.11,17.65,2.07-.25,5.32-8,8.24-13.49,1.6-3,4.88-3.36,6.85-.78l5.49,7.17c2.07,2.7,5.52,2.14,7-1.13l4.27-9.3c1.43-3.12,4.66-3.8,6.77-1.44L304.52,817c2.65,3,6.77,1,7.35-3.49L313,805c.48-3.73,3.49-5.91,6.15-4.45l24.46,13.32c3.71,2,7.43-2.87,5.86-7.71l-51-156.8c-.7-2.17-2.33-3.57-4.13-3.57h-49C242.83,645.82,240.82,648.45,240.82,651.69Z"/><path class="cls-7" d="M240.82,450.5,321,656c2,5-2.13,10.45-6,7.91l-7.87-5.14c-3-2-6.5.89-6.5,5.25h0c0,4.92-4.35,7.66-7.29,4.58l-5-5.2c-2.23-2.33-5.54-1.38-6.82,2l-1.67,4.38c-1.28,3.34-4.59,4.29-6.82,2l-8.65-9c-2-2.07-4.88-1.59-6.4,1.06l-3.18,5.54c-1.91,3.33-5.8,3.07-7.44-.5l-5.89-12.83a7.28,7.28,0,0,1-.64-3Z"/><path class="cls-8" d="M1556.5,1065.5c-244-20-506.32-152.55-729.2-153.85h0c-1.79,0-3.57,0-5.36,0q-14.08.05-27.93.86-13.86-.79-27.93-.86c-1.78,0-3.57,0-5.36,0h0C537.82,913,275.49,1045.48,31.5,1065.5Z"/><path class="cls-9" d="M704.23,1066.5C582,1051.81,363.5,937.5,200.37,944.64c-.89,0-1.79,0-2.68,0h0C112.5,953.5,80.5,979.5,1.5,1066.5Z"/><path class="cls-10" d="M896.5,1066.5c122.19-14.69,211.72-135,375-135,277,0,225,56,327.73,135Z"/></g><g id="Lager_2" data-name="Lager 2"><path class="cls-11" d="M1436.18,929.8v79.7h-25.63a11.1,11.1,0,0,1-10.77-13.8l16.48-65.9Z"/><path class="cls-12" d="M1435.82,929.8v79.7h25.63a11.1,11.1,0,0,0,10.77-13.8l-16.48-65.9Z"/><path class="cls-2" d="M1432.18,764.92V951.67a6.74,6.74,0,0,1-1.57,4.45l-17,19.09c-2.3,2.58-5.85,1.5-7-2.14L1401.58,958c-1.25-3.82-5.05-4.77-7.3-1.84L1379.88,975c-2.09,2.74-5.6,2.12-7.07-1.24l-7.45-17c-1.47-3.36-5-4-7.07-1.24L1341,978c-2.36,3.08-6.38,1.84-7.43-2.29l-6-23.47c-.88-3.45-3.92-5-6.37-3.32l-34.1,23.77c-3.71,2.59-7.87-2.32-6.26-7.41l63.84-202.64c.69-2.2,2.33-3.63,4.15-3.63h78.85C1430.17,759.05,1432.18,761.68,1432.18,764.92Z"/><path class="cls-3" d="M1432.18,621.69v148.6a7.2,7.2,0,0,1-.77,3.29c-2.84,5.48-6.54,18.2-11.11,17.65-2.07-.25-5.32-8-8.24-13.49-1.6-3-4.88-3.36-6.85-.78l-5.49,7.17c-2.07,2.7-5.52,2.14-7-1.13l-4.27-9.3c-1.43-3.12-4.66-3.8-6.77-1.44L1368.48,787c-2.65,3-6.77,1-7.35-3.49L1360,775c-.48-3.73-3.49-5.91-6.15-4.45l-24.46,13.32c-3.71,2-7.43-2.87-5.86-7.71l51-156.8c.7-2.17,2.33-3.57,4.13-3.57h49C1430.17,615.82,1432.18,618.45,1432.18,621.69Z"/><path class="cls-4" d="M1432.18,420.5,1352,626c-2,5,2.13,10.45,6,7.91l7.87-5.14c3-2,6.5.89,6.5,5.25h0c0,4.92,4.35,7.66,7.29,4.58l5-5.2c2.23-2.33,5.54-1.38,6.82,2l1.67,4.38c1.28,3.34,4.59,4.29,6.82,2l8.65-9c2-2.07,4.88-1.59,6.4,1.06l3.18,5.54c1.91,3.33,5.8,3.07,7.44-.5l5.89-12.83a7.28,7.28,0,0,0,.64-3Z"/><path class="cls-5" d="M1431.82,764.92V951.67a6.74,6.74,0,0,0,1.57,4.45l17,19.09c2.3,2.58,5.85,1.5,7-2.14l4.94-15.07c1.25-3.82,5.05-4.77,7.3-1.84l14.4,18.82c2.09,2.74,5.6,2.12,7.07-1.24l7.45-17c1.47-3.36,5-4,7.07-1.24L1523,978c2.36,3.08,6.38,1.84,7.43-2.29l6-23.47c.88-3.45,3.92-5,6.37-3.32l34.1,23.77c3.71,2.59,7.87-2.32,6.26-7.41l-63.84-202.64c-.69-2.2-2.33-3.63-4.15-3.63h-78.85C1433.83,759.05,1431.82,761.68,1431.82,764.92Z"/><path class="cls-6" d="M1431.82,621.69v148.6a7.2,7.2,0,0,0,.77,3.29c2.84,5.48,6.54,18.2,11.11,17.65,2.07-.25,5.32-8,8.24-13.49,1.6-3,4.88-3.36,6.85-.78l5.49,7.17c2.07,2.7,5.52,2.14,7-1.13l4.27-9.3c1.43-3.12,4.66-3.8,6.77-1.44L1495.52,787c2.65,3,6.77,1,7.35-3.49L1504,775c.48-3.73,3.49-5.91,6.15-4.45l24.46,13.32c3.71,2,7.43-2.87,5.86-7.71l-51-156.8c-.7-2.17-2.33-3.57-4.13-3.57h-49C1433.83,615.82,1431.82,618.45,1431.82,621.69Z"/><path class="cls-7" d="M1431.82,420.5,1512,626c2,5-2.13,10.45-6,7.91l-7.87-5.14c-3-2-6.5.89-6.5,5.25h0c0,4.92-4.35,7.66-7.29,4.58l-5-5.2c-2.23-2.33-5.54-1.38-6.82,2l-1.67,4.38c-1.28,3.34-4.59,4.29-6.82,2l-8.65-9c-2-2.07-4.88-1.59-6.4,1.06l-3.18,5.54c-1.91,3.33-5.8,3.07-7.44-.5l-5.89-12.83a7.28,7.28,0,0,1-.64-3Z"/><path class="cls-11" d="M150.68,921.8v79.7H129.62c-5.93,0-10.29-6.79-8.85-13.8l13.53-65.9Z"/><path class="cls-12" d="M150.39,921.8v79.7h21.05c5.93,0,10.29-6.79,8.85-13.8l-13.53-65.9Z"/><path class="cls-2" d="M150.65,794.39V939.65a5,5,0,0,1-1.3,3.47L135.17,958c-1.91,2-4.87,1.16-5.86-1.67l-4.11-11.73c-1-3-4.2-3.71-6.07-1.43l-12,14.64c-1.74,2.13-4.66,1.65-5.88-1l-6.2-13.26c-1.22-2.61-4.14-3.09-5.88-1L74.82,960.16c-2,2.4-5.3,1.43-6.18-1.78l-5-18.25c-.73-2.68-3.26-3.91-5.3-2.58L30,956c-3.09,2-6.54-1.81-5.21-5.76L77.89,792.66a3.81,3.81,0,0,1,3.45-2.83h65.57C149,789.83,150.65,791.87,150.65,794.39Z"/><path class="cls-3" d="M150.65,683V798.57a5.31,5.31,0,0,1-.64,2.56c-2.36,4.26-5.44,14.15-9.24,13.73-1.73-.19-4.43-6.24-6.86-10.49a3.33,3.33,0,0,0-5.7-.61l-4.56,5.58c-1.72,2.1-4.59,1.67-5.84-.88l-3.55-7.23c-1.19-2.42-3.88-3-5.63-1.12l-11,11.47c-2.21,2.31-5.63.79-6.11-2.71l-.9-6.6c-.4-2.9-2.9-4.59-5.12-3.46L65.2,809.16c-3.09,1.57-6.18-2.23-4.87-6l42.4-122a3.8,3.8,0,0,1,3.44-2.78h40.75C149,678.42,150.65,680.46,150.65,683Z"/><path class="cls-4" d="M150.65,526.5,84,686.32c-1.64,3.92,1.77,8.12,5,6.15l6.54-4c2.48-1.52,5.4.69,5.4,4.08h0c0,3.83,3.62,6,6.07,3.56l4.14-4c1.86-1.82,4.61-1.08,5.67,1.52L118.2,697c1.06,2.6,3.82,3.34,5.67,1.52l7.19-7a3.31,3.31,0,0,1,5.32.83l2.64,4.31c1.59,2.59,4.82,2.39,6.19-.39l4.9-10a5.35,5.35,0,0,0,.53-2.35Z"/><path class="cls-5" d="M150.35,794.39V939.65a5,5,0,0,0,1.3,3.47L165.83,958c1.91,2,4.87,1.16,5.86-1.67l4.11-11.73c1-3,4.2-3.71,6.07-1.43l12,14.64c1.74,2.13,4.66,1.65,5.88-1l6.2-13.26c1.22-2.61,4.14-3.09,5.88-1l14.37,17.56c2,2.4,5.3,1.43,6.18-1.78l5-18.25c.73-2.68,3.26-3.91,5.3-2.58L271,956c3.09,2,6.54-1.81,5.21-5.76L223.11,792.66a3.81,3.81,0,0,0-3.45-2.83H154.09C152,789.83,150.35,791.87,150.35,794.39Z"/><path class="cls-6" d="M150.35,683V798.57a5.31,5.31,0,0,0,.64,2.56c2.36,4.26,5.44,14.15,9.24,13.73,1.73-.19,4.43-6.24,6.86-10.49a3.33,3.33,0,0,1,5.7-.61l4.56,5.58c1.72,2.1,4.59,1.67,5.84-.88l3.55-7.23c1.19-2.42,3.88-3,5.63-1.12l11,11.47c2.21,2.31,5.63.79,6.11-2.71l.9-6.6c.4-2.9,2.9-4.59,5.12-3.46l20.34,10.36c3.09,1.57,6.18-2.23,4.87-6l-42.4-122a3.8,3.8,0,0,0-3.44-2.78H154.09C152,678.42,150.35,680.46,150.35,683Z"/><path class="cls-7" d="M150.35,526.5,217,686.32c1.64,3.92-1.77,8.12-5,6.15l-6.54-4c-2.48-1.52-5.4.69-5.4,4.08h0c0,3.83-3.62,6-6.07,3.56l-4.14-4c-1.86-1.82-4.61-1.08-5.67,1.52L182.8,697c-1.06,2.6-3.82,3.34-5.67,1.52l-7.19-7a3.31,3.31,0,0,0-5.32.83L162,696.62c-1.59,2.59-4.82,2.39-6.19-.39l-4.9-10a5.35,5.35,0,0,1-.53-2.35Z"/><path class="cls-11" d="M310.56,977v53.54h-11.8c-3.33,0-5.77-4.56-5-9.27L301.38,977Z"/><path class="cls-2" d="M310.24,901.68v85a3.37,3.37,0,0,1-.56,1.9c-2.12,3.12-4.9,10.44-8.33,10.12-1.55-.14-4-4.57-6.15-7.7a3.36,3.36,0,0,0-5.14-.47l-4.1,4.1a3.36,3.36,0,0,1-5.26-.65l-3.19-5.32a3.36,3.36,0,0,0-5.07-.82l-9.85,8.44a3.36,3.36,0,0,1-5.5-2l-.81-4.86a3.36,3.36,0,0,0-4.6-2.55l-18.3,7.63a3.36,3.36,0,0,1-4.38-4.41l38.15-89.75a3.36,3.36,0,0,1,3.09-2h36.66A3.36,3.36,0,0,1,310.24,901.68Z"/><path class="cls-4" d="M310.24,786.52l-60,117.62a3.36,3.36,0,0,0,4.49,4.53l5.88-2.94a3.36,3.36,0,0,1,4.86,3h0a3.36,3.36,0,0,0,5.46,2.62l3.72-3a3.36,3.36,0,0,1,5.1,1.12L281,912a3.36,3.36,0,0,0,5.1,1.12l6.47-5.18a3.36,3.36,0,0,1,4.79.61l2.38,3.17a3.36,3.36,0,0,0,5.57-.29l4.41-7.34a3.36,3.36,0,0,0,.48-1.73Z"/><path class="cls-12" d="M310.4,977v53.54h11.8c3.33,0,5.77-4.56,5-9.27L319.57,977Z"/><path class="cls-5" d="M310,901.68v85a3.37,3.37,0,0,0,.56,1.9c2.12,3.12,4.9,10.44,8.33,10.12,1.55-.14,4-4.57,6.15-7.7a3.36,3.36,0,0,1,5.14-.47l4.1,4.1a3.36,3.36,0,0,0,5.26-.65l3.19-5.32a3.36,3.36,0,0,1,5.07-.82l9.85,8.44a3.36,3.36,0,0,0,5.5-2l.81-4.86a3.36,3.36,0,0,1,4.6-2.55l18.3,7.63a3.36,3.36,0,0,0,4.38-4.41l-38.15-89.75a3.36,3.36,0,0,0-3.09-2H313.33A3.36,3.36,0,0,0,310,901.68Z"/><path class="cls-7" d="M310,786.52l60,117.62a3.36,3.36,0,0,1-4.49,4.53l-5.88-2.94a3.36,3.36,0,0,0-4.86,3h0a3.36,3.36,0,0,1-5.46,2.62l-3.72-3a3.36,3.36,0,0,0-5.1,1.12L339.16,912a3.36,3.36,0,0,1-5.1,1.12l-6.47-5.18a3.36,3.36,0,0,0-4.79.61l-2.38,3.17a3.36,3.36,0,0,1-5.57-.29l-4.41-7.34a3.36,3.36,0,0,1-.48-1.73Z"/><path class="cls-11" d="M1291.82,984.39v44.11h-9.72c-2.74,0-4.75-3.76-4.09-7.64l6.25-36.48Z"/><path class="cls-2" d="M1291.55,922.38v70a2.77,2.77,0,0,1-.46,1.56c-1.75,2.57-4,8.6-6.86,8.34-1.28-.12-3.27-3.76-5.07-6.34a2.77,2.77,0,0,0-4.23-.39l-3.38,3.38a2.77,2.77,0,0,1-4.33-.53l-2.63-4.39a2.77,2.77,0,0,0-4.17-.68l-8.12,7a2.77,2.77,0,0,1-4.53-1.65l-.67-4a2.77,2.77,0,0,0-3.79-2.1l-15.08,6.28a2.77,2.77,0,0,1-3.61-3.64L1256,921.29a2.77,2.77,0,0,1,2.55-1.68h30.2A2.77,2.77,0,0,1,1291.55,922.38Z"/><path class="cls-4" d="M1291.55,827.5l-49.4,96.9a2.77,2.77,0,0,0,3.7,3.73l4.85-2.42a2.77,2.77,0,0,1,4,2.47h0a2.77,2.77,0,0,0,4.5,2.16l3.07-2.45a2.77,2.77,0,0,1,4.2.92l1,2.06a2.77,2.77,0,0,0,4.2.92l5.33-4.27a2.77,2.77,0,0,1,3.94.5l2,2.61a2.77,2.77,0,0,0,4.59-.24l3.63-6a2.77,2.77,0,0,0,.39-1.42Z"/><path class="cls-12" d="M1291.68,984.39v44.11h9.72c2.74,0,4.75-3.76,4.09-7.64l-6.25-36.48Z"/><path class="cls-5" d="M1291.33,922.38v70a2.77,2.77,0,0,0,.46,1.56c1.75,2.57,4,8.6,6.86,8.34,1.28-.12,3.27-3.76,5.07-6.34a2.77,2.77,0,0,1,4.23-.39l3.38,3.38a2.77,2.77,0,0,0,4.33-.53l2.63-4.39a2.77,2.77,0,0,1,4.17-.68l8.12,7a2.77,2.77,0,0,0,4.53-1.65l.67-4a2.77,2.77,0,0,1,3.79-2.1l15.08,6.28a2.77,2.77,0,0,0,3.61-3.64l-31.43-73.94a2.77,2.77,0,0,0-2.55-1.68h-30.2A2.77,2.77,0,0,0,1291.33,922.38Z"/><path class="cls-7" d="M1291.33,827.5l49.4,96.9a2.77,2.77,0,0,1-3.7,3.73l-4.85-2.42a2.77,2.77,0,0,0-4,2.47h0a2.77,2.77,0,0,1-4.5,2.16l-3.07-2.45a2.77,2.77,0,0,0-4.2.92l-1,2.06a2.77,2.77,0,0,1-4.2.92l-5.33-4.27a2.77,2.77,0,0,0-3.94.5l-2,2.61a2.77,2.77,0,0,1-4.59-.24l-3.63-6a2.77,2.77,0,0,1-.39-1.42Z"/></g></svg>