<?xml version="1.0" encoding="utf-8"?>
<!-- Generator: Adobe Illustrator 21.1.0, SVG Export Plug-In . SVG Version: 6.00 Build 0)  -->
<svg version="1.1" id="Lager_1" xmlns="http://www.w3.org/2000/svg" xmlns:xlink="http://www.w3.org/1999/xlink" x="0px" y="0px"
	 viewBox="0 0 1192.4 408.3" style="enable-background:new 0 0 1192.4 408.3;" xml:space="preserve">
<style type="text/css">
	.st0{fill:#8CC646;}
</style>
<title>KIVRA-ny-grön</title>
<g>
	<path class="st0" d="M348.3,96c-13.2,0-24,10.8-24,24v166.7c-58.3-4.6-87.4-27.8-133.6-81.5l70.1-67.9c9-9.7,8.5-24.9-1.2-33.9
		c-9-8.4-22.9-8.6-32.1-0.5l-69.3,67V120c0-13.3-10.7-24-24-24s-24,10.7-24,24v192.1c0,13.3,10.7,24,24,24s24-10.7,24-24V241
		c22.5,26,44.5,48.4,69.7,64.3c33,21,70.2,30.3,120.3,30.3c13.3,0,24-10.7,24-24V120C372.3,106.7,361.6,96,348.3,96L348.3,96z"/>
	<path class="st0" d="M1079.8,301.8l-90.7-192c-5.7-12-20-17.1-32-11.4c-5,2.4-9,6.4-11.4,11.4l-84,178
		c-53.8-2.5-83.8-19-117.8-53.9c32.3-29.5,34.7-79.6,5.2-111.9s-79.6-34.7-111.9-5.2c-8.1,7.3-14.5,16.3-19,26.2
		c0,0-0.1,0.1-0.1,0.2L570.8,257v0.1l-21,49.9c-5.1,12.1,0.6,26,12.8,31.1c12.1,5.1,26-0.6,31.1-12.8l50.2-120.9l18.3-42.1
		c7.1-15.8,25.6-22.8,41.3-15.7s22.8,25.6,15.7,41.3c-3.7,8.3-10.9,14.6-19.7,17.2c-12.7,3.7-20,17.1-16.3,29.8c1,3.3,2.7,6.4,4.9,9
		c53.4,61,97.2,92,188.6,92c9.3,0,17.7-5.3,21.7-13.7l68.9-146.1l69,146.1c5.3,12.1,19.5,17.7,31.6,12.4
		c12.1-5.3,17.7-19.5,12.4-31.6C1080.2,302.6,1080,302.2,1079.8,301.8L1079.8,301.8z"/>
	<path class="st0" d="M589.2,98.2c-12.1-5.4-26.3,0-31.7,12.1l0,0l-14.7,32.8h-0.2l0.2,0.1L494.6,251l-62.9-140.7
		c-4.9-12.3-18.8-18.4-31.1-13.5s-18.4,18.8-13.5,31.1c0.3,0.7,0.6,1.3,0.9,2l27,60.4L471.8,321c3.8,8.7,12.4,14.4,21.9,14.4
		c0.3,0,0.6,0,0.9,0s0.6,0,0.9,0c9.5-0.1,18.1-5.7,21.8-14.4l56.9-130.8l27-60.4C606.6,117.7,601.2,103.6,589.2,98.2z"/>
	<path class="st0" d="M542.6,143L542.6,143C542.5,143,542.5,143,542.6,143z"/>
</g>
</svg>
