<svg id="Layer_1" data-name="Layer 1" xmlns="http://www.w3.org/2000/svg" viewBox="0 0 300 300"><defs><style>.cls-1{fill:#ace3fc;}.cls-2{fill:#ccefff;}.cls-3{fill:#dcf4ff;}</style></defs><title>Rityta 1</title><path class="cls-1" d="M274.56,207.4l-34.66-20,35-9.36a11.16,11.16,0,1,0-5.78-21.56l-56.51,15.14-15.33-8.85a11.16,11.16,0,0,0-11.16,19.33l15.33,8.85,15.14,56.51a11.16,11.16,0,0,0,21.56-5.78l-9.36-35,34.66,20a11.16,11.16,0,1,0,11.16-19.33Z"/><path class="cls-2" d="M119.92,118.12l-15.33-8.85L89.44,52.76a11.16,11.16,0,1,0-21.56,5.78l9.36,35-34.66-20A11.16,11.16,0,0,0,31.43,92.81l34.66,20-35,9.36a11.16,11.16,0,0,0,5.78,21.56L93.42,128.6l15.33,8.85a11.16,11.16,0,0,0,11.16-19.34Z"/><path class="cls-2" d="M124,166.85a11.15,11.15,0,0,0-15.25-4.09l-15.33,8.85L36.91,156.47A11.16,11.16,0,0,0,31.13,178l35,9.36-34.66,20a11.16,11.16,0,0,0,11.16,19.33l34.66-20-9.36,35a11.16,11.16,0,1,0,21.56,5.78l15.14-56.51,15.33-8.85A11.16,11.16,0,0,0,124,166.85Z"/><path class="cls-1" d="M274.85,122.19l-35-9.36,34.66-20A11.16,11.16,0,1,0,263.4,73.48l-34.66,20,9.36-35a11.16,11.16,0,0,0-21.56-5.78L201.4,109.27l-15.33,8.85a11.16,11.16,0,1,0,11.16,19.33l15.33-8.85,56.51,15.14a11.16,11.16,0,1,0,5.78-21.56Z"/><path class="cls-2" d="M205.45,46.32,164.08,87.83v17.63a11.12,11.12,0,1,1-22.25,0V87.83L100.54,46.32a11,11,0,0,1,15.62-15.62l25.67,25.44v-40a11.12,11.12,0,1,1,22.25,0v40l25.74-25.45a11,11,0,1,1,15.62,15.62Z"/><path class="cls-1" d="M205.45,46.32,164.08,87.83v17.63A11,11,0,0,1,153,116.63V5a11,11,0,0,1,11.09,11.16v40l25.74-25.45a11,11,0,1,1,15.62,15.62Z"/><path class="cls-2" d="M205.45,269.52a10.79,10.79,0,0,1-15.62,0l-25.74-25.44v40a11.12,11.12,0,1,1-22.25,0v-40l-25.67,25.45a11,11,0,0,1-15.62-15.62l41.29-41.52V194.75a11.12,11.12,0,1,1,22.25,0v17.63l41.37,41.52A10.79,10.79,0,0,1,205.45,269.52Z"/><path class="cls-1" d="M205.45,269.52a10.79,10.79,0,0,1-15.62,0l-25.74-25.44v40A11,11,0,0,1,153,295.19V183.59a11,11,0,0,1,11.09,11.16v17.63l41.37,41.52A10.79,10.79,0,0,1,205.45,269.52Z"/><path class="cls-3" d="M153,104.72a45.39,45.39,0,1,0,45.39,45.39A45.4,45.4,0,0,0,153,104.72Z"/><path class="cls-2" d="M198.38,150.11A45.4,45.4,0,0,1,153,195.49V104.72A45.4,45.4,0,0,1,198.38,150.11Z"/><path class="cls-1" d="M258.36,202.68,279.68,197a6.81,6.81,0,0,0-3.52-13.15l-34.48,9.24-9.35-5.4a6.81,6.81,0,1,0-6.81,11.8l9.35,5.4,9.24,34.47a6.81,6.81,0,1,0,13.15-3.52l-5.71-21.32Z"/><path class="cls-2" d="M77.59,98.77l-9.35-5.4L59,58.89a6.81,6.81,0,0,0-13.15,3.52l5.71,21.32L44.75,95.54l-21.32,5.71a6.81,6.81,0,0,0,3.52,13.15l34.48-9.24,9.35,5.4a6.81,6.81,0,0,0,6.81-11.8Z"/><path class="cls-2" d="M82.22,190.89a6.8,6.8,0,0,0-9.3-2.49l-9.35,5.4-34.48-9.24a6.81,6.81,0,0,0-3.52,13.15l21.32,5.71,6.81,11.79L48,236.55a6.81,6.81,0,1,0,13.15,3.52l9.24-34.47,9.35-5.4A6.81,6.81,0,0,0,82.22,190.89Z"/><path class="cls-1" d="M279.68,103.24l-21.32-5.71-6.81-11.79,5.71-21.32a6.81,6.81,0,0,0-13.15-3.52l-9.24,34.47-9.35,5.4a6.81,6.81,0,1,0,6.81,11.8l9.35-5.4,34.48,9.24a6.81,6.81,0,1,0,3.52-13.15Z"/><path class="cls-2" d="M185.22,285.34a6.58,6.58,0,0,1-9.53,0L160,269.82H146.41l-15.66,15.52a6.74,6.74,0,0,1-9.53-9.53l25.19-25.33V239.73a6.79,6.79,0,1,1,13.57,0v10.76l25.24,25.33A6.58,6.58,0,0,1,185.22,285.34Z"/><path class="cls-1" d="M185.22,285.34a6.58,6.58,0,0,1-9.53,0L160,269.82h-6.76v-36.9a6.7,6.7,0,0,1,6.76,6.81v10.76l25.24,25.33A6.58,6.58,0,0,1,185.22,285.34Z"/><path class="cls-2" d="M185.22,24.4,160,49.73V60.49a6.79,6.79,0,1,1-13.57,0V49.73L121.22,24.4a6.58,6.58,0,0,1,0-9.53,6.58,6.58,0,0,1,9.53,0l15.66,15.52H160l15.71-15.52a6.58,6.58,0,0,1,9.53,0A6.58,6.58,0,0,1,185.22,24.4Z"/><path class="cls-1" d="M185.22,24.4,160,49.73V60.49a6.7,6.7,0,0,1-6.76,6.81V30.39H160l15.71-15.52a6.58,6.58,0,0,1,9.53,0A6.58,6.58,0,0,1,185.22,24.4Z"/></svg>